<?xml version="1.0" encoding="utf-8"?>
<!-- Generator: Adobe Adobe Illustrator 24.2.0, SVG Export Plug-In . SVG Version: 6.00 Build 0)  -->
<svg version="1.1" id="Layer_1" xmlns="http://www.w3.org/2000/svg" xmlns:xlink="http://www.w3.org/1999/xlink" x="0px" y="0px"
	 viewBox="0 0 2350 886" style="enable-background:new 0 0 2350 886;" xml:space="preserve">
<style type="text/css">
	.st0{fill:none;}
	.st1{fill:#C3435D;}
	.st2{fill:#FFFFFF;}
	.st3{fill:#0A57A3;}
	.st4{fill:#F1A81E;}
	.st5{enable-background:new    ;}
	.st6{fill:#403C3B;}
	.st7{fill:#1155A5;}
</style>
<g>
	<g>
		<g>
			<path class="st0" d="M2266.46,603.4c-392.9,0-785.8,0-1178.79,0c0-177.53,0-355.05,0-532.8c388.93,0,777.93,0,1166.94,0
				c-1.04,0.82-2.27,0.45-3.41,0.46c-10.26,0.05-20.53,0.07-30.78,0.07c-31.84,0.02-63.68,0.05-95.51,0.05
				c-57.89,0.01-115.78,0-173.67,0c-1.31,0-2.63,0-3.95,0.03c-0.35,0.01-0.8-0.04-1.05,0.71c1.48,2.03,3.28,3.99,5.29,5.79
				c6.62,5.9,12.79,12.22,18.32,19.11c24.67,30.73,35.87,65.56,33,104.56c-1.26,17.02-6.41,32.98-14.67,47.99
				c-9.01,16.38-20.97,30.44-35.35,42.56c-12.32,10.39-25.99,18.74-40.68,25.55c-1.42,0.66-2.87,1.29-4.22,2.08
				c-2.09,1.23-2.38,2.57-0.97,4.44c1.01,1.34,2.19,2.57,3.21,3.9c26.59,34.63,53.19,69.26,79.78,103.89
				c0.63,0.82,1.24,1.67,1.96,2.42c2.1,2.17,4.29,2.57,7.13,1.28c1.19-0.53,2.32-1.2,3.45-1.85c14.06-8.04,28.12-16.1,42.18-24.13
				c9.08-5.18,18.16-10.36,27.26-15.5c8.86-5,18.33-7.34,28.64-7.08c14.73,0.37,29.46,0.4,44.2,0.43
				c37.49,0.07,74.99,0.04,112.49,0.06c4.6,0,9.21,0.04,13.81,0.02c1.3-0.01,2.64-0.07,3.92-0.3c2.47-0.44,3.98-1.89,4.21-4.41
				c0.12-1.41,0.23-2.82,0.21-4.23c-0.31-30.83-0.45-61.67,0.08-92.5c0.03-1.66-0.06-3.35-0.29-4.99c-0.48-3.36-2.2-4.94-5.71-5.29
				c-1.56-0.16-3.15-0.14-4.73-0.14c-18.29,0.03-36.57,0.08-54.87,0.09c-39.21,0.05-78.41,0.08-117.62,0.11
				c-1.71,0-3.43,0.05-5.12-0.16c-3.07-0.38-4.73-1.94-5.27-4.9c-0.25-1.38-0.25-2.81-0.21-4.22c0.38-16.44,0.4-32.89-0.01-49.33
				c-0.03-1.15-0.05-2.32,0.11-3.46c0.43-3.21,2.06-4.79,5.39-5.12c1.96-0.19,3.94-0.19,5.92-0.18c19.08,0.03,38.16,0.1,57.23,0.12
				c31.97,0.04,63.94,0.05,95.92,0.07c15.52,0.01,31.05,0.01,46.57,0.07c2.84,0.01,5.43-0.37,7.55-2.36c0,93.3,0,186.6,0,279.9
				c-1.72-1.55-3.79-2.15-6.07-2.17c-0.79-0.01-1.58-0.01-2.37-0.01c-26.57,0.03-53.13,0.07-79.71,0.09
				c-32.1,0.02-64.18,0.04-96.28-0.03c-5.28-0.01-10.01,1.17-14.55,3.92c-13.85,8.38-27.79,16.61-41.95,24.49
				c-0.68,0.38-1.36,0.78-1.99,1.24c-2.18,1.59-2.53,3.02-1.16,5.29c0.94,1.54,2.04,2.99,3.12,4.45
				c17.52,24.06,35.19,48.04,52.39,72.32c0.53,0.74,1.05,1.47,1.63,2.17c1.7,2.05,3.79,3.48,6.43,4.21c2.05,0.56,4.07,0.96,6.2,0.92
				c4.33-0.08,8.68-0.14,13.02-0.15c19.2-0.06,38.41-0.13,57.61-0.13c20.65,0,41.3,0.08,61.94,0.12c0.92,0,1.84-0.02,2.76,0.06
				C2265.75,603,2266.1,603.25,2266.46,603.4z M1757.26,301.7c-0.21-1.36-0.97-1.95-1.51-2.65c-2.21-2.88-4.47-5.73-6.67-8.6
				c-10.71-13.93-19.66-28.85-26.66-44.88c-9.26-21.21-14.74-43.31-16.8-66.26c-0.75-8.28-0.17-16.41,1.62-24.51
				c2.21-10.02,6.34-19.28,11.63-28.09c5.62-9.34,12.29-17.92,19.65-26c7.8-8.56,16.34-16.38,25.09-23.99
				c1.48-1.28,2.94-2.57,4.4-3.87c0.17-0.16,0.35-0.44,0.33-0.66c-0.03-0.41-0.35-0.65-0.78-0.67c-2.49-0.1-4.99-0.28-7.49-0.28
				c-54.21-0.03-108.44-0.04-162.65-0.05c-9.74,0-19.47-0.04-29.21-0.06c-2.63-0.01-5.26,0-7.89-0.02
				c-3.58-0.03-5.94,1.73-7.45,4.77c-0.4,0.81-0.71,1.66-1.05,2.49c-1.97,4.89-3.95,9.79-5.92,14.69
				c-19.46,48.38-38.95,96.75-58.38,145.14c-17.54,43.73-35.01,87.5-52.52,131.25c-0.38,0.96-0.74,1.92-1.21,2.84
				c-0.48,0.94-2.1,0.91-2.61-0.04c-0.42-0.8-0.73-1.65-1.08-2.48c-3.66-8.52-7.31-17.04-10.98-25.56
				c-18.78-43.67-36.92-87.59-55.13-131.48c-18.32-44.13-36.49-88.31-54.73-132.46c-0.64-1.55-1.29-3.09-2.09-4.57
				c-1.45-2.68-3.72-4.28-6.89-4.47c-1.57-0.09-3.15-0.17-4.73-0.16c-21.71,0.05-43.43,0.16-65.13,0.15
				c-44.22-0.04-88.44-0.13-132.65-0.19c-1.44,0-2.9,0.11-4.32,0.28c-2.36,0.28-3.8,1.63-4.3,3.89c-0.45,2.01-0.81,4-0.79,6.09
				c0.13,8.86,0.22,17.72,0.25,26.59c0.1,30.45,0.18,60.91,0.24,91.35c0.05,25.7,0.1,51.4,0.09,77.11
				c-0.01,40.35-0.04,80.71-0.09,121.05c-0.06,41.25-0.13,82.5-0.25,123.74c-0.04,14.39,0.16,28.78-0.17,43.17
				c-0.22,9.51-0.04,19.02-0.05,28.53c0,1.42,0.28,2.79,0.46,4.19c0.53,4,2.91,5.24,6.37,5.61c1.17,0.12,2.36,0.15,3.55,0.15
				c1.97,0.01,3.95-0.06,5.92-0.07c14.08-0.06,28.16-0.13,42.24-0.14c24.87-0.01,49.74,0,74.62,0.06
				c11.18,0.03,22.37,0.19,33.54,0.3c2.12,0.02,4.19-0.17,6.23-0.79c2.2-0.67,3.55-2.02,4.17-4.2c0.61-2.15,0.54-4.33,0.54-6.51
				c-0.06-31.36-0.17-62.71-0.18-94.06c-0.02-49.73,0.02-99.46,0.04-149.2c0-1.03,0-2.05,0.03-3.08c0.01-0.36-0.01-0.77,0.66-0.98
				c1.72,1.48,2.85,3.35,3.6,5.6c5.56,16.72,11.23,33.41,16.82,50.12c21.77,65.01,43.52,130.02,65.29,195.04
				c0.41,1.22,0.85,2.43,1.34,3.62c1.1,2.68,3.24,3.95,6.11,4.12c1.18,0.07,2.37,0.03,3.56,0.03c38.95,0,77.9,0,116.86,0
				c6.45,0,12.89-0.01,19.35,0c3.88,0.01,6.66-1.57,7.6-5.36c0.12-0.5,0.36-0.97,0.53-1.45c2.92-8.51,5.85-17.03,8.77-25.55
				c14.5-42.35,28.93-84.73,43.51-127.05c9.92-28.83,20.03-57.6,30.08-86.39c0.32-0.92,0.35-2.07,1.37-2.61
				c0.65-0.35,1.51,1.18,1.69,3.08c0.05,0.51,0.04,1.03,0.04,1.54c0.15,14.14,0.32,28.26,0.45,42.4
				c0.25,27.63,0.51,55.25,0.72,82.88c0.2,26.73,0.35,53.45,0.49,80.18c0.05,9.89-0.02,19.79-0.04,29.68c0,1.67-0.01,3.33,0.45,4.97
				c0.46,1.63,1.47,2.66,3.08,3.23c1.65,0.58,3.35,0.64,5.06,0.61c3.42-0.06,6.84-0.17,10.26-0.17c21.71-0.05,43.43-0.08,65.13-0.11
				c1.84,0,3.68-0.11,5.5,0.33c0.5,0.12,1.04,0.18,1.55,0.11c1.26-0.16,2.23-0.78,2.67-1.99c0.39-1.09-0.04-2.02-0.85-2.77
				c-0.38-0.36-0.81-0.66-1.2-1c-1.37-1.2-2.8-2.33-4.09-3.61c-15.16-14.9-27.44-31.78-36.83-50.67
				c-10.07-20.23-15.98-41.55-17.51-63.97c-0.86-12.7-0.63-25.41,1.27-38.07c1.73-11.49,4.63-22.65,9.34-33.33
				c6.66-15.12,15.91-28.64,26.9-41.06c14.91-16.86,32.41-30.78,51.5-42.85c11.26-7.12,23.12-13.26,35.04-19.26
				C1753.67,303.52,1755.41,302.64,1757.26,301.7z M1728.97,451.45c0,3.21,0.29,6.4,0.55,9.6c0.47,5.91,1.51,11.72,2.96,17.43
				c2.93,11.51,7.33,22.47,13.71,32.61c10.16,16.18,23.81,28.57,41.49,36.66c13.31,6.08,27.42,8.47,41.95,9.09
				c3.95,0.17,7.87-0.38,11.8-0.56c3.3-0.16,6.57-0.55,9.76-1.13c12.89-2.34,24.92-6.94,35.99-13.89
				c12.53-7.87,23.03-17.87,32.38-29.1c1.25-1.49,2.46-3.02,3.6-4.58c1.51-2.1,1.63-4.29,0.15-6.47c-0.65-0.97-1.36-1.89-2.09-2.79
				c-15.39-19.07-30.81-38.1-46.16-57.18c-21.77-27.06-43.49-54.18-65.24-81.26c-1.05-1.31-2.17-2.58-3.33-3.81
				c-2.32-2.44-5.16-2.82-8.29-1.82c-0.62,0.2-1.25,0.4-1.84,0.67c-9.31,4.29-18.03,9.51-25.99,15.9
				c-8.27,6.66-15.38,14.41-21.65,22.86C1735.92,410.89,1728.95,430.04,1728.97,451.45z M1928.49,180.05
				c-0.12-3.58,0.03-7.16-0.75-10.72c-1.77-8.21-4.63-16.02-8.75-23.39c-4.99-8.92-11.57-16.53-20.08-22.41
				c-8.04-5.56-16.93-9.06-26.77-10.45c-6.17-0.87-12.34-0.92-18.47-0.4c-5.99,0.5-11.88,1.93-17.63,3.76
				c-11.88,3.78-21.54,10.57-28.89,20.42c-8.2,10.99-12.42,23.31-12.78,36.95c-0.31,11.31,2.19,21.85,7.78,31.77
				c3.75,6.63,7.52,13.25,11.75,19.58c8.84,13.21,17.8,26.35,26.71,39.52c0.29,0.43,0.59,0.85,0.87,1.28
				c1.58,2.42,4.29,2.32,6.23,1.25c0.91-0.51,1.78-1.08,2.67-1.65c9.32-6.01,18.62-12.05,27.95-18.04
				c6.37-4.09,12.8-8.08,19.14-12.21c8.98-5.84,16.59-13.04,22.12-22.15C1925.77,202.95,1928.74,191.91,1928.49,180.05z"/>
			<g>
				<path class="st1" d="M2304.35,206.3c-2.13,1.99-4.73,2.38-7.55,2.36c-15.52-0.07-31.05-0.07-46.57-0.07
					c-31.97-0.03-63.94-0.03-95.92-0.07c-19.08-0.02-38.16-0.09-57.23-0.12c-1.98,0-3.95-0.01-5.92,0.18
					c-3.33,0.32-4.96,1.9-5.39,5.12c-0.15,1.14-0.13,2.31-0.11,3.46c0.41,16.44,0.39,32.89,0.01,49.33
					c-0.03,1.41-0.04,2.85,0.21,4.22c0.54,2.97,2.2,4.52,5.27,4.9c1.69,0.22,3.41,0.16,5.12,0.16c39.21-0.03,78.41-0.07,117.62-0.11
					c18.29-0.02,36.57-0.07,54.87-0.09c1.58,0,3.16-0.02,4.73,0.14c3.51,0.35,5.23,1.94,5.71,5.29c0.23,1.65,0.32,3.33,0.29,4.99
					c-0.54,30.83-0.38,61.67-0.08,92.5c0.01,1.41-0.09,2.82-0.21,4.23c-0.23,2.51-1.73,3.97-4.21,4.41c-1.28,0.23-2.61,0.3-3.92,0.3
					c-4.6,0.03-9.21-0.02-13.81-0.02c-37.49-0.02-75,0.01-112.49-0.06c-14.74-0.03-29.47-0.06-44.2-0.43
					c-10.31-0.26-19.79,2.08-28.64,7.08c-9.1,5.14-18.18,10.31-27.26,15.5c-14.06,8.03-28.12,16.09-42.18,24.13
					c-1.13,0.65-2.26,1.3-3.45,1.85c-2.85,1.28-5.03,0.89-7.13-1.28c-0.72-0.74-1.32-1.59-1.96-2.42
					c-26.59-34.63-53.18-69.27-79.78-103.89c-1.03-1.33-2.2-2.56-3.21-3.9c-1.41-1.87-1.13-3.22,0.97-4.44
					c1.35-0.79,2.79-1.42,4.22-2.08c14.69-6.81,28.36-15.16,40.68-25.55c14.38-12.12,26.34-26.18,35.35-42.56
					c8.25-15.01,13.41-30.96,14.67-47.99c2.88-39.01-8.32-73.82-33-104.56c-5.53-6.89-11.7-13.22-18.32-19.11
					c-2.02-1.8-3.83-3.76-5.29-5.79c0.26-0.75,0.7-0.7,1.05-0.71c1.31-0.03,2.63-0.03,3.95-0.03c57.89,0,115.78,0.01,173.67,0
					c31.84,0,63.68-0.03,95.51-0.05c10.26-0.01,20.53-0.02,30.78-0.07c1.14-0.01,2.37,0.37,3.41-0.46c14.74,0,29.48,0,44.22,0
					c0.26,0.54,0.77,0.63,1.28,0.66c2.15,0.14,3.44,1.35,4.24,3.2C2304.35,118.4,2304.35,162.35,2304.35,206.3z"/>
				<path class="st1" d="M2266.46,603.4c-0.35-0.15-0.7-0.39-1.06-0.42c-0.91-0.08-1.84-0.06-2.76-0.06
					c-20.65-0.05-41.3-0.12-61.94-0.12c-19.2,0-38.41,0.08-57.61,0.13c-4.34,0.01-8.68,0.08-13.02,0.15
					c-2.13,0.04-4.16-0.36-6.2-0.92c-2.65-0.73-4.74-2.16-6.43-4.21c-0.58-0.7-1.11-1.43-1.63-2.17
					c-17.21-24.28-34.87-48.25-52.39-72.32c-1.06-1.46-2.18-2.91-3.12-4.45c-1.38-2.27-1.02-3.69,1.16-5.29
					c0.63-0.46,1.31-0.86,1.99-1.24c14.16-7.87,28.1-16.11,41.95-24.49c4.54-2.75,9.27-3.94,14.55-3.92
					c32.1,0.07,64.18,0.05,96.28,0.03c26.57-0.01,53.13-0.06,79.71-0.09c0.79,0,1.58,0,2.37,0.01c2.28,0.03,4.35,0.63,6.07,2.17
					c0,38.04,0,76.07,0,114.12c-1.13,0.78-2.09,1.82-3.48,2.22c-0.38,0.11-0.58,0.43-0.47,0.86
					C2289.09,603.4,2277.77,603.4,2266.46,603.4z"/>
			</g>
			<path class="st2" d="M2304.35,74.45c-0.8-1.85-2.09-3.06-4.24-3.2c-0.52-0.04-1.04-0.12-1.28-0.66c1.76,0,3.54,0,5.53,0
				C2304.35,71.87,2304.35,73.16,2304.35,74.45z"/>
			<path class="st2" d="M2300.4,603.4c-0.11-0.43,0.08-0.75,0.47-0.86c1.39-0.4,2.35-1.44,3.48-2.22c0,1.03,0,2.05,0,3.08
				C2303.04,603.4,2301.73,603.4,2300.4,603.4z"/>
			<path class="st3" d="M1757.26,301.7c-1.86,0.94-3.6,1.82-5.35,2.7c-11.92,6.01-23.78,12.14-35.04,19.26
				c-19.09,12.07-36.59,25.99-51.5,42.85c-10.98,12.42-20.23,25.94-26.9,41.06c-4.71,10.68-7.62,21.83-9.34,33.33
				c-1.9,12.66-2.13,25.37-1.27,38.07c1.52,22.41,7.44,43.74,17.51,63.97c9.4,18.89,21.68,35.77,36.83,50.67
				c1.29,1.27,2.72,2.41,4.09,3.61c0.39,0.34,0.81,0.65,1.2,1c0.81,0.76,1.25,1.69,0.85,2.77c-0.43,1.2-1.41,1.83-2.67,1.99
				c-0.51,0.07-1.05,0-1.55-0.11c-1.82-0.44-3.66-0.33-5.5-0.33c-21.71,0.03-43.43,0.07-65.13,0.11c-3.42,0.01-6.84,0.12-10.26,0.17
				c-1.72,0.03-3.41-0.03-5.06-0.61c-1.61-0.57-2.61-1.59-3.08-3.23c-0.47-1.64-0.46-3.3-0.45-4.97c0.01-9.89,0.09-19.79,0.04-29.68
				c-0.13-26.73-0.29-53.45-0.49-80.18c-0.21-27.63-0.46-55.25-0.72-82.88c-0.12-14.14-0.3-28.26-0.45-42.4
				c-0.01-0.52,0.01-1.03-0.04-1.54c-0.19-1.91-1.04-3.43-1.69-3.08c-1.02,0.53-1.05,1.69-1.37,2.61
				c-10.06,28.79-20.16,57.56-30.08,86.39c-14.57,42.33-29.01,84.7-43.51,127.05c-2.91,8.52-5.85,17.03-8.77,25.55
				c-0.16,0.49-0.41,0.96-0.53,1.45c-0.94,3.79-3.72,5.37-7.6,5.36c-6.45-0.01-12.89,0-19.35,0c-38.95,0-77.9,0-116.86,0
				c-1.19,0-2.37,0.04-3.56-0.03c-2.87-0.17-5-1.44-6.11-4.12c-0.49-1.19-0.94-2.4-1.34-3.62
				c-21.76-65.01-43.52-130.02-65.29-195.04c-5.6-16.71-11.26-33.4-16.82-50.12c-0.75-2.24-1.88-4.12-3.6-5.6
				c-0.67,0.22-0.65,0.63-0.66,0.98c-0.03,1.03-0.03,2.05-0.03,3.08c-0.02,49.73-0.06,99.46-0.04,149.2
				c0.01,31.36,0.12,62.71,0.18,94.06c0,2.17,0.08,4.36-0.54,6.51c-0.62,2.18-1.96,3.54-4.17,4.2c-2.04,0.61-4.11,0.81-6.23,0.79
				c-11.18-0.11-22.37-0.28-33.54-0.3c-24.87-0.06-49.74-0.07-74.62-0.06c-14.08,0.01-28.16,0.08-42.24,0.14
				c-1.97,0.01-3.95,0.07-5.92,0.07c-1.18,0-2.37-0.03-3.55-0.15c-3.46-0.37-5.85-1.6-6.37-5.61c-0.18-1.4-0.47-2.77-0.46-4.19
				c0.01-9.51-0.17-19.02,0.05-28.53c0.34-14.39,0.13-28.78,0.17-43.17c0.12-41.25,0.19-82.5,0.25-123.74
				c0.06-40.35,0.09-80.71,0.09-121.05c0-25.7-0.04-51.4-0.09-77.11c-0.06-30.45-0.14-60.91-0.24-91.35
				c-0.03-8.88-0.12-17.74-0.25-26.6c-0.03-2.08,0.34-4.09,0.79-6.09c0.51-2.26,1.95-3.61,4.3-3.89c1.43-0.17,2.89-0.28,4.32-0.28
				c44.21,0.06,88.43,0.15,132.64,0.18c21.71,0.01,43.43-0.1,65.13-0.15c1.57,0,3.15,0.07,4.73,0.16c3.17,0.19,5.44,1.79,6.89,4.47
				c0.8,1.47,1.45,3.02,2.09,4.57c18.24,44.15,36.42,88.34,54.73,132.46c18.22,43.89,36.36,87.81,55.13,131.48
				c3.66,8.52,7.31,17.04,10.98,25.56c0.35,0.82,0.65,1.69,1.08,2.48c0.51,0.95,2.12,0.97,2.61,0.04c0.47-0.91,0.83-1.88,1.21-2.84
				c17.51-43.75,34.96-87.52,52.52-131.25c19.43-48.39,38.92-96.75,58.38-145.13c1.97-4.89,3.94-9.8,5.92-14.69
				c0.34-0.83,0.65-1.69,1.05-2.49c1.5-3.04,3.87-4.8,7.45-4.77c2.63,0.02,5.26,0.01,7.89,0.02c9.74,0.02,19.47,0.06,29.21,0.06
				c54.21,0.02,108.44,0.02,162.65,0.05c2.49,0,4.99,0.18,7.49,0.28c0.43,0.02,0.75,0.25,0.78,0.67c0.01,0.22-0.15,0.5-0.33,0.66
				c-1.46,1.3-2.92,2.59-4.4,3.87c-8.75,7.61-17.29,15.44-25.09,23.99c-7.36,8.08-14.04,16.67-19.65,26
				c-5.29,8.79-9.41,18.06-11.63,28.09c-1.79,8.09-2.36,16.22-1.62,24.51c2.07,22.96,7.54,45.06,16.8,66.26
				c7,16.03,15.96,30.95,26.66,44.88c2.21,2.88,4.47,5.72,6.67,8.6C1756.3,299.75,1757.05,300.34,1757.26,301.7z"/>
			<path class="st4" d="M1728.97,451.45c-0.02-21.41,6.95-40.55,19.74-57.78c6.28-8.45,13.37-16.2,21.65-22.86
				c7.96-6.4,16.68-11.62,25.99-15.9c0.59-0.27,1.22-0.48,1.84-0.67c3.14-1,5.97-0.62,8.29,1.82c1.16,1.22,2.28,2.49,3.33,3.81
				c21.75,27.08,43.47,54.19,65.24,81.26c15.35,19.09,30.77,38.13,46.16,57.18c0.73,0.91,1.44,1.84,2.09,2.79
				c1.48,2.17,1.36,4.38-0.15,6.47c-1.14,1.57-2.35,3.09-3.6,4.58c-9.35,11.23-19.84,21.23-32.38,29.1
				c-11.06,6.96-23.09,11.54-35.99,13.89c-3.19,0.58-6.47,0.97-9.76,1.13c-3.93,0.19-7.84,0.73-11.8,0.56
				c-14.53-0.63-28.65-3.01-41.95-9.09c-17.68-8.09-31.33-20.48-41.49-36.66c-6.38-10.14-10.78-21.1-13.71-32.61
				c-1.46-5.72-2.49-11.52-2.96-17.43C1729.26,457.85,1728.97,454.66,1728.97,451.45z"/>
			<path class="st4" d="M1928.49,180.05c0.25,11.86-2.71,22.9-8.89,33.08c-5.52,9.11-13.13,16.31-22.12,22.15
				c-6.34,4.12-12.77,8.12-19.14,12.21c-9.33,5.99-18.64,12.03-27.95,18.04c-0.87,0.56-1.75,1.14-2.67,1.65
				c-1.94,1.07-4.66,1.17-6.23-1.25c-0.29-0.43-0.58-0.85-0.87-1.28c-8.91-13.17-17.87-26.3-26.71-39.52
				c-4.24-6.34-8.01-12.96-11.75-19.58c-5.6-9.92-8.09-20.46-7.78-31.77c0.37-13.63,4.58-25.96,12.78-36.95
				c7.34-9.84,17.01-16.64,28.89-20.42c5.75-1.83,11.64-3.26,17.63-3.76c6.13-0.52,12.29-0.47,18.47,0.4
				c9.84,1.39,18.72,4.89,26.77,10.45c8.51,5.89,15.09,13.48,20.08,22.41c4.12,7.37,6.98,15.18,8.75,23.39
				C1928.52,172.89,1928.36,176.47,1928.49,180.05z"/>
		</g>
		<g class="st5">
			<path class="st6" d="M1094.16,705.47v-61.31h12.49l14.84,43.41c1.37,4.04,2.37,7.07,2.99,9.08c0.71-2.23,1.82-5.51,3.34-9.83
				l15.01-42.66H1154v61.31h-8v-51.32l-18.22,51.32h-7.49l-18.13-52.19v52.19H1094.16z"/>
			<path class="st6" d="M1164.86,675.61c0-10.18,2.79-18.14,8.38-23.9c5.59-5.76,12.8-8.64,21.64-8.64c5.79,0,11.01,1.35,15.65,4.06
				c4.65,2.71,8.19,6.48,10.63,11.31c2.44,4.84,3.66,10.32,3.66,16.46c0,6.22-1.28,11.78-3.85,16.69s-6.2,8.62-10.91,11.15
				c-4.7,2.52-9.78,3.79-15.23,3.79c-5.9,0-11.18-1.39-15.83-4.18s-8.17-6.59-10.56-11.42
				C1166.06,686.09,1164.86,680.99,1164.86,675.61z M1173.42,675.74c0,7.39,2.03,13.21,6.09,17.46s9.16,6.38,15.29,6.38
				c6.25,0,11.38-2.15,15.42-6.44c4.03-4.29,6.05-10.38,6.05-18.28c0-4.99-0.86-9.35-2.59-13.07c-1.73-3.72-4.25-6.61-7.57-8.66
				c-3.32-2.05-7.05-3.07-11.18-3.07c-5.87,0-10.93,1.97-15.16,5.92C1175.53,659.92,1173.42,666.51,1173.42,675.74z"/>
			<path class="st6" d="M1235.43,705.47v-61.31h8.51l32.93,48.14v-48.14h7.96v61.31h-8.51l-32.93-48.18v48.18H1235.43z"/>
			<path class="st6" d="M1300.18,705.47v-61.31h8.3v61.31H1300.18z"/>
			<path class="st6" d="M1339.06,705.47V651.4h-20.66v-7.23h49.7v7.23h-20.74v54.08H1339.06z"/>
			<path class="st6" d="M1372.51,675.61c0-10.18,2.79-18.14,8.38-23.9c5.59-5.76,12.8-8.64,21.64-8.64c5.79,0,11.01,1.35,15.65,4.06
				c4.65,2.71,8.19,6.48,10.63,11.31c2.44,4.84,3.66,10.32,3.66,16.46c0,6.22-1.28,11.78-3.85,16.69
				c-2.57,4.91-6.2,8.62-10.91,11.15c-4.7,2.52-9.78,3.79-15.23,3.79c-5.9,0-11.18-1.39-15.83-4.18s-8.17-6.59-10.56-11.42
				C1373.71,686.09,1372.51,680.99,1372.51,675.61z M1381.06,675.74c0,7.39,2.03,13.21,6.09,17.46s9.16,6.38,15.29,6.38
				c6.24,0,11.38-2.15,15.42-6.44c4.03-4.29,6.05-10.38,6.05-18.28c0-4.99-0.86-9.35-2.59-13.07c-1.73-3.72-4.25-6.61-7.57-8.66
				c-3.32-2.05-7.05-3.07-11.18-3.07c-5.88,0-10.93,1.97-15.16,5.92S1381.06,666.51,1381.06,675.74z"/>
			<path class="st6" d="M1443.29,705.47v-61.31h27.8c5.59,0,9.84,0.55,12.75,1.65c2.91,1.1,5.23,3.05,6.97,5.83
				c1.74,2.79,2.61,5.87,2.61,9.24c0,4.35-1.44,8.02-4.32,11c-2.88,2.98-7.33,4.88-13.34,5.69c2.2,1.03,3.86,2.05,5,3.05
				c2.42,2.17,4.72,4.89,6.89,8.16l10.91,16.69h-10.44l-8.3-12.76c-2.42-3.68-4.42-6.5-5.99-8.45c-1.57-1.95-2.97-3.32-4.21-4.1
				c-1.24-0.78-2.5-1.32-3.79-1.63c-0.94-0.19-2.48-0.29-4.62-0.29h-9.62v27.23H1443.29z M1451.59,671.22h17.83
				c3.79,0,6.76-0.38,8.9-1.15c2.14-0.77,3.76-1.99,4.88-3.68c1.11-1.69,1.67-3.52,1.67-5.5c0-2.9-1.08-5.28-3.23-7.15
				c-2.15-1.87-5.55-2.8-10.2-2.8h-19.84V671.22z"/>
			<path class="st6" d="M1507.83,705.47v-61.31h8.3v61.31H1507.83z"/>
			<path class="st6" d="M1530.67,705.47v-61.31h8.51l32.93,48.14v-48.14h7.96v61.31h-8.51l-32.93-48.18v48.18H1530.67z"/>
			<path class="st6" d="M1623.35,681.42v-7.19l26.56-0.04v22.75c-4.08,3.18-8.28,5.57-12.62,7.17c-4.33,1.6-8.78,2.41-13.34,2.41
				c-6.16,0-11.75-1.29-16.79-3.87c-5.03-2.58-8.83-6.31-11.4-11.19c-2.57-4.88-3.85-10.33-3.85-16.35c0-5.97,1.28-11.54,3.83-16.71
				c2.55-5.17,6.22-9.01,11.01-11.52c4.79-2.51,10.31-3.76,16.55-3.76c4.53,0,8.63,0.72,12.3,2.15c3.66,1.44,6.54,3.44,8.62,6
				s3.66,5.91,4.75,10.04l-7.48,2.01c-0.94-3.12-2.11-5.58-3.51-7.36c-1.4-1.78-3.39-3.21-5.99-4.29c-2.59-1.07-5.47-1.61-8.64-1.61
				c-3.79,0-7.07,0.56-9.84,1.69c-2.77,1.13-5,2.61-6.69,4.45c-1.7,1.84-3.02,3.86-3.96,6.06c-1.6,3.79-2.4,7.9-2.4,12.34
				c0,5.46,0.96,10.04,2.89,13.72c1.92,3.68,4.73,6.41,8.4,8.2c3.68,1.79,7.58,2.68,11.72,2.68c3.59,0,7.1-0.68,10.52-2.03
				c3.42-1.35,6.02-2.79,7.78-4.33v-11.42H1623.35z"/>
			<path class="st6" d="M1721.34,698.24c-2.54,2.76-5.3,4.83-8.3,6.21s-6.23,2.07-9.71,2.07c-6.42,0-11.5-2.12-15.27-6.36
				c-3.05-3.46-4.58-7.32-4.58-11.58c0-3.79,1.25-7.21,3.74-10.27c2.5-3.05,6.22-5.74,11.18-8.05c-2.82-3.18-4.71-5.76-5.65-7.74
				c-0.94-1.98-1.41-3.89-1.41-5.73c0-3.68,1.48-6.88,4.43-9.6c2.95-2.72,6.67-4.08,11.14-4.08c4.28,0,7.78,1.28,10.5,3.85
				s4.08,5.65,4.08,9.24c0,5.83-3.95,10.8-11.85,14.93l11.25,14.01c1.28-2.45,2.28-5.3,2.99-8.53l8,1.67
				c-1.37,5.35-3.22,9.76-5.56,13.22c2.88,3.74,6.14,6.87,9.79,9.41l-5.17,5.98C1727.85,704.94,1724.64,702.06,1721.34,698.24z
				 M1716.5,692.3l-14.11-17.11c-4.16,2.43-6.97,4.68-8.43,6.75s-2.18,4.13-2.18,6.17c0,2.48,1.01,5.06,3.04,7.74
				s4.89,4.01,8.6,4.01c2.31,0,4.7-0.7,7.16-2.11C1713.05,696.35,1715.02,694.53,1716.5,692.3z M1705.68,666.28
				c3.34-1.92,5.5-3.61,6.48-5.06c0.98-1.45,1.48-3.05,1.48-4.81c0-2.09-0.68-3.8-2.03-5.12c-1.35-1.32-3.04-1.99-5.07-1.99
				c-2.08,0-3.81,0.66-5.2,1.97c-1.38,1.31-2.07,2.91-2.07,4.81c0,0.95,0.25,1.94,0.75,2.99s1.25,2.15,2.25,3.33L1705.68,666.28z"/>
			<path class="st6" d="M1769.41,705.47v-61.31h45.34v7.23h-37.04v18.78h34.69v7.19h-34.69v20.87h38.49v7.24H1769.41z"/>
			<path class="st6" d="M1845.58,705.47l-24.29-61.31h8.98l16.3,44.54c1.31,3.57,2.41,6.92,3.29,10.04
				c0.97-3.35,2.1-6.69,3.38-10.04l16.94-44.54h8.47l-24.55,61.31H1845.58z"/>
			<path class="st6" d="M1872.7,705.47l24.08-61.31h8.94l25.66,61.31h-9.45l-7.31-18.57h-26.22l-6.89,18.57H1872.7z M1890.79,680.29
				h21.26l-6.54-16.98c-2-5.16-3.48-9.4-4.45-12.71c-0.8,3.93-1.92,7.83-3.38,11.71L1890.79,680.29z"/>
			<path class="st6" d="M1937.67,705.47v-61.31h8.3v54.08h30.88v7.24H1937.67z"/>
			<path class="st6" d="M2027.87,644.16h8.3v35.42c0,6.16-0.71,11.06-2.14,14.68s-4,6.57-7.72,8.84c-3.72,2.27-8.6,3.41-14.65,3.41
				c-5.87,0-10.68-0.99-14.41-2.97c-3.74-1.98-6.4-4.84-8-8.59c-1.6-3.75-2.4-8.87-2.4-15.37v-35.42h8.3v35.38
				c0,5.33,0.51,9.25,1.52,11.77c1.01,2.52,2.75,4.47,5.22,5.83c2.47,1.37,5.48,2.05,9.04,2.05c6.1,0,10.45-1.35,13.04-4.06
				c2.59-2.7,3.89-7.9,3.89-15.6V644.16z"/>
			<path class="st6" d="M2043.1,705.47l24.08-61.31h8.94l25.66,61.31h-9.45l-7.31-18.57h-26.22l-6.89,18.57H2043.1z M2061.19,680.29
				h21.26l-6.54-16.98c-2-5.16-3.48-9.4-4.45-12.71c-0.8,3.93-1.92,7.83-3.38,11.71L2061.19,680.29z"/>
			<path class="st6" d="M2117.86,705.47V651.4h-20.66v-7.23h49.7v7.23h-20.74v54.08H2117.86z"/>
			<path class="st6" d="M2156.82,705.47v-61.31h8.3v61.31H2156.82z"/>
			<path class="st6" d="M2177.22,675.61c0-10.18,2.79-18.14,8.38-23.9c5.59-5.76,12.8-8.64,21.64-8.64c5.79,0,11.01,1.35,15.65,4.06
				c4.65,2.71,8.19,6.48,10.63,11.31c2.44,4.84,3.66,10.32,3.66,16.46c0,6.22-1.28,11.78-3.85,16.69
				c-2.57,4.91-6.2,8.62-10.91,11.15c-4.7,2.52-9.78,3.79-15.23,3.79c-5.9,0-11.18-1.39-15.83-4.18s-8.17-6.59-10.56-11.42
				C2178.42,686.09,2177.22,680.99,2177.22,675.61z M2185.78,675.74c0,7.39,2.03,13.21,6.09,17.46s9.16,6.38,15.29,6.38
				c6.24,0,11.38-2.15,15.42-6.44c4.03-4.29,6.05-10.38,6.05-18.28c0-4.99-0.86-9.35-2.59-13.07c-1.73-3.72-4.25-6.61-7.57-8.66
				c-3.32-2.05-7.05-3.07-11.18-3.07c-5.88,0-10.93,1.97-15.16,5.92S2185.78,666.51,2185.78,675.74z"/>
			<path class="st6" d="M2247.79,705.47v-61.31h8.51l32.93,48.14v-48.14h7.96v61.31h-8.51l-32.93-48.18v48.18H2247.79z"/>
		</g>
		<g class="st5">
			<path class="st6" d="M1095.68,823.09V749.4h10.23l39.58,57.85V749.4h9.56v73.69h-10.23l-39.58-57.9v57.9H1095.68z"/>
			<path class="st6" d="M1172.02,823.09V749.4h54.49v8.7h-44.52v22.57h41.69v8.65h-41.69v25.08h46.26v8.7H1172.02z"/>
			<path class="st6" d="M1261.2,823.09V758.1h-24.83v-8.7h59.73v8.7h-24.93v64.99H1261.2z"/>
			<path class="st6" d="M1319.49,823.09l-20-73.69h10.23l11.46,48.3c1.23,5.06,2.3,10.09,3.19,15.08
				c1.92-7.88,3.05-12.42,3.39-13.62l14.34-49.76h12.03l10.79,37.3c2.71,9.25,4.66,17.94,5.86,26.09c0.96-4.66,2.21-10,3.75-16.04
				l11.82-47.35h10.02l-20.66,73.69h-9.61l-15.88-56.14c-1.34-4.69-2.12-7.57-2.36-8.65c-0.79,3.38-1.53,6.27-2.21,8.65
				l-15.99,56.14H1319.49z"/>
			<path class="st6" d="M1402.66,787.2c0-12.23,3.36-21.81,10.08-28.73c6.72-6.92,15.39-10.38,26.01-10.38
				c6.96,0,13.23,1.63,18.81,4.88c5.58,3.25,9.84,7.78,12.77,13.6c2.93,5.81,4.4,12.41,4.4,19.78c0,7.47-1.54,14.16-4.63,20.06
				c-3.08,5.9-7.45,10.36-13.11,13.4c-5.65,3.03-11.75,4.55-18.3,4.55c-7.09,0-13.43-1.68-19.02-5.03
				c-5.59-3.35-9.82-7.92-12.7-13.72C1404.1,799.8,1402.66,793.67,1402.66,787.2z M1412.94,787.35c0,8.88,2.44,15.88,7.33,20.98
				c4.88,5.11,11.01,7.67,18.38,7.67c7.5,0,13.68-2.58,18.53-7.74c4.85-5.16,7.27-12.48,7.27-21.96c0-6-1.04-11.23-3.11-15.71
				c-2.07-4.47-5.11-7.94-9.1-10.4s-8.47-3.69-13.44-3.69c-7.06,0-13.13,2.37-18.22,7.11
				C1415.49,768.34,1412.94,776.26,1412.94,787.35z"/>
			<path class="st6" d="M1487.74,823.09V749.4h33.41c6.72,0,11.82,0.66,15.32,1.99c3.5,1.32,6.29,3.66,8.38,7.01
				c2.09,3.35,3.14,7.05,3.14,11.11c0,5.23-1.73,9.63-5.19,13.22c-3.46,3.59-8.81,5.86-16.04,6.84c2.64,1.24,4.64,2.46,6.01,3.67
				c2.91,2.61,5.67,5.88,8.28,9.8l13.11,20.06h-12.54l-9.97-15.33c-2.91-4.42-5.31-7.81-7.2-10.15c-1.88-2.34-3.57-3.99-5.06-4.93
				c-1.49-0.94-3.01-1.59-4.55-1.96c-1.13-0.23-2.98-0.35-5.55-0.35h-11.57v32.72H1487.74z M1497.71,781.92h21.44
				c4.56,0,8.12-0.46,10.69-1.38c2.57-0.92,4.52-2.4,5.86-4.42c1.34-2.03,2-4.23,2-6.61c0-3.48-1.29-6.35-3.88-8.59
				c-2.59-2.24-6.67-3.37-12.26-3.37h-23.85V781.92z"/>
			<path class="st6" d="M1563.2,823.09V749.4h9.97v36.54l37.42-36.54h13.52l-31.61,29.86l33,43.83h-13.16l-26.83-37.3l-12.34,11.76
				v25.53H1563.2z"/>
			<path class="st6" d="M1663.07,823.09V749.4h28.43c5,0,8.82,0.24,11.46,0.7c3.7,0.6,6.8,1.75,9.3,3.44
				c2.5,1.69,4.51,4.06,6.04,7.11c1.52,3.05,2.29,6.4,2.29,10.05c0,6.27-2.04,11.57-6.12,15.91c-4.08,4.34-11.45,6.51-22.1,6.51
				h-19.33v29.96H1663.07z M1673.04,784.43h19.48c6.44,0,11.02-1.17,13.73-3.52c2.71-2.34,4.06-5.65,4.06-9.9
				c0-3.08-0.8-5.72-2.39-7.92c-1.59-2.19-3.69-3.64-6.3-4.35c-1.68-0.44-4.78-0.65-9.3-0.65h-19.28V784.43z"/>
			<path class="st6" d="M1733.6,823.09V749.4h9.97v30.26h39.17V749.4h9.97v73.69h-9.97v-34.73h-39.17v34.73H1733.6z"/>
			<path class="st6" d="M1811.01,823.09V749.4h9.97v73.69H1811.01z"/>
			<path class="st6" d="M1838.15,823.09V749.4h9.97v64.99h37.11v8.7H1838.15z"/>
			<path class="st6" d="M1898.81,823.09V749.4h9.97v73.69H1898.81z"/>
			<path class="st6" d="M1926.36,823.09V749.4h28.43c5,0,8.82,0.24,11.46,0.7c3.7,0.6,6.8,1.75,9.3,3.44
				c2.5,1.69,4.51,4.06,6.04,7.11c1.52,3.05,2.29,6.4,2.29,10.05c0,6.27-2.04,11.57-6.12,15.91c-4.08,4.34-11.45,6.51-22.1,6.51
				h-19.33v29.96H1926.36z M1936.33,784.43h19.48c6.44,0,11.02-1.17,13.73-3.52c2.71-2.34,4.06-5.65,4.06-9.9
				c0-3.08-0.8-5.72-2.39-7.92c-1.59-2.19-3.69-3.64-6.3-4.35c-1.68-0.44-4.78-0.65-9.3-0.65h-19.28V784.43z"/>
			<path class="st6" d="M1996.58,823.09V749.4H2025c5,0,8.82,0.24,11.46,0.7c3.7,0.6,6.8,1.75,9.3,3.44
				c2.5,1.69,4.51,4.06,6.04,7.11c1.52,3.05,2.29,6.4,2.29,10.05c0,6.27-2.04,11.57-6.12,15.91c-4.08,4.34-11.45,6.51-22.1,6.51
				h-19.33v29.96H1996.58z M2006.55,784.43h19.48c6.44,0,11.02-1.17,13.73-3.52c2.71-2.34,4.06-5.65,4.06-9.9
				c0-3.08-0.8-5.72-2.39-7.92c-1.59-2.19-3.69-3.64-6.3-4.35c-1.68-0.44-4.78-0.65-9.3-0.65h-19.28V784.43z"/>
			<path class="st6" d="M2068.49,823.09V749.4h9.97v73.69H2068.49z"/>
			<path class="st6" d="M2095.94,823.09V749.4h10.23l39.58,57.85V749.4h9.56v73.69h-10.23l-39.58-57.9v57.9H2095.94z"/>
			<path class="st6" d="M2172.27,823.09V749.4h54.49v8.7h-44.51v22.57h41.69v8.65h-41.69v25.08h46.26v8.7H2172.27z"/>
			<path class="st6" d="M2238.89,799.41l9.41-0.8c0.45,3.69,1.48,6.71,3.11,9.07c1.63,2.36,4.15,4.27,7.58,5.73
				c3.43,1.46,7.28,2.19,11.57,2.19c3.8,0,7.16-0.55,10.08-1.66c2.91-1.11,5.08-2.62,6.5-4.55c1.42-1.93,2.13-4.03,2.13-6.31
				c0-2.31-0.69-4.33-2.06-6.06c-1.37-1.73-3.63-3.17-6.79-4.35c-2.02-0.77-6.49-1.97-13.42-3.59c-6.92-1.62-11.77-3.16-14.55-4.6
				c-3.6-1.84-6.28-4.13-8.04-6.86c-1.77-2.73-2.65-5.79-2.65-9.17c0-3.72,1.08-7.2,3.24-10.43c2.16-3.23,5.31-5.69,9.46-7.36
				c4.15-1.67,8.75-2.51,13.83-2.51c5.58,0,10.51,0.88,14.78,2.64c4.27,1.76,7.55,4.35,9.84,7.77c2.29,3.42,3.53,7.29,3.7,11.61
				l-9.56,0.7c-0.51-4.66-2.25-8.18-5.22-10.56c-2.96-2.38-7.34-3.57-13.13-3.57c-6.03,0-10.43,1.08-13.18,3.24
				c-2.76,2.16-4.14,4.77-4.14,7.82c0,2.65,0.98,4.83,2.93,6.53c1.92,1.71,6.93,3.46,15.04,5.25c8.1,1.79,13.66,3.36,16.68,4.7
				c4.39,1.98,7.62,4.48,9.71,7.51c2.09,3.03,3.14,6.53,3.14,10.48c0,3.92-1.15,7.62-3.44,11.08c-2.3,3.47-5.59,6.17-9.9,8.09
				s-9.14,2.89-14.52,2.89c-6.82,0-12.54-0.97-17.14-2.92c-4.61-1.94-8.22-4.87-10.85-8.77
				C2240.41,808.75,2239.03,804.34,2238.89,799.41z"/>
		</g>
	</g>
</g>
<g>
	<g id="Layer_1_2_">
		<g>
			<g>
				<polygon class="st7" points="450.12,231.85 411.75,193.47 396.82,208.4 450.12,261.7 460.79,272.37 471.45,261.7 524.75,208.4 
					509.83,193.47 471.45,231.85 471.45,91.13 450.12,91.13 				"/>
				<polygon class="st7" points="671.88,432.28 710.25,393.9 695.34,378.98 642.02,432.28 631.37,442.93 642.02,453.6 695.34,506.9 
					710.25,491.99 671.88,453.6 812.6,453.6 812.6,432.28 				"/>
				<polygon class="st7" points="249.7,453.6 211.32,491.99 226.25,506.9 279.55,453.6 290.22,442.95 279.55,432.28 226.25,378.98 
					211.32,393.9 249.7,432.28 108.97,432.28 108.97,453.6 				"/>
				<polygon class="st7" points="471.45,654.03 509.83,692.41 524.75,677.48 471.45,624.18 460.79,613.52 450.12,624.18 
					396.82,677.48 411.75,692.41 450.12,654.03 450.12,794.75 471.45,794.75 				"/>
				<polygon class="st7" points="460.79,453.6 594.05,613.52 327.52,613.52 				"/>
				<path class="st7" d="M290.22,272.37v341.15h10.67l159.9-191.9c-38.27,0-69.3-31.03-69.3-69.3s31.03-69.3,69.3-69.3
					s69.3,31.03,69.3,69.3s-31.03,69.3-69.3,69.3l159.92,191.9h10.67V272.37H290.22z"/>
				<circle class="st7" cx="460.79" cy="352.32" r="47.97"/>
				<path class="st7" d="M460.79,80.47L98.32,442.93L460.79,805.4l362.47-362.47L460.79,80.47z M114.3,442.95L460.79,96.46
					l346.48,346.48L460.79,789.42L114.3,442.95z"/>
				<g>
					<path class="st7" d="M76.37,632.2c-7.59,3.38-8.99,4-10.54,4.82c-1.65,0.86-2.27,1.62-1.89,3.42c0.07,0.45,0.41,1.32,0.72,2.01
						c0.25,0.55,0.27,0.89-0.07,1.04c-0.35,0.15-0.61-0.15-0.94-0.89c-1.18-2.65-2.44-5.87-3.06-7.26c-0.7-1.55-2.24-4.62-3.58-7.62
						c-2.78-6.24-6.5-14.59-3.23-22.57c1.48-3.65,4.59-7.86,10.53-10.5c6.29-2.81,12.27-2.3,16.37-0.77
						c3.37,1.26,9.24,4.87,13.35,14.11c0.81,1.8,1.57,3.92,2.26,5.88c0.7,1.96,1.33,3.78,1.88,5.03c0.25,0.55,0.73,1.65,1.32,2.82
						c0.51,1.14,1.19,2.4,1.64,3.41c0.29,0.65,0.3,1.07-0.05,1.22c-0.25,0.11-0.48-0.02-0.76-0.62c-0.34-0.75-0.7-1.31-1.01-1.72
						c-0.65-0.91-1.85-0.67-3.39-0.22c-2.21,0.68-6.15,2.45-10.75,4.49L76.37,632.2z M79.09,623.5c5.3-2.36,9.12-4.13,10.04-4.6
						c1.23-0.61,3.18-1.59,3.56-2.24c0.66-1.07,0.85-3.49-0.92-7.43c-2.27-5.1-4.79-8.04-8.71-9.88c-4.18-1.98-9.16-0.94-14.31,1.34
						c-6.34,2.82-9.26,7.3-10.35,10.37c-2.35,6.55-0.41,12.52,1.33,16.42c0.45,0.99,1.42,2.78,1.8,3.1c0.4,0.36,0.72,0.4,1.27,0.15
						c1.72-0.71,6.07-2.65,10.02-4.4L79.09,623.5z"/>
					<path class="st7" d="M60.94,585.41c-6.69,2.24-7.93,2.66-9.32,3.18c-1.47,0.61-1.8,1.18-1.73,2.77
						c0.01,0.4,0.22,1.19,0.46,1.86c0.15,0.47,0.1,0.83-0.21,0.93c-0.31,0.1-0.53-0.22-0.76-0.89c-0.8-2.39-1.67-5.32-2.1-6.63
						c-0.48-1.45-3.83-11.59-4.18-12.44c-0.34-0.81-0.73-1.49-0.91-1.83c-0.14-0.25-0.39-0.45-0.45-0.66
						c-0.09-0.26,0.1-0.39,0.31-0.45c0.31-0.1,0.92-0.02,2.97-0.6c0.48-0.1,2.44-0.65,3-0.72c0.22-0.01,0.78-0.09,0.89,0.27
						c0.1,0.31-0.09,0.44-0.45,0.56c-0.31,0.1-1.07,0.42-1.5,0.85c-0.66,0.62-1.16,1.19-0.6,3.54c0.16,0.81,1.88,6.29,2.19,7.22
						c0.07,0.21,0.26,0.26,0.52,0.17l10.89-3.65c0.26-0.09,0.45-0.21,0.36-0.47c-0.35-1.03-2.34-6.95-2.78-7.96
						c-0.47-1.06-0.83-1.63-1.4-1.95c-0.44-0.26-0.75-0.32-0.82-0.53c-0.07-0.21,0.09-0.44,0.35-0.52s1.02-0.22,3.33-0.72
						c0.92-0.19,2.71-0.68,3.02-0.78c0.36-0.12,1.01-0.27,1.14,0.14c0.1,0.31-0.01,0.47-0.22,0.53c-0.45,0.21-1.02,0.4-1.55,0.7
						c-0.8,0.56-1.28,1.35-0.86,3.12c0.17,0.87,1.81,6.09,2.19,7.22c0.07,0.21,0.3,0.19,0.56,0.1l3.53-1.18
						c1.5-0.51,5.26-1.7,6.54-2.19c2.97-1.11,3.18-2.73,1.62-7.41c-0.4-1.19-1.09-3.1-2.01-4.11c-0.89-0.97-2.01-1.17-3.93-0.87
						c-0.5,0.05-0.75,0.01-0.85-0.3c-0.12-0.36,0.44-0.61,0.89-0.76c0.98-0.34,4.11-0.98,5.08-1.02c1.24-0.07,1.38,0.35,1.96,2.05
						c1.14,3.42,2.01,6.19,2.66,8.45c0.7,2.25,1.22,3.98,1.67,5.32c0.17,0.52,0.56,1.49,0.92,2.57c0.41,1.07,0.85,2.2,1.17,3.13
						c0.19,0.57,0.14,0.93-0.17,1.03c-0.21,0.07-0.52,0-0.71-0.57c-0.22-0.67-0.45-1.18-0.7-1.55c-0.52-0.87-1.44-0.85-2.78-0.57
						c-1.94,0.42-5.41,1.58-9.46,2.95L60.94,585.41z"/>
					<path class="st7" d="M51.53,555.54c-6.84,1.73-8.12,2.05-9.53,2.47c-1.5,0.5-1.88,1.04-1.93,2.64c-0.01,0.4,0.14,1.21,0.31,1.9
						c0.12,0.47,0.04,0.83-0.27,0.92c-0.32,0.07-0.52-0.26-0.7-0.96c-0.62-2.44-1.27-5.43-1.6-6.76c-0.48-1.91-1.53-5.59-2.06-7.71
						c-1.48-5.83-0.1-8.44,0.35-9.34c0.7-1.24,2.37-3.08,4.82-3.7c6.36-1.62,12.21,2.32,13.88,8.95c0.05,0.21,0.3,1.17,0.3,1.39
						c0.06,0.26-0.01,0.62-0.32,0.71c-0.37,0.1-0.72-0.39-0.97-1.39c-0.66-2.6-4.29-5.57-8.9-4.4c-1.48,0.37-4.41,1.29-5.98,4.45
						c-1.06,2.08-0.78,4.04-0.51,5.1c0.17,0.68,0.46,1.58,0.72,1.96c0.17,0.24,0.46,0.27,0.94,0.16l17.86-4.52
						c4.14-1.04,7.68-1.95,9.6-2.66c1.23-0.48,2.01-0.96,1.88-2.39c-0.06-0.72-0.27-1.74-0.45-2.42c-0.14-0.53,0.07-0.81,0.29-0.86
						c0.32-0.09,0.57,0.25,0.7,0.72c0.8,3.13,1.47,6.45,1.78,7.67c0.27,1.06,1.18,3.99,1.65,5.84c0.15,0.58,0.07,0.94-0.25,1.02
						c-0.21,0.05-0.52-0.04-0.67-0.62c-0.17-0.68-0.36-1.21-0.57-1.6c-0.46-0.89-1.37-0.96-2.73-0.77
						c-1.96,0.27-5.52,1.17-9.65,2.21L51.53,555.54z"/>
					<path class="st7" d="M53.89,521.86c0.05,0.27,0.11,0.31,0.4,0.37l6.64,1.45c1.22,0.29,2.39,0.31,2.92,0.21
						c0.81-0.14,1.22-0.66,0.97-2.11l-0.12-0.7c-0.1-0.6,0.1-0.73,0.36-0.78c0.37-0.06,0.53,0.19,0.62,0.67
						c0.27,1.57,0.5,3.8,0.76,5.31c0.09,0.48,0.68,2.98,1.12,5.47c0.1,0.6,0.04,0.88-0.34,0.94c-0.27,0.05-0.51-0.07-0.58-0.46
						c-0.07-0.44-0.22-0.96-0.3-1.39c-0.7-2.1-2.24-2.66-4.72-3.23l-30.78-7.4c-1.39-0.31-1.99-0.6-2.08-1.08
						c-0.12-0.7,0.27-0.99,1.21-1.65c2.34-1.58,19.49-12.73,25.92-16.97c3.83-2.56,4.19-4,4.2-4.9c-0.01-0.72-0.05-1.27-0.15-1.8
						c-0.07-0.44,0.05-0.67,0.37-0.73c0.37-0.06,0.53,0.19,0.85,1.96c0.29,1.67,0.89,5.12,1.48,9.12c0.1,0.87,0.19,1.4-0.14,1.47
						c-0.27,0.05-0.45-0.04-0.58-0.51c-0.11-0.31-0.6-0.56-1.09-0.25l-8.63,5.28c-0.25,0.15-0.27,0.32-0.24,0.55L53.89,521.86z
						 M49.59,512.17c-0.04-0.21-0.15-0.25-0.31-0.17l-10.7,6.48c-0.15,0.09-0.41,0.19-0.4,0.29c0.02,0.16,0.31,0.17,0.47,0.2
						l12.22,2.59c0.24,0.07,0.32-0.06,0.3-0.22L49.59,512.17z"/>
					<path class="st7" d="M38.99,490.43c-7.04,0.6-8.34,0.71-9.81,0.89c-1.57,0.25-2.03,0.72-2.32,2.29c-0.07,0.39-0.06,1.22,0,1.91
						c0.04,0.48-0.1,0.83-0.42,0.86c-0.32,0.02-0.47-0.35-0.53-1.06c-0.21-2.51-0.36-5.57-0.45-6.55c-0.14-1.63-0.62-5.98-0.75-7.46
						c-0.26-3.06-0.29-6.56,1.18-9.27c0.81-1.44,2.98-3.65,6.09-3.93c3.43-0.3,6.65,1.4,10.81,5.77c4.87-4.7,8.78-8.44,11.41-11.57
						c2.44-2.9,2.51-4.61,2.61-5.38c0.06-0.5,0.05-0.77,0.01-1.16c-0.04-0.39,0.22-0.62,0.44-0.65c0.39-0.04,0.52,0.29,0.57,0.88
						l0.4,4.57c0.22,2.67,0.06,4-0.47,5.31c-0.86,2.16-2.88,4.14-6.25,7.12c-2.35,2.13-5.28,4.4-5.93,5.06
						c-0.25,0.3-0.29,0.57-0.25,0.89l0.26,4.31c0.01,0.21,0.14,0.37,0.41,0.35l0.66-0.05c4.3-0.37,7.89-0.73,9.84-1.12
						c1.34-0.29,2.2-0.57,2.3-2.06c0.05-0.72,0.01-1.75-0.04-2.36c-0.04-0.39,0.22-0.62,0.44-0.65c0.32-0.02,0.52,0.34,0.57,0.93
						c0.24,2.78,0.41,6.77,0.47,7.48c0.07,0.93,0.51,3.97,0.67,5.87c0.05,0.6-0.09,0.94-0.41,0.97c-0.21,0.01-0.51-0.12-0.56-0.72
						c-0.06-0.71-0.16-1.24-0.31-1.68c-0.3-0.96-1.19-1.16-2.57-1.21c-1.98-0.05-5.63,0.26-9.88,0.62L38.99,490.43z M42.07,484.02
						c0.48-0.04,0.65-0.16,0.78-0.51c0.24-1.07,0.22-2.49,0.12-3.69c-0.16-1.91-0.39-2.55-1.06-3.32c-1.16-1.38-3.32-2.85-7.14-2.52
						c-6.54,0.56-7.84,5.17-7.61,8.01c0.1,1.19,0.26,2.34,0.41,2.82c0.14,0.32,0.31,0.41,0.7,0.39L42.07,484.02z"/>
					<path class="st7" d="M25.95,448.22l0.29,7.16c0.1,2.78,0.45,3.93,1.5,4.62c0.66,0.48,1.27,0.7,1.6,0.8
						c0.39,0.1,0.61,0.21,0.61,0.53c0,0.32-0.26,0.45-0.76,0.45c-0.77,0.01-5.27-0.85-5.64-0.94c-0.61-0.1-0.88-0.26-0.88-0.53
						c-0.01-0.39,0.37-0.88,0.51-2.09c0.14-1.43,0.16-3.23,0.14-4.81l-0.32-19.53c-0.02-1.53-0.15-2.57-0.27-3.28
						c-0.12-0.76-0.24-1.14-0.24-1.31c0-0.32,0.27-0.39,0.98-0.4c0.98-0.01,4.43,0.04,5.63,0.01c0.5,0.05,0.77,0.15,0.77,0.42
						c0,0.39-0.21,0.5-0.92,0.56l-0.5,0.06c-1.21,0.12-2.6,1.4-2.59,5.73l-0.01,6.07l18.81-0.31c4.26-0.07,7.93-0.19,9.94-0.44
						c1.31-0.19,2.18-0.47,2.37-1.9c0.1-0.66,0.14-1.75,0.12-2.46c-0.01-0.55,0.26-0.77,0.48-0.77c0.32,0,0.5,0.37,0.51,0.92
						c0.05,3.17-0.06,6.4-0.04,7.77c0.01,1.09,0.24,4.38,0.26,6.29c0.01,0.6-0.15,0.93-0.47,0.93c-0.22,0-0.5-0.16-0.51-0.76
						c-0.01-0.71-0.07-1.32-0.19-1.69c-0.24-0.98-1.12-1.24-2.49-1.38c-1.98-0.19-5.63-0.12-9.91-0.06L25.95,448.22z"/>
					<path class="st7" d="M23.97,416.05c-0.75-0.19-1.14-0.66-1.11-1.04c0.05-0.48,0.3-0.8,1.62-1.33l26.82-10.39l-24.67-15.34
						c-0.72-0.46-1.07-0.93-1.02-1.37c0.04-0.39,0.58-0.88,1.58-0.94l28.89-1.62c2.92-0.16,4.23-0.47,4.8-1.9
						c0.51-1.32,0.63-2.08,0.7-2.68c0.04-0.44,0.24-0.75,0.51-0.72c0.39,0.04,0.5,0.6,0.42,1.31c-0.11,1.19-0.93,7.99-1.23,9.88
						c-0.16,1.14-0.41,1.39-0.68,1.37c-0.21-0.02-0.36-0.25-0.44-0.6c-0.09-0.29-0.62-0.45-1.94-0.41L37.98,391l-0.01,0.16
						l19.48,12.26c2.08,1.29,2.49,1.62,2.42,2.15c-0.06,0.6-1.03,1.06-2.52,1.68c-2.24,0.94-9.67,4.06-11.04,4.49
						c-0.91,0.3-6.79,2.59-10.16,3.85l-0.01,0.16l17.64,4c0.81,0.19,1.4,0.3,2.16,0.37c0.87,0.09,1.26-0.53,1.5-1.34
						c0.24-0.8,0.34-1.23,0.39-1.67c0.04-0.44,0.29-0.75,0.51-0.72c0.44,0.04,0.5,0.48,0.44,1.19c-0.2,2.01-0.57,4.18-0.65,5.05
						c-0.09,0.92-0.15,3.23-0.3,4.75c-0.05,0.48-0.2,0.86-0.63,0.82c-0.21-0.02-0.41-0.31-0.36-0.81c0.04-0.39,0.06-0.71,0.04-1.48
						c-0.04-1.32-1.85-1.94-3.36-2.3L23.97,416.05z"/>
					<path class="st7" d="M43.07,367.82c-6.92-1.37-8.2-1.63-9.67-1.85c-1.58-0.2-2.15,0.14-2.87,1.55
						c-0.19,0.36-0.4,1.14-0.53,1.85c-0.1,0.48-0.32,0.77-0.65,0.71c-0.32-0.06-0.36-0.46-0.21-1.16c0.48-2.47,1.19-5.46,1.45-6.8
						c0.3-1.5,2.42-11.96,2.55-12.88c0.11-0.87,0.1-1.65,0.12-2.04c0-0.27-0.11-0.58-0.06-0.8c0.05-0.27,0.27-0.27,0.5-0.24
						c0.32,0.06,0.81,0.44,2.87,0.96c0.47,0.15,2.44,0.65,2.95,0.86c0.2,0.1,0.72,0.31,0.65,0.68c-0.06,0.32-0.29,0.34-0.67,0.26
						c-0.32-0.06-1.14-0.17-1.73-0.01c-0.88,0.21-1.6,0.46-2.27,2.78c-0.26,0.78-1.49,6.4-1.68,7.36c-0.04,0.21,0.1,0.35,0.36,0.41
						l11.27,2.23c0.27,0.05,0.5,0.04,0.55-0.22c0.21-1.07,1.43-7.18,1.53-8.28c0.11-1.14,0.09-1.83-0.25-2.39
						c-0.25-0.44-0.48-0.66-0.44-0.87c0.04-0.21,0.29-0.34,0.56-0.29c0.27,0.05,0.99,0.31,3.26,1.03c0.89,0.29,2.7,0.76,3.02,0.82
						c0.37,0.07,1.01,0.26,0.92,0.68c-0.06,0.32-0.25,0.4-0.46,0.36c-0.5-0.04-1.08-0.16-1.69-0.17c-0.97,0.09-1.78,0.53-2.29,2.27
						c-0.27,0.83-1.44,6.18-1.68,7.36c-0.04,0.21,0.16,0.31,0.44,0.36l3.65,0.72c1.55,0.31,5.41,1.13,6.76,1.34
						c3.13,0.51,4.11-0.81,5.07-5.63c0.25-1.23,0.58-3.23,0.29-4.57c-0.3-1.29-1.17-2.01-2.97-2.71c-0.46-0.2-0.66-0.35-0.6-0.67
						c0.07-0.37,0.67-0.31,1.16-0.21c1.02,0.2,4.05,1.19,4.92,1.64c1.12,0.56,1.03,0.98,0.68,2.76c-0.7,3.54-1.32,6.38-1.88,8.66
						c-0.51,2.3-0.92,4.05-1.19,5.46c-0.1,0.53-0.26,1.57-0.47,2.7c-0.17,1.14-0.35,2.32-0.55,3.29c-0.11,0.58-0.34,0.88-0.66,0.82
						c-0.21-0.04-0.45-0.26-0.34-0.85c0.14-0.7,0.19-1.24,0.17-1.69c-0.02-1.01-0.83-1.44-2.14-1.88c-1.89-0.6-5.48-1.31-9.67-2.14
						L43.07,367.82z"/>
					<path class="st7" d="M65.15,338.46c3.49,0.92,4.71,0.65,5.28-0.15c0.5-0.71,0.81-1.59,1.03-2.32c0.15-0.52,0.45-0.72,0.71-0.65
						c0.36,0.11,0.35,0.56,0.16,1.18c-0.88,3-1.68,5.1-1.93,5.93c-0.12,0.42-0.62,2.67-1.32,5.03c-0.19,0.63-0.36,1.03-0.78,0.91
						c-0.26-0.07-0.37-0.46-0.26-0.87c0.19-0.63,0.39-1.48,0.41-2.16c0.04-1.29-1.12-1.81-4.98-3.01l-26.3-8.23
						c-0.89-0.26-1.43-0.76-1.29-1.23c0.17-0.57,1.03-1.01,2.06-1.55c0.75-0.41,9.87-5.23,18.41-10.02c4.03-2.24,12.13-6.51,12.96-7
						l0.06-0.21l-19.96-5.38c-2.75-0.76-3.65-0.57-4.4,0.41c-0.46,0.61-0.78,1.7-0.97,2.34c-0.17,0.57-0.42,0.67-0.68,0.6
						c-0.36-0.11-0.29-0.6-0.07-1.28c0.71-2.41,1.54-4.85,1.84-5.84c0.15-0.52,0.56-2.29,1.23-4.54c0.19-0.63,0.36-1.03,0.73-0.92
						c0.26,0.07,0.4,0.4,0.24,0.93c-0.14,0.47-0.25,0.83-0.26,1.47c0,1.37,0.67,1.96,3.17,2.76l27.96,8.83
						c0.99,0.3,1.31,0.78,1.19,1.16c-0.24,0.78-0.89,1.28-1.5,1.6c-3.53,2.09-10.74,6.24-16.83,9.68
						c-6.31,3.6-13.15,6.89-14.21,7.55l-0.05,0.16L65.15,338.46z"/>
					<path class="st7" d="M56.55,282.2L54,288.9c-0.99,2.61-1.13,3.79-0.44,4.85c0.42,0.71,0.89,1.13,1.16,1.35
						c0.31,0.25,0.47,0.44,0.35,0.73c-0.12,0.3-0.42,0.3-0.87,0.11c-0.71-0.29-4.51-2.83-4.82-3.08c-0.52-0.32-0.71-0.58-0.61-0.83
						c0.15-0.36,0.68-0.67,1.29-1.72c0.68-1.26,1.42-2.91,2.01-4.38l7.35-18.1c0.57-1.42,0.87-2.42,1.03-3.12
						c0.19-0.75,0.22-1.14,0.29-1.29c0.12-0.3,0.4-0.25,1.06,0.01c0.91,0.37,4.06,1.77,5.18,2.23c0.44,0.24,0.65,0.44,0.55,0.7
						c-0.15,0.36-0.39,0.37-1.07,0.16l-0.47-0.14c-1.16-0.35-2.95,0.27-4.62,4.26l-2.39,5.58l17.44,7.07
						c3.95,1.6,7.37,2.93,9.32,3.49c1.28,0.34,2.19,0.42,2.93-0.82c0.35-0.57,0.81-1.57,1.08-2.23c0.21-0.51,0.55-0.61,0.75-0.52
						c0.3,0.12,0.31,0.53,0.1,1.06c-1.19,2.93-2.56,5.87-3.07,7.14c-0.41,1.02-1.49,4.11-2.21,5.89c-0.22,0.56-0.5,0.8-0.81,0.67
						c-0.2-0.09-0.4-0.34-0.17-0.89c0.27-0.66,0.45-1.23,0.48-1.63c0.17-0.99-0.53-1.58-1.74-2.25c-1.74-0.94-5.13-2.32-9.09-3.93
						L56.55,282.2z"/>
					<path class="st7" d="M86.53,250.69c-6.87-3.97-12.99-13.92-5.69-26.58c6.07-10.52,15.66-13.7,24.9-8.37
						c9.24,5.33,12.6,16.23,6.41,26.99C105.16,254.85,93.69,254.81,86.53,250.69z M103.63,222.79c-8.91-5.13-17.49-2.95-21.37,3.78
						c-2.67,4.65-3.36,11.51,6.6,17.25c8.29,4.79,17.56,3.82,22.1-4.05C112.65,236.83,115.1,229.41,103.63,222.79z"/>
					<path class="st7" d="M119.3,205.47c3.67,2.57,6.39,4.41,8.13,5.36c1.22,0.65,2.11,0.88,3.11-0.15
						c0.47-0.47,1.11-1.29,1.48-1.83c0.35-0.5,0.7-0.51,0.87-0.39c0.27,0.19,0.21,0.55-0.2,1.13c-1.75,2.51-3.84,5.2-4.56,6.22
						c-0.72,1.03-2.35,3.63-3.38,5.11c-0.37,0.53-0.66,0.75-0.97,0.52c-0.17-0.12-0.31-0.42,0-0.87c0.41-0.58,0.67-1.06,0.83-1.48
						c0.39-0.93-0.17-1.65-1.19-2.57c-1.49-1.31-4.31-3.28-7.98-5.85l-6.71-4.71c-5.78-4.05-6.85-4.8-8.09-5.61
						c-1.35-0.82-2.06-0.77-3.26,0.26c-0.31,0.25-0.82,0.89-1.23,1.48c-0.25,0.36-0.61,0.57-0.87,0.39
						c-0.27-0.19-0.14-0.56,0.3-1.19c1.42-2.01,3.26-4.46,4.04-5.58c1.07-1.53,7.23-10.23,7.84-11.2c0.46-0.75,0.76-1.27,0.94-1.74
						c0.11-0.26,0.06-0.56,0.21-0.78c0.1-0.14,0.37-0.15,0.55-0.01c0.27,0.19,0.6,0.68,1.48,1.5c0.37,0.32,2.55,1.99,2.96,2.35
						c0.29,0.26,0.67,0.67,0.47,0.93c-0.19,0.27-0.52,0.36-0.97,0.05c-0.31-0.22-0.87-0.67-1.59-0.78
						c-0.72-0.11-1.84,0.25-2.92,1.69l-4.71,6.44c-0.16,0.22-0.16,0.42,0.29,0.73l9.22,6.46c0.22,0.16,0.39,0.21,0.55-0.01
						l3.82-5.54c0.47-0.67,0.85-1.21,1.21-1.83c0.46-0.75,0.73-1.43,0.48-2.13c-0.06-0.39-0.19-0.6-0.02-0.82
						c0.1-0.14,0.29-0.12,0.51,0.02c0.22,0.16,1.13,1.06,2.24,2.04c0.7,0.62,2.41,1.89,2.68,2.08c0.31,0.22,0.82,0.65,0.53,1.04
						c-0.16,0.22-0.52,0.17-0.78-0.01c-0.27-0.19-0.78-0.41-1.35-0.55c-0.66-0.2-1.77-0.24-2.71,0.91
						c-0.78,0.92-4.09,5.54-4.56,6.22c-0.12,0.17-0.15,0.3,0.12,0.48L119.3,205.47z"/>
					<path class="st7" d="M136.18,163.76c-6.19-5.54-7.33-6.56-8.71-7.66c-1.45-1.16-2.4-1.42-3.89-0.32
						c-0.37,0.25-1.03,0.91-1.54,1.48c-0.4,0.45-0.7,0.62-0.98,0.36c-0.29-0.26-0.11-0.61,0.44-1.23c0.98-1.11,2.09-2.25,3-3.27
						c0.99-1.02,1.86-1.93,2.37-2.5c1.17-1.31,8.43-9.41,9.07-10.23c0.61-0.85,1.12-1.58,1.32-1.98c0.14-0.24,0.24-0.6,0.42-0.8
						c0.19-0.2,0.39-0.1,0.58,0.09c0.29,0.26,0.6,0.89,2.36,2.7c0.37,0.41,2.09,2.09,2.51,2.61c0.16,0.22,0.34,0.52,0.09,0.81
						c-0.26,0.29-0.53,0.19-0.89-0.15c-0.29-0.26-1.02-0.83-1.69-1.07c-0.98-0.37-1.84-0.4-3.92,1.42c-0.7,0.62-4.61,4.82-5.35,5.64
						c-0.19,0.2-0.14,0.4,0.15,0.65l10.32,9.22c0.29,0.26,0.48,0.36,0.71,0.11c0.81-0.89,5-5.58,5.76-6.6
						c0.8-1.06,1.22-1.78,1.14-2.5c-0.07-0.57-0.12-0.92,0.05-1.13c0.15-0.16,0.34-0.21,0.58,0c0.25,0.22,0.75,0.97,2.68,2.98
						c0.78,0.77,2.3,2.35,2.59,2.61c0.32,0.29,0.77,0.7,0.45,1.06c-0.26,0.29-0.5,0.22-0.7,0.04c-0.45-0.32-0.97-0.8-1.62-1.16
						c-0.99-0.52-2.13-0.5-3.63,0.86c-0.77,0.7-4.43,4.7-5.3,5.68c-0.19,0.2-0.05,0.39,0.19,0.61l3.22,2.88
						c1.39,1.24,5.1,4.64,6.31,5.66c2.88,2.44,4.08,2.32,7.81-1.83c0.94-1.06,2.49-2.77,2.93-4.26c0.46-1.5,0.04-2.75-1.38-4.54
						c-0.37-0.48-0.47-0.71-0.21-0.99c0.3-0.32,0.62-0.04,1.03,0.34c0.93,0.83,3.42,3.64,4.05,4.57c0.81,1.23,0.47,1.6-0.91,3.14
						c-2.73,3.06-4.82,5.22-6.43,6.94c-1.65,1.68-2.82,2.91-3.92,4.13c-0.4,0.45-1.21,1.34-2.04,2.36c-0.83,0.93-1.7,2.08-2.44,2.88
						c-0.47,0.53-0.86,0.71-1.14,0.45c-0.2-0.19-0.19-0.46,0.26-0.94c0.55-0.61,0.91-1.17,1.14-1.62c0.57-0.96-0.15-1.96-1.18-3.18
						c-1.53-1.74-4.75-4.61-8.5-7.97L136.18,163.76z"/>
					<path class="st7" d="M174.88,153.08c-6.2,0.34-10.71-2.64-13.77-5.9c-2.16-2.31-5.15-7.02-4.6-13.15
						c0.46-4.62,2.55-9.12,7.77-14.02c2.2-2.05,3.67-3.13,5.44-4.43c1.5-1.03,2.88-1.88,4.04-2.73c0.44-0.34,0.71-0.29,0.89-0.09
						c0.26,0.29,0.56,0.76,1.6,2.03c0.97,1.19,2.72,3.07,3.32,3.79c0.41,0.52,0.62,0.98,0.31,1.29c-0.27,0.26-0.62,0.06-1.03-0.39
						c-1.04-1.04-2.61-1.83-4.31-1.89c-2.27-0.04-5.42,1.33-8.65,4.36c-3.07,2.88-4.51,5.27-4.84,8.12
						c-0.5,4.66,1.93,8.54,5.02,11.85c7.55,8.07,17.37,6.07,22.08,1.65c3.11-2.92,4.61-4.76,4.55-7.63
						c-0.04-1.24-0.46-2.65-0.93-3.39c-0.41-0.6-0.47-0.83-0.2-1.09c0.24-0.22,0.7-0.05,0.96,0.22c0.37,0.4,2.75,3.73,3.47,5.22
						c0.4,0.75,0.39,1.06,0.01,1.86c-0.87,1.86-3.37,4.57-5.64,6.7C185.59,149.95,180.58,152.76,174.88,153.08z"/>
					<path class="st7" d="M190.3,120.76c-4.81-6.3-6.61-17.86,5-26.73c9.66-7.36,19.74-6.59,26.2,1.89
						c6.46,8.48,5.37,19.85-4.5,27.37C205.88,131.8,195.31,127.33,190.3,120.76z M216.84,101.62c-6.24-8.18-15-9.47-21.18-4.76
						c-4.26,3.26-7.53,9.32-0.57,18.46c5.8,7.61,14.73,10.29,21.95,4.79C219.74,118.05,224.87,112.15,216.84,101.62z"/>
					<path class="st7" d="M238.69,99.33c1.96,3.03,3.05,3.65,4.01,3.46c0.85-0.19,1.67-0.62,2.32-1.02c0.47-0.29,0.82-0.24,0.96,0
						c0.2,0.32-0.12,0.65-0.68,0.98c-2.66,1.62-4.67,2.64-5.42,3.1c-0.37,0.22-2.25,1.55-4.36,2.83c-0.56,0.34-0.97,0.52-1.19,0.15
						c-0.14-0.24,0.02-0.6,0.4-0.82c0.56-0.34,1.28-0.85,1.75-1.32c0.91-0.93,0.4-2.09-1.65-5.58l-13.92-23.8
						c-0.48-0.8-0.55-1.53-0.12-1.78c0.51-0.31,1.44-0.05,2.57,0.24c0.82,0.2,10.83,2.77,20.36,5c4.47,1.06,13.35,3.36,14.31,3.54
						l0.19-0.11l-11.14-17.43c-1.52-2.4-2.32-2.88-3.53-2.66c-0.75,0.14-1.73,0.73-2.29,1.07c-0.51,0.31-0.77,0.21-0.91-0.02
						c-0.2-0.32,0.2-0.63,0.81-1.01c2.15-1.31,4.4-2.55,5.3-3.08c0.47-0.29,1.95-1.32,3.97-2.52c0.56-0.34,0.97-0.52,1.17-0.2
						c0.14,0.24,0.02,0.56-0.45,0.85c-0.42,0.26-0.75,0.45-1.18,0.91c-0.92,1.01-0.83,1.91,0.48,4.18l14.73,25.36
						c0.53,0.89,0.44,1.47,0.11,1.67c-0.7,0.42-1.52,0.35-2.2,0.17c-4.01-0.82-12.14-2.62-18.97-4.18
						c-7.1-1.58-14.37-3.77-15.59-3.98l-0.14,0.09L238.69,99.33z"/>
					<path class="st7" d="M265.57,70.24c-3.34-7.18-2.64-18.87,10.6-25.02c11-5.12,20.68-2.21,25.18,7.46s0.99,20.53-10.27,25.77
						C278.41,84.34,269.05,77.72,265.57,70.24z M295.59,57.22c-4.34-9.32-12.62-12.47-19.66-9.19c-4.86,2.26-9.36,7.5-4.51,17.91
						c4.04,8.68,12.18,13.21,20.41,9.37C294.9,73.89,301.17,69.22,295.59,57.22z"/>
					<path class="st7" d="M308.58,32.51c-0.14-0.76,0.14-1.32,0.51-1.43c0.47-0.15,0.85-0.05,1.86,0.93l20.34,20.35l4.08-28.78
						c0.12-0.85,0.42-1.34,0.83-1.49c0.36-0.12,1.03,0.17,1.5,1.06l13.14,25.78c1.33,2.61,2.14,3.67,3.68,3.63
						c1.42-0.06,2.16-0.26,2.73-0.45c0.41-0.14,0.78-0.09,0.87,0.17c0.12,0.36-0.35,0.7-1.02,0.92c-1.14,0.37-7.68,2.37-9.53,2.87
						c-1.11,0.31-1.44,0.19-1.52-0.07c-0.07-0.21,0.09-0.44,0.36-0.63c0.22-0.19,0.16-0.75-0.41-1.94l-8.85-18.22l-0.15,0.05
						l-3.36,22.77c-0.35,2.42-0.47,2.92-0.99,3.1c-0.57,0.19-1.38-0.52-2.56-1.63c-1.77-1.67-7.63-7.21-8.56-8.29
						c-0.63-0.71-5.11-5.17-7.63-7.73l-0.15,0.05l3.46,17.75c0.15,0.81,0.29,1.4,0.53,2.13c0.27,0.83,1.01,0.93,1.83,0.83
						c0.83-0.1,1.27-0.19,1.68-0.32c0.41-0.14,0.8-0.04,0.87,0.17c0.14,0.41-0.25,0.66-0.92,0.88c-1.93,0.63-4.05,1.17-4.89,1.44
						c-0.88,0.29-3.01,1.17-4.46,1.65c-0.47,0.15-0.87,0.17-1.01-0.25c-0.07-0.21,0.12-0.5,0.58-0.66c0.36-0.12,0.67-0.22,1.37-0.57
						c1.19-0.57,1.03-2.47,0.76-3.99L308.58,32.51z"/>
					<path class="st7" d="M365.98,39.16c-0.56-2.45-1.19-3.32-2.14-4.51c-0.47-0.62-9.14-9.15-11.34-11.17
						c-1.55-1.39-2.75-2.24-3.77-2.51c-0.66-0.19-1.52-0.27-2.11-0.14c-0.37,0.09-0.73,0-0.81-0.32c-0.07-0.32,0.22-0.5,0.81-0.63
						c0.8-0.19,4.35-0.87,5.89-1.22c1.02-0.22,3.18-0.83,5.31-1.32c0.42-0.1,0.72-0.05,0.8,0.27c0.09,0.37-0.24,0.45-0.93,0.83
						c-0.35,0.19-0.57,0.46-0.48,0.83c0.09,0.37,0.42,0.86,0.93,1.42c1.17,1.19,9.71,10.43,10.79,11.52
						c0.35-1.21,3.85-12.21,4.24-13.75c0.25-1.12,0.29-1.98,0.15-2.56c-0.1-0.42-0.41-0.81-1.24-0.78
						c-0.45-0.01-0.89,0.04-0.97-0.34c-0.07-0.32,0.17-0.48,0.71-0.61c1.55-0.35,3.22-0.62,4.61-0.93c1.02-0.22,4.09-1.03,5-1.24
						c0.53-0.12,0.88-0.09,0.93,0.19c0.07,0.32-0.25,0.62-0.78,0.73c-0.48,0.11-1.28,0.51-1.9,0.99c-0.91,0.71-1.23,1.23-1.98,2.68
						c-1.13,2.16-5.42,14.46-5.84,16.57c-0.32,1.81,0.1,3.17,0.44,4.67l0.82,3.63c0.17,0.75,0.6,2.61,1.13,4.51
						c0.41,1.31,1.03,2.06,2.46,1.96c0.72-0.05,1.74-0.22,2.39-0.37c0.53-0.12,0.86,0.09,0.91,0.3c0.07,0.32-0.26,0.56-0.91,0.71
						c-2.93,0.66-6.12,1.22-7.4,1.5c-1.17,0.26-4.29,1.14-6.04,1.54c-0.63,0.15-1.03,0.12-1.12-0.25c-0.05-0.21,0.1-0.53,0.63-0.65
						c0.65-0.15,1.22-0.34,1.62-0.53c0.91-0.44,1.09-1.37,0.89-2.72c-0.27-1.95-0.7-3.83-0.87-4.57L365.98,39.16z"/>
					<path class="st7" d="M389.86,38.65c0.48-0.09,0.7,0.15,1.58,1.11c1.16,1.18,1.58,2,1.68,2.6c0.1,0.53-0.02,1.78-0.25,2.71
						c-0.41,1.74-1.53,5.49-3,7.92c-0.32,0.39-0.47,0.75-0.8,0.81c-0.16,0.02-0.47-0.2-0.52-0.46c-0.05-0.26,0.21-0.71,0.27-0.99
						c0.78-2.14,0.96-3.72,0.73-4.96c-0.53-3.07-2.96-3.53-3.08-4.29C386.14,41.2,388.24,38.94,389.86,38.65z"/>
					<path class="st7" d="M419.48,16.76c-0.62-8.29-0.73-9.82-0.97-11.56c-0.25-1.85-0.75-2.68-2.57-2.93
						c-0.45-0.07-1.38-0.06-2.14,0c-0.6,0.05-0.93-0.04-0.97-0.42c-0.02-0.39,0.35-0.52,1.17-0.58c2.9-0.21,6.34-0.31,7.87-0.42
						c2.24-0.16,5.38-0.57,7.89-0.76c6.82-0.51,9.45,1.6,10.38,2.35c1.28,1.06,3,3.39,3.21,6.29c0.58,7.74-4.69,13.62-12.43,14.21
						c-0.27,0.02-0.87,0.06-1.14,0.02c-0.27-0.04-0.66-0.06-0.7-0.45c-0.04-0.44,0.34-0.63,1.48-0.71c3.06-0.22,7.05-3.98,6.64-9.55
						c-0.14-1.8-0.57-5.44-3.83-7.94c-2.1-1.65-4.36-1.81-5.62-1.72c-0.82,0.06-1.63,0.17-2.11,0.37c-0.26,0.12-0.41,0.47-0.36,1.07
						l1.63,21.82c0.37,5.02,0.7,9.32,1.14,11.65c0.27,1.52,0.7,2.7,2.35,2.78c0.77,0.05,1.98,0.07,2.8,0.01
						c0.6-0.05,0.88,0.1,0.91,0.37c0.02,0.39-0.4,0.57-0.99,0.62c-3.6,0.27-7.05,0.36-8.47,0.47c-1.26,0.1-4.67,0.51-6.86,0.67
						c-0.71,0.05-1.11-0.09-1.13-0.46c-0.02-0.27,0.19-0.45,0.85-0.5c0.82-0.06,1.47-0.22,1.95-0.36c1.07-0.3,1.26-1.52,1.35-3.12
						c0.1-2.31-0.22-6.63-0.6-11.63L419.48,16.76z"/>
					<path class="st7" d="M461.38,26.85c-0.1,5.95-0.15,8.91,0.88,9.81c0.81,0.72,2.66,1.03,6.38,1.09
						c2.57,0.04,4.43,0.01,5.66-1.22c0.61-0.6,1.13-1.9,1.24-2.77c0.06-0.44,0.17-0.71,0.56-0.7c0.32,0,0.42,0.5,0.42,1.04
						c0,0.55-0.4,3.99-0.8,5.35c-0.35,1.03-0.57,1.24-3.08,1.21c-3.44-0.06-6.23-0.16-8.64-0.31c-2.41-0.1-4.43-0.19-6.4-0.21
						c-0.55-0.01-1.59,0.02-2.73,0.01c-1.14,0.04-2.35,0.07-3.33,0.05c-0.6-0.01-0.93-0.17-0.92-0.51c0-0.22,0.17-0.48,0.77-0.48
						c0.71,0.01,1.26-0.04,1.7-0.14c0.98-0.2,1.28-1.07,1.47-2.44c0.25-1.96,0.31-5.63,0.39-9.89l0.14-8.2
						c0.11-7.06,0.14-8.37,0.1-9.84c-0.09-1.59-0.51-2.09-2.04-2.55c-0.39-0.11-0.98-0.19-1.58-0.19c-0.55-0.01-0.82-0.17-0.81-0.51
						c0-0.32,0.34-0.44,1.04-0.42c2.24,0.04,5.31,0.2,6.61,0.21c1.14,0.02,5.08-0.02,6.95,0c0.71,0.01,1.03,0.12,1.03,0.46
						c0,0.32-0.29,0.48-0.88,0.47c-0.55-0.01-1.32,0.04-1.86,0.14c-1.32,0.2-1.72,0.85-1.85,2.49c-0.14,1.48-0.15,2.78-0.27,9.84
						L461.38,26.85z"/>
					<path class="st7" d="M491.02,29.63c-0.27-0.02-0.34,0.02-0.46,0.29l-3.12,6.03c-0.6,1.09-0.92,2.23-0.96,2.77
						c-0.07,0.82,0.32,1.34,1.79,1.48l0.71,0.06c0.6,0.05,0.68,0.29,0.66,0.56c-0.04,0.39-0.31,0.47-0.81,0.42
						c-1.58-0.14-3.8-0.51-5.32-0.65c-0.48-0.05-3.07-0.11-5.57-0.34c-0.6-0.05-0.86-0.19-0.83-0.57c0.02-0.27,0.21-0.47,0.58-0.44
						c0.44,0.04,0.98,0.04,1.42,0.07c2.21-0.14,3.16-1.48,4.34-3.73L498.58,7.8c0.66-1.26,1.09-1.77,1.58-1.73
						c0.71,0.06,0.88,0.52,1.28,1.6c0.92,2.66,7.23,22.13,9.66,29.42c1.48,4.36,2.78,5.08,3.64,5.32c0.7,0.17,1.24,0.27,1.78,0.32
						c0.44,0.04,0.63,0.22,0.61,0.55c-0.04,0.39-0.31,0.46-2.11,0.3c-1.69-0.15-5.17-0.46-9.2-0.93c-0.87-0.14-1.42-0.19-1.38-0.51
						c0.02-0.27,0.15-0.42,0.65-0.44c0.34-0.02,0.7-0.44,0.53-0.99l-2.86-9.71c-0.09-0.29-0.25-0.35-0.46-0.37L491.02,29.63z
						 M501.5,27.98c0.21,0.02,0.29-0.09,0.25-0.25l-3.48-12.01c-0.04-0.17-0.07-0.45-0.17-0.46c-0.16-0.01-0.24,0.25-0.31,0.41
						l-5.67,11.14c-0.12,0.21-0.02,0.32,0.14,0.34L501.5,27.98z"/>
					<path class="st7" d="M528.15,39.36c-0.58,3.57-0.21,4.75,0.65,5.26c0.75,0.42,1.65,0.66,2.4,0.81c0.53,0.1,0.76,0.37,0.71,0.65
						c-0.07,0.37-0.52,0.4-1.17,0.27c-3.06-0.6-5.23-1.19-6.09-1.37c-0.44-0.09-2.71-0.36-5.13-0.85c-0.65-0.12-1.06-0.26-0.98-0.7
						c0.05-0.27,0.42-0.42,0.85-0.34c0.65,0.12,1.52,0.24,2.19,0.21c1.29-0.07,1.7-1.28,2.54-5.25l5.74-26.97
						c0.17-0.91,0.62-1.49,1.11-1.39c0.58,0.11,1.09,0.94,1.74,1.9c0.47,0.71,6.14,9.35,11.68,17.4c2.6,3.8,7.61,11.47,8.18,12.26
						l0.21,0.04l3.51-20.39c0.5-2.8,0.22-3.69-0.82-4.34c-0.65-0.41-1.78-0.62-2.41-0.76c-0.58-0.11-0.71-0.36-0.66-0.63
						c0.07-0.37,0.57-0.34,1.27-0.2c2.47,0.48,4.97,1.09,5.99,1.29c0.53,0.1,2.32,0.35,4.64,0.81c0.65,0.12,1.07,0.26,0.99,0.65
						c-0.05,0.27-0.36,0.44-0.89,0.32c-0.48-0.1-0.86-0.17-1.48-0.12c-1.37,0.12-1.9,0.86-2.46,3.42l-6.19,28.66
						c-0.2,1.02-0.66,1.38-1.03,1.31c-0.81-0.16-1.35-0.77-1.74-1.34c-2.41-3.32-7.21-10.12-11.21-15.86
						c-4.19-5.95-8.09-12.46-8.84-13.45l-0.16-0.04L528.15,39.36z"/>
					<path class="st7" d="M572.61,49.32c-0.98,3.48-0.73,4.7,0.05,5.3c0.7,0.51,1.57,0.85,2.3,1.07c0.52,0.16,0.72,0.46,0.63,0.72
						c-0.11,0.36-0.57,0.34-1.19,0.14c-2.97-0.94-5.06-1.78-5.89-2.04c-0.42-0.14-2.66-0.67-5.01-1.4c-0.62-0.2-1.03-0.39-0.89-0.8
						c0.09-0.26,0.46-0.37,0.88-0.24c0.62,0.2,1.48,0.41,2.15,0.45c1.29,0.06,1.84-1.08,3.11-4.92l8.73-26.15
						c0.29-0.88,0.8-1.42,1.26-1.27c0.57,0.19,0.98,1.06,1.52,2.09c0.4,0.76,5.05,9.97,9.67,18.6c2.16,4.06,6.28,12.26,6.76,13.09
						l0.21,0.06l5.76-19.86c0.81-2.73,0.63-3.64-0.32-4.4c-0.6-0.47-1.69-0.82-2.31-1.02c-0.57-0.19-0.67-0.44-0.58-0.7
						c0.11-0.36,0.6-0.27,1.28-0.05c2.4,0.76,4.82,1.64,5.8,1.95c0.52,0.16,2.27,0.61,4.51,1.31c0.62,0.2,1.03,0.39,0.91,0.75
						c-0.09,0.26-0.41,0.39-0.93,0.22c-0.47-0.15-0.83-0.26-1.45-0.29c-1.37-0.02-1.98,0.63-2.82,3.12l-9.36,27.79
						c-0.31,0.99-0.81,1.29-1.18,1.18c-0.78-0.25-1.26-0.92-1.58-1.53c-2.03-3.57-6.03-10.85-9.37-17.02
						c-3.49-6.38-6.64-13.29-7.28-14.34l-0.16-0.05L572.61,49.32z"/>
					<path class="st7" d="M618.77,49.03c2.68-6.53,3.18-7.74,3.69-9.12c0.5-1.5,0.25-2.2-0.58-2.9c-0.45-0.36-0.98-0.63-1.54-0.87
						c-0.46-0.19-0.67-0.4-0.5-0.8c0.1-0.25,0.5-0.21,1.21,0.07c1.67,0.68,4.66,2.04,5.93,2.55c1.12,0.46,4.04,1.54,5.76,2.25
						c0.56,0.22,0.87,0.47,0.77,0.73c-0.16,0.41-0.46,0.4-0.92,0.21s-0.83-0.29-1.38-0.39c-1.29-0.3-1.9,0.16-2.62,1.64
						c-0.66,1.33-1.16,2.54-3.84,9.06l-3.12,7.59c-1.7,4.15-3.12,7.59-3.67,9.5c-0.32,1.23-0.3,2.01,0.94,2.75
						c0.57,0.35,1.55,0.82,2.21,1.08c0.51,0.21,0.61,0.55,0.52,0.75c-0.12,0.3-0.55,0.31-1.04,0.1c-2.93-1.21-5.9-2.6-7.12-3.1
						c-1.01-0.41-4.11-1.5-5.88-2.24c-0.56-0.22-0.8-0.51-0.67-0.81c0.09-0.2,0.34-0.4,0.89-0.16c0.66,0.27,1.18,0.42,1.63,0.5
						c0.99,0.17,1.49-0.34,2.16-1.53c0.93-1.69,2.34-5.13,4.04-9.27L618.77,49.03z"/>
					<path class="st7" d="M635.91,73.11c-1.54,3.27-1.5,4.51-0.83,5.23c0.61,0.62,1.4,1.09,2.09,1.44c0.48,0.25,0.63,0.57,0.51,0.81
						c-0.17,0.34-0.61,0.24-1.19-0.06c-2.77-1.42-4.7-2.59-5.48-2.98c-0.39-0.2-2.51-1.09-4.7-2.23c-0.58-0.3-0.94-0.55-0.75-0.93
						c0.12-0.25,0.52-0.29,0.91-0.09c0.58,0.3,1.39,0.65,2.05,0.8c1.27,0.29,1.99-0.77,3.88-4.35l12.94-24.35
						c0.42-0.83,1.02-1.27,1.45-1.04c0.53,0.27,0.8,1.21,1.16,2.31c0.26,0.81,3.33,10.68,6.45,19.95c1.45,4.36,4.16,13.13,4.5,14.03
						l0.2,0.1l8.97-18.63c1.24-2.56,1.23-3.49,0.41-4.4c-0.51-0.57-1.53-1.09-2.11-1.39c-0.53-0.27-0.58-0.55-0.46-0.78
						c0.17-0.34,0.63-0.16,1.27,0.15c2.24,1.14,4.47,2.41,5.41,2.88c0.48,0.25,2.14,0.97,4.24,2.05c0.58,0.3,0.94,0.55,0.77,0.88
						c-0.12,0.25-0.47,0.31-0.96,0.06c-0.44-0.22-0.78-0.4-1.39-0.52c-1.34-0.26-2.06,0.3-3.31,2.61l-13.83,25.86
						c-0.47,0.92-1.01,1.14-1.35,0.97c-0.73-0.37-1.09-1.11-1.31-1.78c-1.4-3.85-4.15-11.71-6.41-18.33
						c-2.39-6.87-4.35-14.21-4.81-15.36l-0.15-0.07L635.91,73.11z"/>
					<path class="st7" d="M695.77,111.8c-0.68,1.06-0.72,1.09-1.4,1.04c-3.57-0.44-7.82-2.64-10.98-4.7
						c-9.89-6.46-15.7-16.67-8.66-27.43c4.06-6.23,10.26-8.39,15.38-8.12c5.31,0.27,9.11,2.36,12.49,4.57
						c2.8,1.83,6.02,4.59,6.72,5.31c0.73,0.67,2,1.83,2.93,2.51c0.42,0.35,0.43,0.55,0.25,0.82c-0.3,0.46-1.27,1.33-4.46,6.23
						c-0.39,0.6-0.8,0.72-1.12,0.51c-0.27-0.17-0.25-0.42-0.09-0.77c0.47-0.93,1.06-2.31,0.72-4.1c-0.39-2.01-2.26-5.73-6.8-8.69
						c-2.2-1.44-5.02-3.22-9.29-2.8c-3.44,0.36-6.79,2.29-9.91,7.05c-5.48,8.38-4.05,18,4.55,23.63c1.06,0.68,1.88,1.23,3.11,1.44
						c0.77,0.11,1.23-0.17,1.68-0.87l2.34-3.57c1.26-1.93,2.21-3.39,2.95-4.61c0.82-1.35,0.68-2.04-0.36-3.24
						c-0.26-0.3-0.92-0.8-1.47-1.16c-0.36-0.24-0.52-0.6-0.37-0.83c0.21-0.32,0.56-0.16,1.11,0.21c2.1,1.38,4.93,3.36,6.12,4.13
						c1.28,0.83,3.44,2.13,4.77,2.98c0.55,0.36,0.8,0.58,0.58,0.91c-0.15,0.22-0.5,0.26-0.77,0.09c-0.32-0.21-0.67-0.37-1.19-0.58
						c-1.22-0.53-1.99-0.26-2.93,1.09c-0.82,1.16-1.84,2.72-3.1,4.64L695.77,111.8z"/>
					<path class="st7" d="M708.69,115.84c0.4,0.3,0.36,0.61,0.26,1.91c-0.09,1.65-0.4,2.51-0.76,3c-0.34,0.44-1.32,1.19-2.15,1.67
						c-1.55,0.88-5.06,2.61-7.83,3.19c-0.51,0.02-0.88,0.16-1.14-0.04c-0.14-0.1-0.19-0.48-0.02-0.7c0.16-0.21,0.66-0.32,0.91-0.47
						c2.1-0.88,3.38-1.84,4.14-2.83c1.88-2.49,0.57-4.57,1.03-5.18C704.29,114.85,707.37,114.85,708.69,115.84z"/>
					<path class="st7" d="M736.29,133.38c-0.2-0.19-0.27-0.19-0.55-0.05l-6.15,2.88c-1.14,0.51-2.08,1.21-2.45,1.6
						c-0.56,0.6-0.57,1.26,0.52,2.26l0.52,0.48c0.45,0.41,0.37,0.65,0.19,0.85c-0.26,0.29-0.53,0.17-0.89-0.16
						c-1.17-1.08-2.7-2.72-3.83-3.75c-0.36-0.34-2.36-1.95-4.21-3.67c-0.45-0.41-0.57-0.67-0.31-0.96c0.19-0.2,0.46-0.25,0.73,0.01
						c0.32,0.3,0.76,0.62,1.08,0.92c1.83,1.24,3.39,0.76,5.72-0.31l28.94-12.82c1.29-0.6,1.94-0.73,2.31-0.4
						c0.52,0.48,0.39,0.96,0.05,2.05c-0.89,2.67-7.74,21.94-10.28,29.21c-1.49,4.35-0.89,5.72-0.36,6.44
						c0.45,0.56,0.81,0.97,1.22,1.34c0.32,0.3,0.37,0.57,0.15,0.81c-0.26,0.29-0.53,0.17-1.86-1.04c-1.24-1.14-3.82-3.52-6.72-6.35
						c-0.61-0.63-1.01-1.01-0.78-1.24c0.19-0.2,0.37-0.25,0.77,0.05c0.27,0.19,0.82,0.09,1.03-0.47l3.64-9.43
						c0.1-0.27,0.02-0.42-0.14-0.57L736.29,133.38z M745.59,138.47c0.16,0.15,0.27,0.1,0.35-0.05l4.56-11.63
						c0.07-0.16,0.21-0.4,0.14-0.47c-0.12-0.11-0.35,0.05-0.5,0.14l-11.27,5.37c-0.22,0.09-0.22,0.24-0.1,0.35L745.59,138.47z"/>
					<path class="st7" d="M757.94,161.75c-2.62,2.49-3.03,3.67-2.66,4.57c0.35,0.8,0.92,1.53,1.43,2.1
						c0.36,0.41,0.39,0.76,0.17,0.94c-0.29,0.26-0.66,0-1.09-0.48c-2.08-2.32-3.44-4.11-4.03-4.76c-0.29-0.32-1.94-1.93-3.58-3.77
						c-0.44-0.48-0.68-0.86-0.36-1.14c0.2-0.19,0.58-0.09,0.88,0.25c0.44,0.48,1.06,1.11,1.62,1.49c1.08,0.72,2.13,0,5.18-2.65
						l20.86-18.02c0.7-0.62,1.4-0.81,1.73-0.45c0.4,0.45,0.31,1.42,0.24,2.57c-0.05,0.85-0.75,11.15-1.19,20.93
						c-0.22,4.6-0.86,13.75-0.88,14.71l0.15,0.16l15.1-14.13c2.09-1.94,2.41-2.81,1.96-3.95c-0.27-0.71-1.03-1.57-1.47-2.06
						c-0.4-0.45-0.35-0.72-0.14-0.89c0.29-0.26,0.66,0.07,1.13,0.61c1.68,1.88,3.31,3.87,4,4.65c0.36,0.41,1.65,1.68,3.21,3.44
						c0.43,0.48,0.68,0.86,0.4,1.11c-0.2,0.19-0.55,0.12-0.92-0.29c-0.32-0.37-0.58-0.66-1.11-0.99c-1.16-0.72-2.03-0.46-4.03,1.24
						l-22.24,19.11c-0.77,0.7-1.35,0.7-1.62,0.41c-0.55-0.61-0.62-1.43-0.57-2.13c0.07-4.1,0.36-12.42,0.65-19.42
						c0.26-7.27,1.08-14.82,1.07-16.06l-0.11-0.12L757.94,161.75z"/>
					<path class="st7" d="M798.16,185.19c5.76-4.09,6.82-4.85,7.99-5.76c1.23-1.01,1.38-1.65,0.85-3.16
						c-0.14-0.37-0.56-1.08-0.98-1.65c-0.29-0.4-0.34-0.76-0.07-0.96c0.27-0.19,0.58,0.06,0.99,0.63c1.45,2.05,3.14,4.61,3.94,5.73
						c0.86,1.21,2.95,3.95,4.62,6.31c3.48,4.9,8.18,11.5,6.9,18.86c-0.57,3.36-2.5,7.35-7,10.54c-4.77,3.39-9.84,3.9-13.61,3.23
						c-3.05-0.51-8.68-2.76-13.81-9.98c-1.02-1.43-2.09-3.22-3.11-4.84c-0.98-1.65-1.9-3.14-2.6-4.13c-0.32-0.45-0.97-1.26-1.63-2.2
						c-0.71-0.91-1.45-1.85-2.03-2.66c-0.35-0.48-0.41-0.86-0.14-1.04c0.17-0.12,0.5-0.15,0.85,0.34c0.41,0.58,0.77,0.99,1.12,1.29
						c0.75,0.67,1.62,0.39,2.83-0.27c1.73-0.96,4.71-3.08,8.19-5.56L798.16,185.19z M797.71,193.42c-4.01,2.85-6.87,4.96-7.61,5.54
						c-0.91,0.71-2.18,1.75-2.36,2.35c-0.36,0.99-0.06,3.13,2.13,6.2c2.54,3.57,5.03,5.76,8.68,6.72c3.9,1.06,7.86-0.56,11.78-3.34
						c4.81-3.42,6.58-7.56,6.85-10.38c0.65-5.89-2-10.45-4.19-13.54c-0.57-0.81-1.58-2.03-1.98-2.21c-0.39-0.26-0.66-0.27-1.11,0.05
						c-1.33,0.87-4.45,3.1-7.43,5.22L797.71,193.42z"/>
					<path class="st7" d="M836.96,237.8c7.45-3.7,8.81-4.38,10.33-5.26c1.62-0.92,2.2-1.7,1.74-3.49c-0.1-0.44-0.46-1.29-0.81-1.99
						c-0.26-0.53-0.31-0.88,0.02-1.06c0.35-0.17,0.61,0.12,0.98,0.86c1.29,2.6,2.67,5.76,3.36,7.12c0.76,1.52,2.44,4.52,3.89,7.47
						c3.05,6.12,7.11,14.29,4.18,22.41c-1.33,3.72-4.25,8.03-10.08,10.93c-6.17,3.07-12.16,2.81-16.32,1.45
						c-3.42-1.11-9.43-4.47-13.93-13.54c-0.87-1.77-1.73-3.84-2.5-5.78c-0.77-1.94-1.48-3.72-2.09-4.95
						c-0.27-0.53-0.81-1.62-1.44-2.77c-0.56-1.13-1.29-2.35-1.78-3.33c-0.31-0.63-0.34-1.06,0-1.22c0.25-0.12,0.48,0,0.78,0.58
						c0.36,0.73,0.76,1.27,1.07,1.67c0.68,0.88,1.88,0.6,3.39,0.09c2.18-0.77,6.05-2.7,10.55-4.93L836.96,237.8z M834.61,246.6
						c-5.2,2.59-8.94,4.5-9.84,5.01c-1.21,0.66-3.11,1.73-3.46,2.39c-0.61,1.09-0.7,3.52,1.23,7.38c2.49,5,5.12,7.84,9.12,9.51
						c4.25,1.79,9.2,0.56,14.23-1.95c6.22-3.1,8.95-7.68,9.91-10.79c2.08-6.65-0.11-12.52-2.01-16.35
						c-0.48-0.98-1.53-2.72-1.93-3.01c-0.41-0.35-0.73-0.37-1.27-0.1c-1.69,0.78-5.95,2.9-9.82,4.82L834.61,246.6z"/>
					<path class="st7" d="M854.33,283.86c6.59-2.52,7.82-3,9.17-3.57c1.44-0.67,1.74-1.26,1.6-2.85c-0.04-0.4-0.27-1.18-0.53-1.85
						c-0.17-0.46-0.14-0.82,0.16-0.94c0.31-0.11,0.55,0.2,0.8,0.87c0.89,2.35,1.89,5.25,2.39,6.53c0.55,1.43,4.31,11.41,4.7,12.26
						c0.36,0.8,0.8,1.45,0.98,1.79c0.15,0.24,0.4,0.44,0.47,0.63c0.1,0.26-0.09,0.39-0.29,0.46c-0.31,0.11-0.92,0.06-2.95,0.72
						c-0.47,0.12-2.41,0.75-2.96,0.85c-0.22,0.02-0.77,0.12-0.91-0.24c-0.11-0.31,0.06-0.44,0.42-0.57
						c0.31-0.11,1.06-0.46,1.47-0.91c0.63-0.65,1.11-1.24,0.45-3.57c-0.19-0.81-2.14-6.2-2.5-7.12c-0.07-0.2-0.27-0.25-0.52-0.15
						l-10.73,4.1c-0.26,0.1-0.43,0.22-0.35,0.48c0.39,1.02,2.62,6.85,3.11,7.83c0.51,1.03,0.89,1.59,1.48,1.89
						c0.45,0.24,0.76,0.3,0.83,0.5c0.07,0.2-0.06,0.44-0.32,0.53s-1.01,0.27-3.31,0.86c-0.91,0.24-2.68,0.8-3,0.91
						c-0.36,0.14-0.99,0.32-1.14-0.09c-0.11-0.31,0-0.47,0.2-0.55c0.43-0.22,1.01-0.45,1.53-0.76c0.77-0.58,1.22-1.4,0.72-3.14
						c-0.21-0.86-2.06-6-2.5-7.12c-0.07-0.2-0.3-0.17-0.56-0.07l-3.47,1.33c-1.48,0.57-5.18,1.93-6.44,2.46
						c-2.92,1.23-3.06,2.87-1.31,7.47c0.45,1.18,1.23,3.05,2.19,4.03c0.94,0.93,2.05,1.08,3.97,0.71c0.5-0.07,0.75-0.05,0.86,0.26
						c0.14,0.36-0.41,0.62-0.87,0.8c-0.97,0.37-4.06,1.14-5.03,1.23c-1.24,0.12-1.39-0.29-2.04-1.98c-1.29-3.37-2.27-6.1-3.01-8.33
						c-0.8-2.21-1.38-3.92-1.89-5.25c-0.2-0.51-0.62-1.47-1.03-2.54c-0.46-1.06-0.94-2.16-1.29-3.08c-0.21-0.56-0.17-0.93,0.12-1.04
						c0.2-0.07,0.52-0.02,0.73,0.53c0.26,0.66,0.5,1.16,0.76,1.53c0.56,0.85,1.47,0.78,2.81,0.45c1.91-0.5,5.35-1.81,9.32-3.33
						L854.33,283.86z"/>
					<path class="st7" d="M872.74,307.82c2.16-1.77,2.39-2.57,2.31-4.38c-0.04-0.73-0.26-1.47-0.36-1.83
						c-0.12-0.42,0.06-0.58,0.32-0.66c0.37-0.11,0.56,0.35,0.76,1.03c0.72,2.47,1.38,5.12,1.85,6.75c0.34,1.16,1.14,3.54,1.83,5.85
						c0.17,0.57,0.21,1.13-0.1,1.23c-0.31,0.09-0.56-0.17-0.68-0.6c-0.21-0.73-0.47-1.4-0.83-1.69c-0.3-0.25-0.61-0.34-1.03-0.21
						c-0.57,0.17-1.67,0.94-3.06,2.03l-17.74,13.61l0.05,0.16c5.21,0.65,21.32,2.37,24.59,2.62c0.63,0.04,1.38,0.05,1.75-0.05
						c0.47-0.14,0.57-0.4,0.61-0.86c0-0.57-0.16-1.32-0.32-1.9c-0.12-0.42-0.07-0.83,0.25-0.92c0.31-0.09,0.55,0.3,0.81,1.19
						c0.67,2.31,1.17,4.39,1.34,4.96c0.22,0.78,0.96,2.91,1.38,4.33c0.17,0.57,0.17,0.97-0.15,1.07c-0.31,0.09-0.55-0.12-0.68-0.6
						s-0.37-1.48-1.18-2.1c-0.58-0.46-1.45-0.88-4.64-1.27c-4.74-0.61-7.51-1.12-13.7-2.04c-7.37-1.04-12.88-1.77-15.44-2.16
						c-2.91-0.41-3.72-0.62-3.9-1.26c-0.19-0.63,0.29-1.17,2.13-2.67L872.74,307.82z"/>
					<path class="st7" d="M874.77,349.22c6.91-1.43,8.19-1.69,9.63-2.04c1.53-0.42,1.93-0.96,2.04-2.55c0.02-0.4-0.09-1.21-0.22-1.9
						c-0.1-0.48,0-0.83,0.31-0.91c0.31-0.07,0.51,0.29,0.65,0.98c0.51,2.46,1.02,5.48,1.29,6.82c0.31,1.5,2.41,11.96,2.65,12.85
						c0.24,0.85,0.55,1.57,0.67,1.93c0.11,0.26,0.32,0.5,0.37,0.71c0.05,0.27-0.15,0.36-0.36,0.41c-0.32,0.06-0.91-0.09-3.02,0.24
						c-0.5,0.05-2.5,0.35-3.06,0.35c-0.22-0.01-0.78,0-0.86-0.39c-0.06-0.32,0.14-0.42,0.51-0.5c0.32-0.06,1.12-0.29,1.59-0.66
						c0.72-0.55,1.29-1.04,1.02-3.44c-0.06-0.82-1.11-6.48-1.31-7.43c-0.05-0.21-0.22-0.29-0.5-0.24l-11.25,2.32
						c-0.26,0.05-0.47,0.15-0.41,0.42c0.22,1.07,1.48,7.17,1.8,8.23c0.34,1.11,0.63,1.72,1.16,2.1c0.4,0.31,0.7,0.41,0.75,0.63
						c0.05,0.21-0.14,0.42-0.41,0.47c-0.27,0.05-1.04,0.1-3.39,0.31c-0.93,0.07-2.77,0.35-3.1,0.41c-0.37,0.07-1.03,0.16-1.12-0.27
						c-0.06-0.32,0.07-0.46,0.29-0.51c0.47-0.15,1.06-0.27,1.63-0.5c0.86-0.46,1.43-1.19,1.23-2.98c-0.07-0.88-1.07-6.25-1.31-7.43
						c-0.05-0.21-0.27-0.22-0.53-0.17l-3.64,0.75c-1.55,0.32-5.42,1.06-6.75,1.39c-3.08,0.75-3.48,2.34-2.49,7.16
						c0.25,1.23,0.72,3.21,1.5,4.33c0.78,1.07,1.85,1.4,3.79,1.34c0.51,0.01,0.75,0.07,0.81,0.4c0.07,0.37-0.5,0.55-0.98,0.65
						c-1.02,0.21-4.2,0.47-5.17,0.4c-1.24-0.07-1.33-0.51-1.7-2.27c-0.73-3.53-1.26-6.39-1.63-8.71c-0.42-2.31-0.73-4.09-1.02-5.48
						c-0.11-0.53-0.37-1.54-0.61-2.67c-0.29-1.12-0.58-2.27-0.78-3.24c-0.12-0.58-0.02-0.94,0.3-1.01c0.21-0.05,0.52,0.06,0.63,0.65
						c0.15,0.7,0.31,1.22,0.5,1.63c0.41,0.92,1.33,1.01,2.7,0.89c1.98-0.19,5.56-0.92,9.73-1.79L874.77,349.22z"/>
					<path class="st7" d="M873.21,387.42c-5.9,0.78-8.84,1.17-9.57,2.31c-0.6,0.91-0.62,2.78-0.14,6.48
						c0.34,2.55,0.63,4.39,2.04,5.42c0.67,0.52,2.04,0.83,2.92,0.83c0.44,0,0.72,0.07,0.77,0.45c0.04,0.32-0.44,0.5-0.97,0.57
						c-0.55,0.07-4,0.2-5.41,0c-1.07-0.19-1.32-0.37-1.64-2.87c-0.45-3.42-0.76-6.19-0.97-8.59c-0.26-2.39-0.47-4.4-0.72-6.36
						c-0.07-0.55-0.26-1.57-0.41-2.71c-0.2-1.13-0.41-2.31-0.55-3.29c-0.07-0.6,0.04-0.94,0.36-0.98c0.21-0.02,0.51,0.1,0.58,0.7
						c0.09,0.71,0.21,1.24,0.39,1.67c0.35,0.94,1.24,1.11,2.62,1.09c1.98-0.04,5.62-0.52,9.84-1.07l8.13-1.07
						c7-0.92,8.29-1.09,9.76-1.34c1.55-0.31,1.99-0.81,2.23-2.39c0.06-0.4,0.04-0.99-0.05-1.59c-0.07-0.55,0.05-0.83,0.39-0.88
						c0.32-0.04,0.47,0.27,0.57,0.97c0.3,2.23,0.58,5.27,0.76,6.58c0.15,1.14,0.77,5.03,1.02,6.87c0.09,0.71,0.02,1.04-0.3,1.08
						s-0.52-0.21-0.6-0.81c-0.07-0.55-0.22-1.29-0.41-1.83c-0.39-1.27-1.09-1.57-2.73-1.47c-1.48,0.09-2.78,0.26-9.77,1.18
						L873.21,387.42z"/>
					<path class="st7" d="M879.75,404.85c7.93-0.34,18.43,4.8,19.06,19.39c0.51,12.13-5.89,19.95-16.54,20.41
						c-10.65,0.46-19.34-6.95-19.86-19.35C861.79,411.3,871.5,405.2,879.75,404.85z M880.26,437.56
						c10.27-0.44,16.35-6.87,16.02-14.64c-0.22-5.36-3.33-11.52-14.8-11.04c-9.56,0.41-16.87,6.19-16.48,15.26
						C865.14,430.54,867.04,438.12,880.26,437.56z"/>
					<path class="st7" d="M885.01,454.53c7.05,0.32,8.35,0.39,9.83,0.4c1.59-0.04,2.1-0.45,2.61-1.96c0.12-0.37,0.22-1.19,0.25-1.9
						c0.02-0.5,0.2-0.81,0.53-0.8c0.32,0.01,0.42,0.4,0.39,1.12c-0.11,2.51-0.37,5.57-0.44,6.94c-0.09,1.96-0.16,5.79-0.26,7.98
						c-0.27,6-2.35,8.1-3.03,8.84c-1.03,0.99-3.17,2.26-5.68,2.15c-6.55-0.31-11.01-5.77-10.69-12.59c0.01-0.22,0.05-1.21,0.12-1.42
						c0.01-0.27,0.19-0.6,0.52-0.57c0.39,0.01,0.57,0.57,0.52,1.62c-0.12,2.67,2.49,6.58,7.23,6.8c1.53,0.07,4.6,0.05,7.01-2.52
						c1.62-1.68,1.93-3.63,1.98-4.72c0.04-0.71,0.02-1.64-0.12-2.09c-0.1-0.27-0.36-0.4-0.86-0.42l-18.41-0.86
						c-4.26-0.2-7.92-0.37-9.96-0.25c-1.32,0.1-2.2,0.34-2.49,1.74c-0.14,0.71-0.25,1.74-0.27,2.45c-0.02,0.55-0.31,0.76-0.52,0.75
						c-0.32-0.01-0.47-0.41-0.45-0.89c0.15-3.22,0.47-6.6,0.53-7.86c0.05-1.09,0.02-4.16,0.11-6.07c0.02-0.6,0.21-0.92,0.53-0.91
						c0.22,0.01,0.48,0.19,0.46,0.78c-0.04,0.71,0,1.26,0.09,1.7c0.17,0.99,1.03,1.31,2.39,1.53c1.95,0.31,5.62,0.48,9.88,0.68
						L885.01,454.53z"/>
					<path class="st7" d="M895.71,492c0.75,0.22,1.11,0.72,1.06,1.09c-0.07,0.48-0.34,0.78-1.68,1.24l-27.32,9.01l23.87,16.58
						c0.7,0.48,1.02,0.98,0.96,1.42c-0.06,0.37-0.62,0.85-1.62,0.87l-28.94,0.15c-2.93,0.01-4.24,0.26-4.89,1.65
						c-0.58,1.29-0.75,2.05-0.83,2.64c-0.06,0.44-0.27,0.73-0.55,0.7c-0.37-0.06-0.46-0.62-0.36-1.33c0.17-1.19,1.34-7.93,1.73-9.81
						c0.22-1.13,0.47-1.37,0.75-1.33c0.21,0.04,0.35,0.27,0.41,0.61c0.06,0.29,0.6,0.47,1.91,0.51l20.25,0.29l0.02-0.16
						l-18.83-13.24c-2-1.4-2.4-1.74-2.31-2.27c0.09-0.6,1.09-0.99,2.61-1.55c2.27-0.82,9.87-3.57,11.25-3.92
						c0.92-0.25,6.91-2.24,10.34-3.33l0.02-0.16l-17.41-4.9c-0.8-0.22-1.38-0.37-2.14-0.48c-0.87-0.12-1.29,0.47-1.57,1.26
						c-0.27,0.78-0.4,1.22-0.46,1.64c-0.06,0.44-0.32,0.72-0.55,0.7c-0.44-0.06-0.47-0.51-0.37-1.22c0.3-2,0.78-4.14,0.91-5.01
						c0.14-0.92,0.31-3.22,0.53-4.74c0.07-0.48,0.24-0.85,0.67-0.78c0.21,0.04,0.4,0.34,0.32,0.82c-0.06,0.37-0.1,0.71-0.11,1.48
						c-0.02,1.32,1.74,2.03,3.23,2.47L895.71,492z"/>
					<path class="st7" d="M874.2,539.18c6.84,1.73,8.12,2.04,9.56,2.35c1.57,0.29,2.15-0.02,2.95-1.4c0.2-0.35,0.45-1.13,0.62-1.81
						c0.12-0.47,0.36-0.76,0.67-0.67c0.32,0.07,0.34,0.47,0.16,1.17c-0.61,2.44-1.47,5.38-1.8,6.71
						c-0.37,1.48-3.03,11.81-3.21,12.73c-0.16,0.86-0.19,1.64-0.22,2.03c-0.01,0.27,0.07,0.58,0.02,0.8
						c-0.06,0.26-0.3,0.26-0.51,0.21c-0.32-0.07-0.78-0.47-2.82-1.11c-0.46-0.17-2.4-0.77-2.9-1.01c-0.2-0.11-0.71-0.35-0.61-0.72
						c0.07-0.32,0.31-0.32,0.67-0.22c0.32,0.07,1.13,0.22,1.73,0.1c0.89-0.17,1.62-0.39,2.42-2.66c0.31-0.77,1.81-6.31,2.05-7.26
						c0.05-0.21-0.07-0.36-0.35-0.42l-11.14-2.81c-0.26-0.06-0.48-0.06-0.56,0.2c-0.26,1.06-1.79,7.11-1.95,8.19
						c-0.17,1.14-0.17,1.81,0.12,2.4c0.22,0.45,0.45,0.67,0.4,0.89c-0.05,0.21-0.31,0.31-0.57,0.25s-0.98-0.36-3.19-1.19
						c-0.87-0.34-2.65-0.9-2.97-0.97c-0.37-0.1-0.99-0.31-0.88-0.73c0.07-0.32,0.26-0.39,0.47-0.34c0.48,0.06,1.07,0.21,1.68,0.26
						c0.97-0.04,1.8-0.45,2.4-2.16c0.32-0.82,1.77-6.1,2.05-7.26c0.05-0.21-0.15-0.32-0.41-0.39l-3.6-0.91
						c-1.54-0.39-5.35-1.4-6.69-1.68c-3.11-0.67-4.15,0.58-5.36,5.36c-0.31,1.22-0.75,3.19-0.52,4.55c0.24,1.31,1.06,2.08,2.83,2.86
						c0.45,0.22,0.63,0.39,0.56,0.71c-0.1,0.37-0.68,0.27-1.17,0.16c-1.01-0.26-3.99-1.4-4.82-1.89c-1.08-0.61-0.98-1.03-0.53-2.78
						c0.88-3.51,1.64-6.3,2.32-8.55c0.62-2.26,1.12-4,1.47-5.38c0.14-0.53,0.34-1.55,0.61-2.66c0.22-1.13,0.47-2.31,0.71-3.26
						c0.15-0.58,0.39-0.86,0.71-0.78c0.21,0.05,0.43,0.29,0.29,0.86c-0.17,0.68-0.25,1.23-0.26,1.68c-0.02,1.01,0.76,1.49,2.04,1.98
						c1.85,0.7,5.41,1.59,9.55,2.64L874.2,539.18z"/>
					<path class="st7" d="M850.63,567.38c-3.44-1.09-4.67-0.9-5.3-0.12c-0.53,0.68-0.89,1.54-1.14,2.26
						c-0.19,0.52-0.47,0.7-0.73,0.61c-0.36-0.12-0.32-0.57-0.1-1.19c1.03-2.95,1.94-5,2.22-5.83c0.15-0.41,0.76-2.64,1.57-4.96
						c0.22-0.62,0.41-1.02,0.83-0.87c0.26,0.09,0.36,0.47,0.21,0.88c-0.21,0.62-0.46,1.47-0.52,2.14c-0.11,1.29,1.02,1.86,4.82,3.27
						l25.86,9.57c0.88,0.31,1.39,0.83,1.22,1.31c-0.2,0.57-1.09,0.94-2.14,1.45c-0.77,0.37-10.13,4.72-18.91,9.06
						c-4.14,2.03-12.46,5.88-13.3,6.33l-0.07,0.21l19.66,6.4c2.7,0.89,3.62,0.76,4.41-0.19c0.5-0.58,0.87-1.67,1.09-2.29
						c0.2-0.57,0.46-0.65,0.72-0.56c0.36,0.12,0.25,0.61,0.01,1.28c-0.83,2.37-1.79,4.76-2.14,5.74c-0.19,0.52-0.67,2.25-1.45,4.46
						c-0.22,0.62-0.41,1.02-0.77,0.88c-0.26-0.09-0.37-0.42-0.19-0.93c0.16-0.46,0.29-0.82,0.34-1.45c0.07-1.37-0.57-2-3.03-2.92
						l-27.47-10.26c-0.98-0.35-1.27-0.86-1.14-1.22c0.27-0.77,0.96-1.23,1.58-1.53c3.63-1.91,11.05-5.68,17.3-8.8
						c6.49-3.28,13.5-6.2,14.58-6.81l0.05-0.15L850.63,567.38z"/>
					<path class="st7" d="M856.33,624.03l2.88-6.56c1.13-2.55,1.32-3.73,0.68-4.81c-0.39-0.72-0.83-1.18-1.09-1.42
						c-0.3-0.26-0.45-0.45-0.31-0.75c0.14-0.3,0.43-0.29,0.88-0.07c0.7,0.32,4.36,3.06,4.66,3.32c0.5,0.36,0.67,0.62,0.56,0.87
						c-0.16,0.35-0.72,0.63-1.38,1.65c-0.75,1.22-1.57,2.83-2.24,4.26l-8.27,17.69c-0.65,1.39-0.99,2.37-1.19,3.07
						c-0.22,0.73-0.29,1.13-0.36,1.28c-0.14,0.3-0.41,0.24-1.06-0.07c-0.89-0.42-3.97-1.98-5.06-2.49
						c-0.42-0.26-0.62-0.47-0.51-0.72c0.16-0.35,0.41-0.35,1.07-0.1l0.47,0.16c1.13,0.41,2.96-0.12,4.84-4.01l2.67-5.46l-17.05-7.96
						c-3.87-1.8-7.21-3.31-9.14-3.97c-1.26-0.41-2.16-0.53-2.97,0.67c-0.37,0.55-0.89,1.52-1.19,2.16c-0.24,0.5-0.57,0.58-0.77,0.48
						c-0.3-0.14-0.29-0.56-0.05-1.06c1.34-2.87,2.86-5.73,3.43-6.97c0.46-0.99,1.7-4.04,2.51-5.77c0.26-0.55,0.55-0.77,0.83-0.63
						c0.2,0.1,0.37,0.36,0.12,0.91c-0.3,0.65-0.51,1.22-0.57,1.6c-0.21,0.98,0.46,1.6,1.63,2.34c1.69,1.03,5.01,2.59,8.88,4.39
						L856.33,624.03z"/>
				</g>
				<polygon class="st7" points="119.04,658.79 125.95,672.8 141.41,675.05 130.23,685.95 132.86,701.35 119.04,694.08 
					105.22,701.35 107.85,685.95 96.67,675.05 112.13,672.8 				"/>
				<polygon class="st7" points="801.4,658.19 808.32,672.2 823.78,674.45 812.59,685.35 815.23,700.75 801.4,693.48 787.58,700.75 
					790.22,685.35 779.03,674.45 794.49,672.2 				"/>
			</g>
			<g>
				<g>
					<path class="st7" d="M169.61,743.48c4.04-4.19,4.76-4.93,5.54-5.84c0.83-0.97,1.03-1.6,0.32-2.65
						c-0.16-0.26-0.6-0.73-0.83-0.96c-0.11-0.1-0.16-0.26-0.06-0.37c0.15-0.16,0.35-0.09,0.63,0.21c1.21,1.17,2.82,2.88,2.96,3.01
						c0.3,0.29,2.41,2.18,3.24,2.97c1.69,1.63,3.33,3.53,3.77,5.92c0.2,1.13,0.11,3.58-1.68,5.43c-1.91,1.99-4.66,3.17-9.24,3.06
						c-0.52,4.93-1.01,9.09-1.06,12.26c-0.02,2.93,0.85,4.34,1.4,5.1c0.44,0.57,0.81,0.93,0.97,1.09c0.14,0.12,0.16,0.31,0.09,0.4
						c-0.15,0.16-0.36,0.06-0.85-0.41l-1.9-1.84c-1.5-1.45-2.04-2.24-2.37-3.28c-0.56-1.73-0.22-3.95,0.19-7.45
						c0.3-2.56,0.77-5.58,0.91-6.79c0-0.21-0.04-0.35-0.2-0.5l-3.24-3.24c-0.14-0.12-0.26-0.1-0.4,0.04l-0.62,0.65
						c-2.49,2.57-4.54,4.7-5.49,5.95c-0.67,0.86-1.08,1.6-0.37,2.49c0.32,0.41,0.86,1.04,1.11,1.27c0.16,0.15,0.14,0.29,0.06,0.37
						c-0.12,0.14-0.34,0.09-0.63-0.2c-1.48-1.43-3.08-3.13-3.22-3.27c-0.02-0.02-1.79-1.58-2.6-2.35c-0.3-0.29-0.37-0.47-0.22-0.63
						c0.07-0.07,0.21-0.11,0.37,0.05c0.24,0.24,0.61,0.48,0.91,0.67c0.65,0.41,1.34-0.05,2.2-0.72c1.22-0.99,3.27-3.12,5.76-5.69
						L169.61,743.48z M169.49,747.89c-0.12,0.14-0.17,0.3-0.12,0.51c0.17,0.63,1.22,2.01,2.4,3.14c0.65,0.62,1.47,1.27,2.5,1.43
						c1.55,0.26,3.65-0.51,5.63-2.55c3.24-3.36,3.41-7.07,0.55-9.84c-0.81-0.77-1.6-1.39-1.95-1.58c-0.19-0.07-0.37-0.05-0.52,0.11
						L169.49,747.89z"/>
					<path class="st7" d="M190.79,763.2c3.77-4.44,4.45-5.23,5.16-6.19c0.77-1.02,0.92-1.67,0.15-2.66
						c-0.17-0.25-0.63-0.68-0.89-0.91c-0.11-0.1-0.17-0.25-0.09-0.36c0.15-0.17,0.34-0.11,0.65,0.16c0.66,0.56,1.42,1.21,2.01,1.77
						l1.12,1.04c0.2,0.17,5.85,4.97,6.53,5.51c0.56,0.44,1.07,0.76,1.34,0.89c0.16,0.09,0.37,0.07,0.52,0.2
						c0.09,0.07,0.01,0.21-0.1,0.35c-0.17,0.2-0.6,0.42-1.37,1.14c-0.27,0.26-1.39,1.47-1.74,1.75c-0.15,0.11-0.35,0.24-0.46,0.15
						c-0.17-0.15-0.11-0.34,0.09-0.56c0.17-0.2,0.55-0.71,0.7-1.17c0.19-0.62,0.2-1.21-1.19-2.68c-0.44-0.47-3.51-3.13-3.82-3.39
						c-0.11-0.1-0.25-0.06-0.41,0.14l-6.68,7.84c-0.17,0.2-0.21,0.31-0.07,0.42c0.37,0.31,3.87,3.28,4.56,3.78
						c0.73,0.52,1.18,0.81,1.68,0.73c0.39-0.06,0.62-0.1,0.75,0c0.09,0.07,0.09,0.17-0.05,0.35c-0.15,0.17-0.7,0.53-1.58,1.39
						c-0.53,0.52-1.49,1.52-1.65,1.72c-0.2,0.22-0.46,0.53-0.66,0.37c-0.15-0.12-0.1-0.29,0.01-0.42c0.25-0.29,0.48-0.57,0.68-1.03
						c0.22-0.5,0.37-1.19-0.63-2.25c-0.7-0.73-3.46-3.18-3.94-3.59c-0.14-0.12-0.27-0.09-0.37,0.02l-2.13,2.5
						c-0.82,0.97-3.65,4.24-4.13,4.86c-1.58,2.04-1.47,2.76,1.32,5.13c0.73,0.62,1.99,1.69,3,2c1.01,0.31,1.83,0.04,3.02-0.96
						c0.32-0.26,0.47-0.34,0.62-0.21c0.17,0.15-0.02,0.37-0.19,0.57c-0.2,0.22-2.06,1.96-2.71,2.44c-0.83,0.57-1.06,0.37-2.16-0.57
						c-2.13-1.81-3.64-3.19-4.72-4.16c-1.06-0.99-1.72-1.6-2.14-1.96c-0.06-0.05-0.53-0.46-1.16-0.93
						c-0.57-0.48-1.27-0.98-1.69-1.34c-0.31-0.26-0.41-0.45-0.26-0.61c0.07-0.09,0.2-0.12,0.37,0.02c0.26,0.21,0.65,0.45,0.94,0.61
						c0.67,0.37,1.34-0.14,2.15-0.86c1.16-1.07,3.07-3.32,5.38-6.04L190.79,763.2z"/>
					<path class="st7" d="M209,778.17c3.51-4.65,4.13-5.48,4.79-6.48c0.71-1.06,0.82-1.72,0-2.66c-0.19-0.24-0.67-0.65-0.94-0.86
						c-0.12-0.09-0.2-0.24-0.1-0.36c0.14-0.17,0.32-0.12,0.66,0.12c1.34,1.01,3.06,2.45,3.29,2.62c0.66,0.5,2.45,1.7,3.82,2.73
						c3.72,2.81,4.11,5.07,4.26,5.88c0.19,1.12,0.01,3.08-1.18,4.66c-3.19,4.23-8.44,4.75-12.67,1.57c-0.15-0.11-0.47-0.36-0.6-0.5
						c-0.15-0.11-0.29-0.31-0.17-0.46c0.17-0.24,0.39-0.14,1.01,0.34c2.88,2.18,6.75,1.77,8.81-0.97c0.75-0.98,2.15-3.05,1.79-5.84
						s-2.27-4.05-2.96-4.56c-0.51-0.39-1.06-0.71-1.42-0.78c-0.22-0.07-0.44,0.09-0.67,0.39l-9.22,12.24
						c-2.15,2.86-3.93,5.21-4.72,6.58c-0.56,0.93-0.88,1.72-0.07,2.51c0.37,0.37,0.98,0.93,1.26,1.13c0.17,0.14,0.17,0.27,0.1,0.36
						c-0.11,0.15-0.32,0.12-0.66-0.12c-1.64-1.23-3.44-2.73-3.59-2.85c-0.09-0.06-2.04-1.39-2.92-2.06c-0.32-0.25-0.44-0.42-0.3-0.6
						c0.06-0.09,0.2-0.14,0.37,0c0.27,0.2,0.67,0.41,0.98,0.56c0.68,0.34,1.33-0.21,2.1-0.98c1.09-1.14,2.87-3.49,5.02-6.35
						L209,778.17z"/>
					<path class="st7" d="M227.25,791.64c3.17-4.87,3.74-5.76,4.34-6.79c0.63-1.11,0.71-1.77-0.19-2.66
						c-0.21-0.22-0.72-0.6-1.01-0.78c-0.12-0.09-0.21-0.22-0.12-0.35c0.12-0.19,0.32-0.15,0.66,0.07c1.4,0.92,3.26,2.25,3.53,2.44
						c0.29,0.19,2.23,1.31,3.16,1.91c0.35,0.22,0.46,0.39,0.34,0.57c-0.09,0.12-0.25,0.1-0.37,0.02c-0.22-0.14-0.42-0.24-0.85-0.41
						c-0.93-0.42-1.54-0.02-2.31,1.03c-0.71,0.96-1.28,1.84-4.46,6.71l-2.85,4.38c-2.93,4.5-3.19,7.09-2.68,9.25
						c0.6,2.44,1.81,3.63,3.6,4.8c1.9,1.24,4.38,1.55,6.38,0.94c2.6-0.85,4.7-3.26,6.8-6.48l2.55-3.9c3.17-4.87,3.74-5.76,4.34-6.79
						c0.63-1.11,0.71-1.77-0.19-2.66c-0.21-0.22-0.72-0.61-1.01-0.78c-0.12-0.09-0.21-0.22-0.12-0.35c0.12-0.19,0.32-0.15,0.66,0.07
						c1.4,0.92,3.06,2.13,3.26,2.25c0.22,0.14,1.75,1.01,2.68,1.6c0.35,0.22,0.46,0.39,0.34,0.57c-0.09,0.12-0.25,0.1-0.37,0.02
						c-0.22-0.14-0.42-0.24-0.85-0.41c-0.97-0.36-1.54-0.02-2.31,1.03c-0.71,0.96-1.28,1.84-4.46,6.71l-2.18,3.34
						c-2.2,3.38-5.02,6.89-8.96,7.47c-3.56,0.53-6.1-0.68-7.94-1.88c-1.06-0.7-4.14-2.87-5-6.41c-0.57-2.46-0.34-5.43,2.64-9.99
						L227.25,791.64z"/>
					<path class="st7" d="M256.05,809.68c2.82-5.08,3.33-6,3.84-7.09c0.55-1.14,0.57-1.81-0.37-2.64c-0.22-0.21-0.76-0.55-1.06-0.71
						c-0.14-0.07-0.22-0.21-0.15-0.34c0.11-0.2,0.31-0.17,0.67,0.02c1.47,0.81,3.47,2.05,3.63,2.14c0.78,0.43,2.11,1.04,3.6,1.88
						c5.35,2.96,4.71,6.87,3.82,8.51c-1.48,2.67-3.9,3.42-6.31,4.18c2,2.09,3.94,6.19,1.83,10.01c-1.94,3.49-6.69,5.59-12.26,2.5
						c-0.36-0.2-1.37-0.85-2.3-1.4c-0.91-0.58-1.8-1.13-1.94-1.21c-0.06-0.04-0.62-0.35-1.32-0.7c-0.65-0.36-1.44-0.71-1.93-0.98
						c-0.36-0.2-0.48-0.36-0.37-0.55c0.05-0.1,0.17-0.16,0.37-0.05c0.3,0.16,0.72,0.31,1.06,0.41c0.72,0.24,1.28-0.4,1.94-1.27
						c0.92-1.28,2.35-3.85,4.09-6.99L256.05,809.68z M256.35,815.31c-1.39,2.51-3.63,6.56-3.87,7.06c-0.78,1.65-1.04,2.11-0.3,3.16
						c0.65,0.91,2.01,1.75,2.6,2.08c1.77,0.98,5.12,1.6,7.17-2.09c1.08-1.96,2-5.16,0.45-8.28c-0.7-1.37-1.45-1.91-2.19-2.45
						c-0.39-0.3-2.01-1.21-2.51-1.48c-0.12-0.07-0.24-0.05-0.32,0.12L256.35,815.31z M258.26,811.86c-0.12,0.22-0.1,0.34,0.02,0.48
						c0.17,0.14,0.71,0.56,1.91,1.23c1.83,1.01,2.32,1.19,3.44,0.8c1.12-0.4,2.26-1.31,3-2.65c1.5-2.71,1.9-6.28-1.29-8.05
						c-0.36-0.2-1.06-0.55-1.65-0.71c-0.34-0.1-0.48-0.05-0.58,0.14L258.26,811.86z"/>
					<path class="st7" d="M278.84,829.17c-2.37,4.95-3.27,7.16-2.96,8.05c0.27,0.8,1.04,1.45,3.67,2.71
						c1.78,0.86,3.28,1.53,4.55,0.94c0.7-0.32,1.43-1.01,1.84-1.6c0.16-0.25,0.31-0.39,0.51-0.29c0.17,0.07,0.14,0.24-0.04,0.6
						c-0.17,0.36-1.38,2.27-2.11,3.12c-0.61,0.66-0.77,0.75-2.55-0.11c-2.42-1.16-4.14-2.06-5.53-2.77
						c-1.38-0.75-2.41-1.28-3.38-1.74c-0.14-0.06-0.72-0.31-1.39-0.62c-0.68-0.29-1.44-0.61-1.95-0.86
						c-0.37-0.17-0.51-0.32-0.41-0.52c0.05-0.1,0.16-0.17,0.36-0.07c0.3,0.15,0.73,0.27,1.07,0.35c0.73,0.19,1.26-0.47,1.86-1.38
						c0.85-1.33,2.11-3.99,3.67-7.22l2.83-5.92c2.51-5.25,2.97-6.19,3.42-7.3c0.48-1.18,0.47-1.84-0.52-2.61
						c-0.24-0.2-0.8-0.51-1.09-0.65c-0.14-0.06-0.24-0.2-0.17-0.34c0.1-0.2,0.3-0.19,0.67,0c1.52,0.72,3.58,1.84,3.75,1.93
						c0.16,0.09,2.67,1.16,3.68,1.63c0.37,0.17,0.51,0.32,0.41,0.52c-0.06,0.14-0.24,0.14-0.36,0.07c-0.24-0.11-0.72-0.31-1.16-0.43
						c-1.06-0.3-1.6,0.15-2.23,1.29c-0.58,1.04-1.03,1.99-3.56,7.23L278.84,829.17z"/>
					<path class="st7" d="M299.99,838.59c-1.39,3.29-2.52,6.02-2.96,7.53c-0.31,1.04-0.42,1.88,0.55,2.45
						c0.45,0.27,1.18,0.66,1.49,0.78c0.21,0.09,0.24,0.22,0.19,0.32c-0.07,0.17-0.29,0.2-0.67,0.05c-1.89-0.8-4.02-1.81-4.19-1.88
						c-0.17-0.07-2.37-0.88-3.41-1.32c-0.37-0.16-0.52-0.3-0.44-0.51c0.05-0.1,0.15-0.17,0.36-0.09c0.31,0.12,0.75,0.24,1.09,0.3
						c0.75,0.15,1.23-0.53,1.79-1.47c0.78-1.37,1.91-4.09,3.31-7.38l2.55-6.05c2.25-5.36,2.66-6.33,3.06-7.46
						c0.42-1.19,0.32-1.93-0.36-2.41c-0.34-0.26-0.77-0.48-1.01-0.58c-0.14-0.06-0.25-0.19-0.19-0.32c0.09-0.21,0.29-0.2,0.67-0.05
						c1.13,0.47,3.26,1.49,3.43,1.57s2.39,0.88,3.41,1.32c0.37,0.16,0.52,0.3,0.44,0.51c-0.06,0.14-0.22,0.15-0.36,0.09
						c-0.24-0.1-0.46-0.15-0.91-0.26c-0.99-0.22-1.52,0.25-2.1,1.43c-0.53,1.07-0.93,2.04-3.19,7.4L299.99,838.59z"/>
					<path class="st7" d="M310.72,850.77c-2.32-4.26-1.75-8.56-0.57-11.91c0.83-2.35,3.1-6.18,7.33-8.2
						c2.86-1.37,6.64-1.88,12.05,0.04c1.4,0.5,3.34,1.31,4.95,2.22c1.24,0.72,2.3,1.33,3.39,1.8c0.37,0.17,0.4,0.34,0.32,0.55
						c-0.1,0.29-0.36,0.67-0.87,1.9c-0.48,1.13-1.17,3.07-1.39,3.58c-0.22,0.51-0.36,0.7-0.57,0.62c-0.25-0.09-0.2-0.35-0.02-0.83
						c0.48-1.37,0.44-3.01-0.21-4.1c-0.86-1.49-3.23-3.39-6.31-4.49c-4.67-1.65-7.33-1.06-8.99-0.3c-3.43,1.55-5.15,4.46-6.41,8.05
						c-2.37,6.71,0.61,14.69,8.13,17.35c2.64,0.93,4.82,1.35,6.74,0.41c1.01-0.51,2.01-1.9,2.35-2.5c0.21-0.36,0.32-0.47,0.53-0.4
						c0.17,0.06,0.16,0.34,0.06,0.61c-0.09,0.25-1.59,3.16-2.36,4.23c-0.45,0.6-0.55,0.63-1.28,0.7c-1.6,0.06-4.36-0.63-6.61-1.43
						C315.7,856.82,312.62,854.26,310.72,850.77z"/>
					<path class="st7" d="M369.47,842.19c8.17,1.89,13.08,8.47,11.11,16.93c-1.89,8.14-9.19,13.52-17.94,11.5
						c-9.96-2.31-12.29-11-10.79-17.54C353.23,847.19,359.44,839.87,369.47,842.19z M363.96,869.47
						c3.27,0.76,10.47,0.44,12.92-10.13c2.01-8.71-2.2-14.63-7.93-15.96c-6.07-1.4-11.54,1.54-13.38,9.5
						C353.59,861.32,357.42,867.95,363.96,869.47z"/>
					<path class="st7" d="M389.9,857.91c0.92-5.74,1.09-6.77,1.21-7.97c0.12-1.27-0.07-1.9-1.24-2.35
						c-0.29-0.12-0.91-0.26-1.23-0.31c-0.15-0.02-0.29-0.12-0.26-0.27c0.04-0.22,0.24-0.26,0.63-0.2c0.85,0.14,1.84,0.3,2.65,0.46
						l1.5,0.29c0.73,0.11,8.2,1.35,9.06,1.45c0.71,0.07,1.29,0.17,1.64,0.11c0.24-0.04,0.41-0.16,0.55-0.14
						c0.15,0.02,0.2,0.19,0.16,0.36c-0.04,0.26-0.3,0.67-0.57,1.68c-0.1,0.36-0.44,1.96-0.57,2.4c-0.06,0.17-0.17,0.39-0.36,0.36
						c-0.19-0.02-0.22-0.22-0.19-0.48c0.05-0.3,0.04-0.93-0.1-1.45c-0.15-0.51-0.88-1.32-2.31-1.58l-5.66-1.03
						c-0.22-0.04-0.35,0.06-0.4,0.35l-1.64,10.16c-0.04,0.22-0.01,0.34,0.2,0.37l4.72,0.72c0.62,0.1,1.14,0.19,1.67,0.24
						c0.89,0.07,1.39,0.04,1.8-0.39c0.17-0.16,0.31-0.32,0.46-0.3c0.15,0.02,0.16,0.14,0.14,0.32c-0.04,0.22-0.32,0.82-0.62,2.01
						c-0.19,0.72-0.5,2.19-0.55,2.45c-0.05,0.34-0.11,0.7-0.37,0.66c-0.19-0.02-0.24-0.19-0.2-0.37c0.02-0.37,0.06-0.89-0.01-1.35
						c-0.1-0.55-0.58-1.31-1.7-1.63c-0.91-0.26-4.91-0.91-5.54-1.01c-0.19-0.02-0.27,0.04-0.31,0.29l-0.51,3.13
						c-0.57,3.53-1.04,6.44-1.11,8.02c-0.06,1.08,0.02,1.93,1.11,2.26c0.51,0.16,1.31,0.36,1.63,0.41c0.22,0.04,0.27,0.16,0.26,0.27
						c-0.02,0.19-0.24,0.26-0.63,0.2c-2.03-0.32-4.33-0.81-4.51-0.85c-0.19-0.02-2.52-0.3-3.63-0.47c-0.41-0.06-0.57-0.17-0.55-0.39
						c0.01-0.11,0.11-0.21,0.34-0.17c0.34,0.05,0.78,0.05,1.13,0.02c0.76-0.02,1.07-0.81,1.39-1.85c0.44-1.52,0.91-4.43,1.47-7.96
						L389.9,857.91z"/>
					<path class="st7" d="M432.71,869.54c-0.25,3.57-0.45,6.51-0.37,8.08c0.04,1.08,0.2,1.91,1.31,2.15
						c0.52,0.11,1.33,0.24,1.67,0.26c0.22,0.01,0.29,0.14,0.29,0.25c-0.01,0.19-0.21,0.29-0.62,0.26c-2.04-0.14-4.38-0.41-4.56-0.42
						c-0.19-0.01-2.54-0.06-3.65-0.14c-0.41-0.02-0.58-0.11-0.57-0.34c0.01-0.11,0.09-0.22,0.31-0.2c0.34,0.02,0.78-0.02,1.13-0.07
						c0.76-0.1,0.99-0.91,1.22-1.98c0.3-1.55,0.5-4.49,0.75-8.05l1.08-15.74l-5.51-0.31c-2.31-0.12-3.22,0.07-3.88,0.93
						c-0.45,0.61-0.58,0.86-0.71,1.11c-0.14,0.29-0.25,0.36-0.4,0.35c-0.11-0.01-0.17-0.12-0.16-0.35c0.02-0.37,0.99-3.52,1.08-3.82
						c0.09-0.22,0.27-0.7,0.42-0.68c0.26,0.01,0.61,0.41,1.6,0.56c1.07,0.19,2.47,0.36,2.92,0.39l13.95,0.96
						c1.19,0.09,2.05,0.06,2.65,0c0.56-0.04,0.91-0.12,1.06-0.11c0.19,0.01,0.17,0.24,0.15,0.46c-0.07,1.12-0.36,3.68-0.4,4.09
						c-0.02,0.34-0.15,0.47-0.3,0.47c-0.19-0.01-0.25-0.12-0.25-0.66l-0.01-0.41c-0.04-1.12-0.87-2.04-4.44-2.36l-4.69-0.4
						L432.71,869.54z"/>
					<path class="st7" d="M474.61,870.22c0.06,3.58,0.1,6.53,0.32,8.09c0.12,1.08,0.36,1.9,1.49,2.03c0.52,0.06,1.34,0.12,1.68,0.12
						c0.22,0,0.3,0.11,0.3,0.22c0,0.19-0.19,0.3-0.6,0.31c-2.05,0.04-4.4-0.04-4.59-0.04c-0.19,0-2.54,0.15-3.65,0.17
						c-0.41,0.01-0.6-0.06-0.6-0.29c0-0.11,0.07-0.22,0.3-0.22c0.34,0,0.78-0.09,1.12-0.16c0.75-0.16,0.92-0.98,1.04-2.06
						c0.16-1.57,0.11-4.51,0.05-8.09l-0.06-3.92c0-0.15-0.11-0.22-0.22-0.22l-15.81,0.26c-0.11,0-0.22,0.04-0.22,0.22l0.06,3.92
						c0.06,3.58,0.1,6.53,0.32,8.09c0.12,1.08,0.36,1.9,1.49,2.03c0.52,0.06,1.34,0.12,1.68,0.12c0.22,0,0.3,0.11,0.3,0.22
						c0,0.19-0.19,0.3-0.6,0.31c-2.05,0.04-4.4-0.04-4.59-0.04c-0.19,0-2.54,0.15-3.65,0.17c-0.41,0.01-0.6-0.06-0.6-0.29
						c0-0.11,0.07-0.22,0.3-0.22c0.34,0,0.78-0.09,1.12-0.16c0.75-0.16,0.92-0.98,1.04-2.06c0.16-1.57,0.11-4.51,0.05-8.09
						l-0.11-6.56c-0.1-5.82-0.11-6.86-0.21-8.05c-0.1-1.27-0.4-1.86-1.64-2.1c-0.3-0.07-0.93-0.1-1.27-0.09
						c-0.15,0-0.3-0.07-0.3-0.22c0-0.22,0.19-0.3,0.6-0.3c1.68-0.02,4.03,0.05,4.21,0.05c0.19,0,2.54-0.15,3.65-0.17
						c0.41-0.01,0.6,0.06,0.6,0.29c0,0.15-0.15,0.22-0.3,0.22c-0.26,0-0.48,0.05-0.93,0.12c-1.01,0.2-1.29,0.85-1.34,2.15
						c-0.05,1.19-0.04,2.24,0.06,8.05l0.01,0.78c0,0.19,0.11,0.22,0.22,0.22l15.81-0.26c0.11,0,0.22-0.04,0.22-0.22l-0.01-0.78
						c-0.1-5.82-0.11-6.86-0.2-8.05c-0.1-1.27-0.4-1.86-1.64-2.1c-0.3-0.07-0.93-0.1-1.27-0.09c-0.15,0-0.3-0.07-0.3-0.22
						c0-0.22,0.17-0.3,0.58-0.3c1.68-0.02,4.03,0.05,4.21,0.05c0.19,0,2.54-0.15,3.65-0.17c0.41-0.01,0.6,0.06,0.6,0.29
						c0,0.15-0.15,0.22-0.3,0.22c-0.26,0-0.48,0.05-0.93,0.12c-1.01,0.2-1.29,0.85-1.34,2.15c-0.05,1.19-0.04,2.24,0.06,8.05
						L474.61,870.22z"/>
					<path class="st7" d="M488.62,862.89c-0.47-5.8-0.55-6.84-0.72-8.03c-0.17-1.26-0.52-1.83-1.77-1.99
						c-0.3-0.05-0.94-0.04-1.28-0.01c-0.15,0.01-0.3-0.05-0.31-0.2c-0.02-0.22,0.16-0.31,0.57-0.35c0.86-0.07,1.85-0.15,2.67-0.17
						l1.53-0.05c0.26-0.02,7.66-0.62,8.51-0.72c0.71-0.1,1.29-0.21,1.58-0.31c0.19-0.05,0.32-0.21,0.51-0.22
						c0.11-0.01,0.16,0.14,0.17,0.32c0.02,0.26-0.12,0.72-0.16,1.77c-0.01,0.37,0.05,2.01,0.01,2.47c-0.02,0.19-0.07,0.42-0.22,0.43
						c-0.22,0.01-0.31-0.16-0.34-0.46c-0.02-0.26-0.11-0.88-0.34-1.32c-0.31-0.57-0.72-0.99-2.75-1.06c-0.63-0.02-4.7,0.26-5.11,0.3
						c-0.15,0.01-0.21,0.12-0.19,0.39l0.82,10.26c0.02,0.26,0.06,0.37,0.26,0.35c0.48-0.04,5.06-0.41,5.9-0.55
						c0.88-0.15,1.4-0.26,1.7-0.66c0.24-0.32,0.37-0.52,0.52-0.53c0.11-0.01,0.19,0.06,0.21,0.29c0.02,0.22-0.11,0.87-0.12,2.1
						c-0.01,0.75,0.02,2.13,0.05,2.39c0.02,0.3,0.05,0.71-0.2,0.72c-0.19,0.01-0.27-0.12-0.29-0.31c-0.04-0.37-0.06-0.75-0.25-1.22
						c-0.19-0.51-0.57-1.12-2.04-1.14c-1.01-0.02-4.7,0.19-5.33,0.25c-0.19,0.01-0.25,0.14-0.24,0.29l0.26,3.27
						c0.1,1.27,0.41,5.58,0.51,6.35c0.32,2.56,0.92,3,4.56,2.7c0.97-0.07,2.6-0.21,3.53-0.7c0.93-0.48,1.32-1.27,1.45-2.81
						c0.04-0.41,0.1-0.57,0.29-0.58c0.22-0.01,0.25,0.27,0.26,0.53c0.02,0.3-0.06,2.85-0.19,3.64c-0.19,0.98-0.48,1.01-1.93,1.13
						c-2.78,0.22-4.84,0.31-6.29,0.4c-1.45,0.04-2.35,0.07-2.91,0.12c-0.07,0-0.71,0.06-1.48,0.16c-0.75,0.06-1.59,0.2-2.15,0.25
						c-0.41,0.04-0.6-0.02-0.62-0.25c-0.01-0.11,0.05-0.22,0.27-0.25c0.34-0.02,0.77-0.14,1.11-0.24c0.73-0.21,0.86-1.04,0.91-2.13
						c0.06-1.58-0.17-4.51-0.46-8.08L488.62,862.89z"/>
					<path class="st7" d="M524.67,858.8c-0.98-5.73-1.17-6.76-1.44-7.93c-0.29-1.24-0.68-1.78-1.94-1.83
						c-0.31-0.02-0.93,0.05-1.27,0.1c-0.15,0.02-0.31-0.02-0.34-0.17c-0.04-0.22,0.14-0.32,0.53-0.4c1.65-0.29,3.88-0.56,4.18-0.61
						c0.81-0.14,2.92-0.62,4.61-0.91c4.6-0.78,6.51,0.47,7.2,0.92c0.94,0.63,2.25,2.11,2.59,4.06c0.89,5.22-2.32,9.41-7.53,10.3
						c-0.19,0.04-0.58,0.1-0.78,0.1c-0.19,0.04-0.42,0-0.45-0.19c-0.05-0.3,0.16-0.37,0.93-0.5c3.57-0.61,5.9-3.7,5.33-7.09
						c-0.21-1.22-0.75-3.65-3.03-5.31c-2.29-1.65-4.5-1.12-5.35-0.97c-0.62,0.11-1.24,0.29-1.54,0.5c-0.21,0.11-0.24,0.39-0.17,0.75
						l2.6,15.1c0.61,3.53,1.11,6.44,1.55,7.94c0.3,1.04,0.66,1.81,1.78,1.78c0.52-0.01,1.34-0.07,1.68-0.14
						c0.22-0.04,0.31,0.06,0.34,0.17c0.04,0.19-0.14,0.32-0.53,0.4c-2.03,0.35-4.35,0.63-4.54,0.67c-0.11,0.01-2.41,0.52-3.51,0.72
						c-0.4,0.07-0.6,0.02-0.63-0.2c-0.02-0.11,0.04-0.24,0.26-0.27c0.34-0.06,0.76-0.21,1.08-0.34c0.71-0.27,0.76-1.12,0.72-2.2
						c-0.07-1.58-0.58-4.47-1.18-8.01L524.67,858.8z"/>
					<path class="st7" d="M572.05,855.34c0.87,3.47,1.58,6.33,2.14,7.81c0.37,1.02,0.78,1.77,1.9,1.64
						c0.52-0.05,1.34-0.17,1.67-0.26c0.21-0.05,0.31,0.04,0.35,0.15c0.05,0.19-0.11,0.34-0.51,0.43c-1.99,0.5-4.3,0.96-4.47,0.99
						c-0.19,0.05-2.44,0.72-3.52,0.99c-0.4,0.1-0.6,0.07-0.65-0.15c-0.02-0.11,0.02-0.24,0.24-0.29c0.32-0.09,0.75-0.26,1.04-0.41
						c0.68-0.32,0.67-1.17,0.56-2.25c-0.2-1.57-0.91-4.43-1.78-7.89l-0.94-3.8c-0.04-0.15-0.16-0.19-0.27-0.16l-15.34,3.82
						c-0.11,0.02-0.21,0.09-0.16,0.27l0.94,3.8c0.87,3.47,1.58,6.33,2.14,7.81c0.37,1.02,0.78,1.77,1.91,1.64
						c0.52-0.05,1.34-0.17,1.67-0.26c0.21-0.05,0.31,0.04,0.35,0.15c0.05,0.19-0.11,0.34-0.51,0.44c-1.99,0.5-4.3,0.96-4.47,0.99
						c-0.19,0.05-2.44,0.72-3.52,0.99c-0.4,0.1-0.6,0.07-0.65-0.15c-0.02-0.11,0.01-0.24,0.24-0.29c0.32-0.09,0.75-0.26,1.04-0.41
						c0.68-0.32,0.67-1.17,0.56-2.25c-0.2-1.57-0.91-4.43-1.78-7.89l-1.59-6.36c-1.4-5.64-1.65-6.66-2.01-7.79
						c-0.37-1.22-0.81-1.72-2.06-1.68c-0.31,0-0.93,0.11-1.26,0.2c-0.15,0.04-0.31,0-0.35-0.15c-0.05-0.21,0.11-0.34,0.51-0.44
						c1.63-0.41,3.94-0.87,4.11-0.91c0.19-0.05,2.44-0.72,3.52-0.98c0.4-0.1,0.6-0.07,0.65,0.15c0.04,0.15-0.09,0.25-0.24,0.29
						c-0.25,0.06-0.46,0.15-0.88,0.34c-0.93,0.42-1.07,1.11-0.82,2.4c0.21,1.18,0.47,2.19,1.88,7.83l0.19,0.76
						c0.05,0.19,0.16,0.19,0.27,0.16l15.34-3.82c0.11-0.02,0.21-0.09,0.16-0.27l-0.19-0.76c-1.4-5.64-1.65-6.66-2.01-7.79
						c-0.37-1.22-0.81-1.72-2.06-1.68c-0.31,0-0.93,0.11-1.26,0.2c-0.15,0.04-0.31,0-0.35-0.15c-0.05-0.21,0.11-0.34,0.51-0.44
						c1.63-0.41,3.94-0.87,4.11-0.91c0.17-0.05,2.44-0.72,3.52-0.98c0.4-0.1,0.6-0.07,0.66,0.15c0.04,0.15-0.09,0.25-0.24,0.29
						c-0.26,0.06-0.46,0.15-0.88,0.34c-0.93,0.42-1.07,1.11-0.82,2.4c0.21,1.18,0.47,2.19,1.88,7.83L572.05,855.34z"/>
					<path class="st7" d="M588.94,850.08c1.09,3.41,2,6.22,2.65,7.64c0.44,0.99,0.9,1.7,2.01,1.5c0.52-0.09,1.32-0.27,1.64-0.37
						c0.21-0.06,0.32,0.01,0.36,0.12c0.05,0.17-0.09,0.34-0.47,0.47c-1.95,0.62-4.23,1.24-4.4,1.29c-0.17,0.05-2.37,0.88-3.44,1.22
						c-0.39,0.12-0.58,0.11-0.66-0.1c-0.04-0.1,0-0.24,0.21-0.3c0.32-0.1,0.72-0.31,1.02-0.48c0.67-0.37,0.6-1.21,0.4-2.29
						c-0.3-1.55-1.21-4.35-2.3-7.76l-2-6.25c-1.78-5.54-2.1-6.54-2.54-7.64c-0.46-1.18-1.01-1.68-1.85-1.6
						c-0.42,0.01-0.9,0.14-1.14,0.21c-0.14,0.05-0.31,0.02-0.35-0.12c-0.06-0.21,0.09-0.34,0.47-0.47c1.17-0.37,3.44-0.98,3.62-1.04
						c0.17-0.06,2.37-0.88,3.44-1.22c0.39-0.12,0.58-0.11,0.66,0.1c0.05,0.14-0.07,0.26-0.21,0.31c-0.25,0.07-0.45,0.19-0.86,0.39
						c-0.9,0.48-0.99,1.18-0.66,2.45c0.3,1.16,0.61,2.15,2.39,7.69L588.94,850.08z"/>
					<path class="st7" d="M605.49,844.4c1.93,5.13,2.91,7.31,3.78,7.71c0.77,0.35,1.77,0.25,4.49-0.77c1.85-0.7,3.37-1.31,3.83-2.64
						c0.25-0.73,0.26-1.73,0.12-2.44c-0.06-0.3-0.06-0.5,0.15-0.57c0.17-0.06,0.26,0.06,0.41,0.45c0.15,0.39,0.68,2.57,0.78,3.69
						c0.06,0.89,0,1.07-1.84,1.77c-2.51,0.94-4.35,1.55-5.83,2.08c-1.49,0.48-2.59,0.86-3.6,1.23c-0.14,0.05-0.72,0.31-1.42,0.57
						c-0.68,0.3-1.44,0.62-1.96,0.82c-0.39,0.15-0.58,0.14-0.67-0.07c-0.04-0.1-0.01-0.24,0.2-0.31c0.31-0.11,0.71-0.35,0.99-0.53
						c0.65-0.4,0.53-1.23,0.29-2.3c-0.37-1.53-1.42-4.29-2.67-7.64l-2.31-6.14c-2.05-5.44-2.41-6.43-2.91-7.51
						c-0.52-1.16-1.01-1.62-2.25-1.43c-0.31,0.04-0.91,0.22-1.23,0.34c-0.14,0.05-0.31,0.04-0.36-0.1c-0.07-0.21,0.07-0.35,0.46-0.5
						c1.57-0.58,3.8-1.32,3.99-1.38c0.17-0.06,2.68-1.13,3.73-1.52c0.39-0.15,0.58-0.14,0.66,0.07c0.05,0.14-0.06,0.26-0.2,0.31
						c-0.25,0.09-0.72,0.31-1.12,0.53c-0.94,0.56-1.01,1.26-0.61,2.5c0.35,1.14,0.72,2.13,2.76,7.57L605.49,844.4z"/>
					<path class="st7" d="M626.91,835.65c1.42,3.28,2.6,5.99,3.38,7.35c0.53,0.94,1.07,1.62,2.15,1.31c0.51-0.14,1.29-0.4,1.6-0.53
						c0.2-0.09,0.32-0.01,0.36,0.09c0.07,0.17-0.05,0.35-0.44,0.51c-1.88,0.82-4.08,1.64-4.25,1.72s-2.29,1.11-3.31,1.55
						c-0.37,0.16-0.57,0.17-0.67-0.04c-0.05-0.1-0.02-0.24,0.19-0.32c0.31-0.14,0.68-0.39,0.97-0.58c0.62-0.43,0.47-1.26,0.17-2.31
						c-0.45-1.52-1.62-4.21-3.05-7.5l-2.61-6.02c-2.31-5.33-2.72-6.29-3.27-7.36c-0.57-1.13-1.17-1.57-1.99-1.42
						c-0.42,0.06-0.88,0.22-1.12,0.32c-0.14,0.06-0.3,0.05-0.36-0.09c-0.09-0.21,0.05-0.35,0.42-0.51c1.13-0.48,3.33-1.32,3.51-1.39
						s2.29-1.11,3.31-1.55c0.37-0.16,0.57-0.17,0.67,0.04c0.06,0.14-0.05,0.26-0.19,0.32c-0.24,0.1-0.43,0.22-0.81,0.47
						c-0.85,0.57-0.87,1.27-0.42,2.5c0.41,1.12,0.82,2.09,3.13,7.42L626.91,835.65z"/>
					<path class="st7" d="M637.09,823.8c-2.59-5.21-3.05-6.15-3.64-7.18c-0.63-1.11-1.17-1.5-2.39-1.19
						c-0.3,0.06-0.88,0.31-1.19,0.46c-0.14,0.06-0.3,0.06-0.36-0.06c-0.1-0.2,0.04-0.35,0.4-0.52c1.5-0.75,3.56-1.64,3.83-1.77
						c0.73-0.36,2.62-1.43,4.16-2.19c4.18-2.08,6.38-1.4,7.16-1.18c1.08,0.34,2.76,1.38,3.64,3.14c2.35,4.75,0.47,9.67-4.28,12.03
						c-0.16,0.09-0.53,0.26-0.72,0.31c-0.16,0.09-0.4,0.11-0.48-0.05c-0.14-0.26,0.05-0.4,0.76-0.75c3.24-1.6,4.61-5.23,3.08-8.32
						c-0.55-1.11-1.75-3.29-4.43-4.21c-2.66-0.93-4.64,0.21-5.41,0.6c-0.57,0.29-1.11,0.63-1.34,0.91
						c-0.16,0.16-0.12,0.43,0.05,0.77l6.8,13.74c1.59,3.21,2.9,5.85,3.77,7.17c0.58,0.92,1.14,1.55,2.21,1.19
						c0.5-0.16,1.27-0.46,1.57-0.61c0.2-0.1,0.32-0.04,0.36,0.06c0.09,0.16-0.04,0.35-0.4,0.53c-1.84,0.91-3.99,1.85-4.16,1.94
						c-0.1,0.05-2.15,1.19-3.16,1.69c-0.37,0.19-0.57,0.2-0.67,0c-0.05-0.1-0.04-0.24,0.16-0.34c0.3-0.15,0.67-0.41,0.93-0.63
						c0.6-0.46,0.41-1.28,0.06-2.32c-0.53-1.49-1.84-4.13-3.43-7.33L637.09,823.8z"/>
					<path class="st7" d="M658.59,812.7c-2.88-5.05-3.41-5.95-4.06-6.96c-0.7-1.07-1.24-1.43-2.45-1.06
						c-0.3,0.09-0.87,0.36-1.16,0.53c-0.12,0.07-0.3,0.09-0.37-0.05c-0.11-0.2,0.01-0.35,0.37-0.56c1.45-0.83,3.46-1.84,3.72-1.99
						c0.71-0.41,2.54-1.58,4.03-2.42c4.05-2.31,6.28-1.79,7.07-1.59c1.09,0.27,2.83,1.21,3.82,2.93c2.62,4.6,1.03,9.63-3.57,12.26
						c-0.16,0.1-0.52,0.3-0.7,0.36c-0.16,0.09-0.4,0.14-0.48-0.02c-0.15-0.26,0.02-0.4,0.71-0.8c3.14-1.79,4.29-5.49,2.59-8.48
						c-0.61-1.07-1.95-3.18-4.66-3.95c-2.71-0.77-4.61,0.48-5.36,0.92c-0.55,0.31-1.07,0.7-1.28,0.99
						c-0.16,0.17-0.09,0.44,0.09,0.76l7.61,13.31c1.78,3.11,3.23,5.67,4.18,6.94c0.63,0.88,1.23,1.48,2.27,1.06
						c0.48-0.2,1.24-0.53,1.53-0.71c0.2-0.11,0.31-0.05,0.37,0.05c0.09,0.16-0.01,0.35-0.37,0.56c-1.78,1.02-3.88,2.09-4.04,2.18
						c-0.1,0.05-2.08,1.32-3.06,1.88c-0.36,0.2-0.56,0.24-0.67,0.04c-0.05-0.1-0.05-0.24,0.15-0.35c0.29-0.16,0.65-0.45,0.89-0.68
						c0.57-0.5,0.32-1.31-0.07-2.31c-0.62-1.45-2.08-4.01-3.85-7.12L658.59,812.7z"/>
					<path class="st7" d="M685.48,804.22c1.93,3.02,3.52,5.49,4.51,6.72c0.67,0.85,1.31,1.42,2.32,0.94
						c0.48-0.22,1.22-0.6,1.49-0.78c0.19-0.12,0.31-0.06,0.37,0.02c0.1,0.16,0,0.35-0.35,0.57c-1.73,1.11-3.77,2.27-3.93,2.37
						c-0.16,0.1-2.08,1.45-3.02,2.06c-0.35,0.22-0.55,0.26-0.66,0.07c-0.06-0.1-0.06-0.22,0.14-0.35c0.29-0.19,0.62-0.48,0.86-0.73
						c0.55-0.52,0.26-1.32-0.19-2.31c-0.68-1.42-2.27-3.9-4.2-6.92l-3.53-5.53c-3.13-4.9-3.69-5.78-4.4-6.75
						c-0.75-1.03-1.4-1.37-2.19-1.08c-0.41,0.12-0.83,0.36-1.06,0.5c-0.12,0.07-0.29,0.1-0.37-0.02c-0.12-0.19,0-0.35,0.35-0.57
						c1.03-0.66,3.07-1.83,3.23-1.94c0.16-0.11,2.08-1.45,3.02-2.06c0.35-0.22,0.55-0.26,0.66-0.07c0.07,0.12,0,0.27-0.14,0.35
						c-0.22,0.14-0.39,0.3-0.72,0.6c-0.75,0.7-0.66,1.39-0.02,2.54c0.58,1.04,1.14,1.93,4.28,6.82L685.48,804.22z"/>
					<path class="st7" d="M701.89,800.27c1.86,2.42,2.75,2.98,3.73,2.62c0.68-0.27,1.37-0.72,1.63-0.92c0.15-0.11,0.29-0.11,0.37,0
						c0.14,0.17,0,0.37-0.36,0.63c-1.72,1.26-2.98,2.05-3.26,2.25s-1.47,1.22-2.82,2.21c-0.3,0.22-0.5,0.32-0.66,0.11
						c-0.09-0.12-0.05-0.25,0.11-0.36c0.24-0.17,0.76-0.61,1.09-1.08c0.6-0.76,0.11-1.74-1.9-4.47l-12.62-17.24
						c-0.86-1.17-1.02-1.57-0.77-1.74c0.24-0.17,1.24,0.11,1.75,0.19c0.83,0.17,8.86,1.73,17.13,3.28
						c5.32,0.99,11.29,2.26,12.98,2.55l-11.55-15.02c-1.47-1.93-2.16-2.44-3.27-1.99c-0.63,0.27-1.34,0.76-1.58,0.93
						c-0.21,0.15-0.31,0.09-0.4-0.04c-0.14-0.19,0.09-0.39,0.45-0.66c1.35-0.99,2.86-1.96,3.19-2.21c0.34-0.25,1.26-1.06,2.49-1.96
						c0.34-0.25,0.56-0.36,0.7-0.19c0.09,0.12,0.04,0.3-0.17,0.46c-0.15,0.11-0.36,0.26-0.66,0.62c-0.83,0.94-0.47,1.69,0.86,3.49
						l12.88,17.65c1.45,1.99,1.5,2.18,1.29,2.34c-0.24,0.17-0.85,0.11-3.6-0.31c-0.55-0.06-8.13-1.29-13.82-2.39
						c-6.25-1.19-12.42-2.49-14.18-2.86L701.89,800.27z"/>
					<path class="st7" d="M722.53,768.9c-3.78-4.43-4.45-5.22-5.28-6.08c-0.88-0.92-1.49-1.18-2.6-0.57
						c-0.27,0.14-0.78,0.52-1.04,0.73c-0.11,0.1-0.27,0.14-0.37,0.02c-0.15-0.17-0.05-0.35,0.26-0.61c0.66-0.56,1.42-1.21,2.06-1.72
						l1.21-0.93c0.2-0.17,5.84-4.98,6.48-5.57c0.51-0.48,0.92-0.93,1.09-1.18c0.12-0.15,0.14-0.36,0.27-0.48
						c0.09-0.07,0.21,0.01,0.34,0.16c0.17,0.2,0.32,0.66,0.91,1.53c0.21,0.31,1.22,1.6,1.45,1.99c0.09,0.16,0.17,0.39,0.06,0.48
						c-0.17,0.15-0.35,0.05-0.55-0.17c-0.17-0.2-0.61-0.66-1.04-0.88c-0.58-0.29-1.16-0.39-2.83,0.76
						c-0.53,0.36-3.65,2.96-3.97,3.23c-0.11,0.1-0.1,0.24,0.07,0.42l6.69,7.83c0.17,0.2,0.27,0.26,0.41,0.14
						c0.36-0.31,3.85-3.29,4.46-3.9c0.63-0.63,0.98-1.03,0.99-1.53c0-0.4,0-0.63,0.11-0.73c0.09-0.07,0.19-0.06,0.34,0.1
						c0.15,0.17,0.41,0.77,1.13,1.78c0.42,0.62,1.27,1.72,1.44,1.91c0.19,0.22,0.46,0.53,0.26,0.71c-0.14,0.12-0.3,0.05-0.41-0.09
						c-0.25-0.29-0.48-0.57-0.91-0.83c-0.45-0.3-1.12-0.57-2.32,0.26c-0.83,0.57-3.69,2.91-4.18,3.32
						c-0.14,0.12-0.12,0.25-0.02,0.37l2.13,2.5c0.82,0.97,3.6,4.28,4.14,4.85c1.75,1.89,2.5,1.89,5.27-0.48
						c0.73-0.63,1.99-1.69,2.46-2.64c0.47-0.94,0.32-1.8-0.47-3.13c-0.21-0.36-0.25-0.52-0.11-0.65c0.17-0.15,0.36,0.09,0.53,0.29
						c0.2,0.22,1.62,2.35,1.98,3.07c0.44,0.91,0.2,1.11-0.91,2.04c-2.13,1.81-3.74,3.1-4.87,4c-1.16,0.88-1.86,1.44-2.29,1.8
						c-0.05,0.05-0.53,0.46-1.11,0.99c-0.57,0.48-1.17,1.09-1.6,1.45c-0.31,0.26-0.5,0.34-0.65,0.16c-0.07-0.09-0.09-0.22,0.09-0.36
						c0.26-0.21,0.55-0.56,0.76-0.85c0.47-0.6,0.07-1.34-0.51-2.26c-0.87-1.32-2.78-3.56-5.11-6.28L722.53,768.9z"/>
					<path class="st7" d="M750.12,767.18c-0.56,0.17-0.68,0.09-1.38-0.63c-1.29-1.35-2.21-2.54-2.6-3c-0.26-0.32-0.34-0.51-0.2-0.63
						c0.16-0.15,0.26-0.1,0.47,0.11c0.24,0.25,0.58,0.62,1.03,0.92c2.31,1.62,4.81,0.67,6.63-1.06c2.59-2.47,2.09-5.54,0.44-7.27
						c-1.78-1.86-3.59-2.2-7.73-1.9l-2.16,0.16c-5.1,0.39-7.35-0.67-9.09-2.51c-2.76-2.88-2.47-6.91,0.96-10.18
						c1.06-1.01,1.94-1.64,2.76-2.13c0.62-0.39,0.86-0.56,1.08-0.77c0.21-0.21,0.32-0.2,0.45-0.07s0.87,1.13,2.62,2.96
						c0.41,0.44,0.53,0.67,0.4,0.8c-0.16,0.15-0.32,0.05-0.55-0.15c-0.34-0.3-1.19-0.87-1.64-1.02c-0.45-0.14-2.25-0.58-4.74,1.79
						c-1.86,1.78-2.21,4.33-0.34,6.3c1.47,1.54,3.1,1.84,7.62,1.39l1.32-0.12c5.58-0.52,7.93,0.42,9.99,2.59
						c1.06,1.11,2.59,3.57,1.98,6.66c-0.39,1.91-1.54,3.63-3,5.02C753.15,765.66,751.73,766.67,750.12,767.18z"/>
				</g>
			</g>
		</g>
	</g>
</g>
</svg>
