<?xml version="1.0" encoding="utf-8"?>
<!-- Generator: Adobe Adobe Illustrator 24.2.0, SVG Export Plug-In . SVG Version: 6.00 Build 0)  -->
<svg version="1.1" id="Layer_1" xmlns="http://www.w3.org/2000/svg" xmlns:xlink="http://www.w3.org/1999/xlink" x="0px" y="0px"
	 viewBox="0 0 612 242.39" style="enable-background:new 0 0 612 242.39;" xml:space="preserve">
<style type="text/css">
	.st0{fill:#0071BC;}
	.st1{fill:url(#SVGID_1_);}
	.st2{fill:url(#SVGID_2_);}
	.st3{fill:url(#SVGID_3_);}
	.st4{fill:url(#SVGID_4_);}
	.st5{fill:url(#SVGID_5_);}
	.st6{fill:url(#SVGID_6_);}
	.st7{font-family:'ProximaNova-Regular';}
	.st8{font-size:29.3986px;}
	.st9{letter-spacing:2;}
	.st10{font-family:'MyriadPro-Regular';}
	.st11{fill:#0A57A3;}
	.st12{font-family:'ProximaNova-Light';}
	.st13{font-size:90.3402px;}
	.st14{letter-spacing:6;}
</style>
<g>
	<g>
		
			<radialGradient id="SVGID_1_" cx="231.4301" cy="144.0866" r="74.8923" gradientTransform="matrix(1.0157 0 0 1.6934 -121.6357 -183.0837)" gradientUnits="userSpaceOnUse">
			<stop  offset="0" style="stop-color:#F1A81E"/>
			<stop  offset="0.2797" style="stop-color:#EFA61E"/>
			<stop  offset="0.4195" style="stop-color:#E7A11D"/>
			<stop  offset="0.5282" style="stop-color:#DA981B"/>
			<stop  offset="0.621" style="stop-color:#C78B19"/>
			<stop  offset="0.7036" style="stop-color:#AF7A16"/>
			<stop  offset="0.779" style="stop-color:#916512"/>
			<stop  offset="0.8489" style="stop-color:#6D4C0E"/>
			<stop  offset="0.9145" style="stop-color:#432F08"/>
			<stop  offset="0.9744" style="stop-color:#160F03"/>
			<stop  offset="1" style="stop-color:#000000"/>
		</radialGradient>
		<path class="st1" d="M90.21,100.02c-11.83,17.62,14.77-46.95,14.82-47.09c0,0,0,0,0,0c2.97-5.34,10.09-6.63,14.74-2.65
			c0,0,59.71,96.85,47.47,81.99C111.44,64.48,119.97,55.7,90.21,100.02z M112.85,45.37c3.98,0,7.21-3.23,7.21-7.21
			s-3.23-7.21-7.21-7.21c-3.98,0-7.21,3.23-7.21,7.21S108.87,45.37,112.85,45.37z"/>
		
			<radialGradient id="SVGID_2_" cx="172.8657" cy="224.0243" r="78.6458" gradientTransform="matrix(1.0157 0 0 1.6622 -121.6357 -215.1956)" gradientUnits="userSpaceOnUse">
			<stop  offset="0" style="stop-color:#0A56A2"/>
			<stop  offset="0.2195" style="stop-color:#0A549F"/>
			<stop  offset="0.3772" style="stop-color:#095096"/>
			<stop  offset="0.5156" style="stop-color:#084786"/>
			<stop  offset="0.643" style="stop-color:#073B70"/>
			<stop  offset="0.7627" style="stop-color:#052C53"/>
			<stop  offset="0.8768" style="stop-color:#031930"/>
			<stop  offset="0.9843" style="stop-color:#000407"/>
			<stop  offset="1" style="stop-color:#000000"/>
		</radialGradient>
		<path class="st2" d="M101.9,156.93c21.18,1.44-48.05,10.69-48.2,10.71c0,0,0,0,0,0c-6.11,0.1-10.78-5.43-9.66-11.44
			c0,0,54.02-100.13,47.27-82.11C60.51,156.31,48.64,153.31,101.9,156.93z M37.85,176.31c3.98,0,7.21-3.23,7.21-7.21
			c0-3.98-3.23-7.21-7.21-7.21s-7.21,3.23-7.21,7.21C30.63,173.08,33.86,176.31,37.85,176.31z"/>
		
			<radialGradient id="SVGID_3_" cx="281.8474" cy="220.2684" r="74.425" gradientTransform="matrix(1.0157 0 0 1.4773 -121.6357 -166.7189)" gradientUnits="userSpaceOnUse">
			<stop  offset="0" style="stop-color:#C3435D"/>
			<stop  offset="0.1985" style="stop-color:#C0425C"/>
			<stop  offset="0.3453" style="stop-color:#B73F57"/>
			<stop  offset="0.4755" style="stop-color:#A7394F"/>
			<stop  offset="0.5961" style="stop-color:#903145"/>
			<stop  offset="0.71" style="stop-color:#732737"/>
			<stop  offset="0.819" style="stop-color:#4F1B26"/>
			<stop  offset="0.922" style="stop-color:#250D12"/>
			<stop  offset="1" style="stop-color:#000000"/>
		</radialGradient>
		<path class="st3" d="M145.34,118.35c-9.34-19.06,33.28,36.27,33.37,36.38c0,0,0,0,0,0c3.14,5.24,0.69,12.05-5.07,14.09
			c0,0-113.73,3.28-94.74,0.12C165.51,154.5,168.85,166.28,145.34,118.35z M187.74,176.31c3.98,0,7.21-3.23,7.21-7.21
			c0-3.98-3.23-7.21-7.21-7.21s-7.21,3.23-7.21,7.21C180.53,173.08,183.76,176.31,187.74,176.31z"/>
	</g>
	<text transform="matrix(1 0 0 1 29.8765 213.0249)"><tspan x="0" y="0" class="st7 st8 st9">Reinforcing M</tspan><tspan x="204.05" y="0" class="st10 st8 st9">&amp;E for Impactful Growth</tspan></text>
	<text transform="matrix(1 0 0 1 197.0767 172.375)" class="st11 st12 st13 st9">CHANGE</text>
	<text transform="matrix(1 0 0 1 164.9361 93.3979)" class="st11 st12 st13 st14">SHAPING</text>
</g>
</svg>
