<?xml version="1.0" encoding="utf-8"?>
<!-- Generator: Adobe Adobe Illustrator 24.2.0, SVG Export Plug-In . SVG Version: 6.00 Build 0)  -->
<svg version="1.1" id="Layer_1" xmlns="http://www.w3.org/2000/svg" xmlns:xlink="http://www.w3.org/1999/xlink" x="0px" y="0px"
	 viewBox="0 0 698 240" style="enable-background:new 0 0 698 240;" xml:space="preserve">
<style type="text/css">
	.st0{fill:#0A57A3;}
	.st1{fill:#0071BC;}
	.st2{fill:url(#SVGID_1_);}
	.st3{fill:url(#SVGID_2_);}
	.st4{fill:url(#SVGID_3_);}
	.st5{fill:url(#SVGID_4_);}
	.st6{fill:url(#SVGID_5_);}
	.st7{fill:url(#SVGID_6_);}
	.st8{fill:none;}
</style>
<g>
	<g>
		<path class="st0" d="M8.94,122.4c0-32.89,22.96-55.35,51.77-55.35c16.64,0,28.97,7.54,37.75,18.93l-7.4,4.97
			c-6.47-9.31-17.72-15.56-30.35-15.56c-23.88,0-42.53,19.09-42.53,47.01c0,27.6,18.64,47.01,42.53,47.01
			c12.63,0,23.88-6.26,30.35-15.56l7.4,4.81c-9.09,11.71-21.11,19.09-37.75,19.09C31.9,177.75,8.94,155.29,8.94,122.4z"/>
		<path class="st0" d="M194.15,175.83v-50.86h-65.18v50.86h-8.78V68.81h8.78v47.81h65.18V68.81h8.94v107.02H194.15z"/>
	</g>
	<g>
		<path class="st0" d="M472.05,175.84l-61.38-87.66v87.66h-8.33V74.33h8.48l61.09,86.44V74.33h8.33v101.51H472.05z"/>
		<path class="st0" d="M553.89,72.65c16.08,0,27.77,6.7,36.68,17.35l-6.29,4.72c-6.87-8.52-17.98-14.15-30.4-14.15
			c-22.95,0-40.63,18.11-40.63,44.59c0,26.18,17.68,44.74,40.63,44.74c13.01,0,23.24-6.7,28.65-12.33v-24.35h-36.83v-7.76h45.16
			v35.46c-8.62,10.04-21.63,16.89-36.98,16.89c-27.33,0-49.4-21.31-49.4-52.66S526.56,72.65,553.89,72.65z"/>
		<path class="st0" d="M615.71,175.84V74.33h61.82v7.91h-53.49v37.59h52.47v7.91h-52.47v40.18h53.49v7.91H615.71z"/>
	</g>
	<g>
		<path class="st0" d="M96.83,44.19c1.91,2.19,5.04,4.24,9.13,4.24c5.17,0,6.83-2.86,6.83-5.13c0-3.57-3.52-4.55-7.35-5.63
			c-4.65-1.25-9.83-2.59-9.83-8.44c0-4.91,4.26-8.26,9.96-8.26c4.44,0,7.87,1.52,10.31,4.15l-2.17,2.72
			c-2.17-2.46-5.22-3.57-8.39-3.57c-3.48,0-5.96,1.92-5.96,4.73c0,2.99,3.35,3.88,7.04,4.91c4.74,1.29,10.13,2.81,10.13,9.06
			c0,4.33-2.87,8.75-10.7,8.75c-5.04,0-8.74-1.96-11.13-4.73L96.83,44.19z"/>
		<path class="st0" d="M212.73,51.2V37.54h-16.96V51.2h-3.61V21.42h3.61v12.81h16.96V21.42h3.61V51.2H212.73z"/>
		<path class="st0" d="M374.8,51.2V21.42h11.66c5.83,0,9.09,4.11,9.09,8.97s-3.35,8.97-9.09,8.97h-8.04V51.2H374.8z M386.02,24.72
			h-7.61v11.34h7.61c3.44,0,5.78-2.32,5.78-5.67S389.46,24.72,386.02,24.72z"/>
		<path class="st0" d="M470.56,51.2V21.42h3.61V51.2H470.56z"/>
		<path class="st0" d="M571.71,51.2L554.8,27.18V51.2h-3.61V21.42h3.7l16.7,23.53V21.42h3.61V51.2H571.71z"/>
		<path class="st0" d="M665.95,20.93c5.13,0,8.7,2.32,11.26,5.58l-2.87,1.83c-1.83-2.41-4.91-4.11-8.39-4.11
			c-6.35,0-11.18,5-11.18,12.1c0,7.05,4.83,12.14,11.18,12.14c3.48,0,6.35-1.74,7.78-3.21v-6.07h-9.96v-3.3h13.57v10.76
			c-2.7,3.08-6.65,5.13-11.39,5.13c-8.26,0-14.92-6.21-14.92-15.45C651.04,27.09,657.69,20.93,665.95,20.93z"/>
	</g>
	<g>
		<path d="M29.62,220.14l-6.17-9.88h-4.83v9.88h-3.01v-24.86h9.73c4.43,0,7.59,2.91,7.59,7.49c0,4.47-2.98,6.93-6.28,7.23
			l6.54,10.14H29.62z M24.98,198.03h-6.36v9.51h6.36c2.87,0,4.83-1.98,4.83-4.77S27.85,198.03,24.98,198.03z"/>
		<path d="M46.62,201.68c5.3,0,8.43,4.25,8.43,9.65v0.71h-14.2c0.22,3.39,2.54,6.22,6.32,6.22c2,0,4.03-0.82,5.41-2.27l1.31,1.83
			c-1.74,1.79-4.1,2.76-6.97,2.76c-5.19,0-8.93-3.84-8.93-9.47C37.98,205.9,41.61,201.68,46.62,201.68z M40.85,210h11.51
			c-0.04-2.68-1.78-6-5.78-6C42.84,204,40.99,207.24,40.85,210z"/>
		<path d="M61.47,197.21c0-1.04,0.84-1.86,1.82-1.86c1.02,0,1.85,0.82,1.85,1.86s-0.84,1.9-1.85,1.9
			C62.31,199.11,61.47,198.25,61.47,197.21z M61.94,220.14v-18h2.72v18H61.94z"/>
		<path d="M84.46,220.14v-11.78c0-3.17-1.56-4.18-3.92-4.18c-2.14,0-4.18,1.34-5.19,2.8v13.16h-2.72v-18h2.72v2.61
			c1.23-1.49,3.63-3.06,6.25-3.06c3.67,0,5.59,1.9,5.59,5.82v12.64H84.46z"/>
		<path d="M98.62,204.59v15.54H95.9v-15.54h-2.91v-2.46h2.91v-1.38c0-3.73,2.03-5.85,5.08-5.85c1.02,0,1.96,0.19,2.65,0.63
			l-0.69,2.09c-0.44-0.26-0.95-0.41-1.56-0.41c-1.78,0-2.76,1.27-2.76,3.54v1.38h3.56v2.46H98.62z"/>
		<path d="M106.9,211.12c0-5.22,3.34-9.43,8.68-9.43s8.68,4.21,8.68,9.43s-3.34,9.47-8.68,9.47S106.9,216.33,106.9,211.12z
			 M121.39,211.12c0-3.65-2.07-6.93-5.81-6.93s-5.85,3.28-5.85,6.93c0,3.69,2.11,6.97,5.85,6.97S121.39,214.81,121.39,211.12z"/>
		<path d="M131.19,220.14v-18h2.72v2.91c1.42-1.9,3.45-3.28,5.85-3.28v2.87c-0.33-0.07-0.65-0.11-1.09-0.11
			c-1.67,0-3.96,1.42-4.76,2.87v12.75H131.19z"/>
		<path d="M153.42,201.68c3.2,0,5.08,1.34,6.43,3.13l-1.81,1.71c-1.16-1.64-2.65-2.35-4.47-2.35c-3.74,0-6.07,2.95-6.07,6.93
			c0,3.99,2.32,6.97,6.07,6.97c1.81,0,3.3-0.75,4.47-2.35l1.81,1.71c-1.34,1.79-3.23,3.13-6.43,3.13c-5.23,0-8.75-4.1-8.75-9.47
			C144.66,205.79,148.19,201.68,153.42,201.68z"/>
		<path d="M165.69,197.21c0-1.04,0.84-1.86,1.82-1.86c1.02,0,1.85,0.82,1.85,1.86s-0.84,1.9-1.85,1.9
			C166.53,199.11,165.69,198.25,165.69,197.21z M166.16,220.14v-18h2.72v18H166.16z"/>
		<path d="M188.68,220.14v-11.78c0-3.17-1.56-4.18-3.92-4.18c-2.14,0-4.18,1.34-5.19,2.8v13.16h-2.72v-18h2.72v2.61
			c1.23-1.49,3.63-3.06,6.25-3.06c3.67,0,5.59,1.9,5.59,5.82v12.64H188.68z"/>
		<path d="M200.7,222.67c1.45,1.79,3.2,2.46,5.7,2.46c2.91,0,5.63-1.45,5.63-5.41v-2.57c-1.27,1.83-3.41,3.21-5.88,3.21
			c-4.58,0-7.81-3.5-7.81-9.32c0-5.78,3.2-9.36,7.81-9.36c2.36,0,4.47,1.19,5.88,3.17v-2.72h2.72v17.48c0,5.96-4.07,7.83-8.35,7.83
			c-2.98,0-5.01-0.6-7.08-2.68L200.7,222.67z M212.03,207.09c-0.94-1.57-3.05-2.91-5.23-2.91c-3.52,0-5.63,2.87-5.63,6.86
			c0,3.95,2.11,6.86,5.63,6.86c2.18,0,4.29-1.38,5.23-2.95V207.09z"/>
		<path d="M255.38,220.14v-20.69l-8.24,20.69h-1.23l-8.21-20.69v20.69h-3.01v-24.86h4.32l7.52,18.94l7.55-18.94h4.32v24.86H255.38z"
			/>
		<path d="M281.82,220.14c-0.69-0.71-1.34-1.42-2.29-2.46c-2.11,2.01-4.47,2.87-7.15,2.87c-4.76,0-7.52-3.28-7.52-7.05
			c0-3.43,2-5.78,4.79-7.34v-0.11c-1.27-1.64-2.04-3.47-2.04-5.26c0-3.06,2.14-6.19,6.21-6.19c3.05,0,5.41,2.09,5.41,5.33
			c0,2.65-1.49,4.73-5.38,6.71v0.11c2.07,2.46,4.39,5.22,5.96,7.01c1.12-1.75,1.89-4.18,2.36-7.34h2.91
			c-0.65,3.95-1.71,7.08-3.52,9.28c1.31,1.42,2.58,2.83,4.03,4.44H281.82z M277.97,215.81c-1.45-1.64-4.18-4.7-6.9-7.9
			c-1.31,0.86-3.16,2.46-3.16,5.11c0,2.87,2.07,5.07,5.01,5.07C275.03,218.09,276.81,217.12,277.97,215.81z M270.53,200.49
			c0,1.79,0.8,3.17,1.85,4.51c2.47-1.45,4.07-2.8,4.07-4.92c0-1.53-0.84-3.24-2.83-3.24C271.58,196.84,270.53,198.55,270.53,200.49z
			"/>
		<path d="M303.65,208.36h-9.52v9.06h10.6v2.72h-13.76v-25.12h13.22v2.72h-10.06v7.94h9.52V208.36z"/>
		<path d="M321.76,220.14v-15.54h-2.47v-2.5h2.47v-0.86c0-2.54,0.54-4.85,2.04-6.3c1.2-1.19,2.79-1.68,4.29-1.68
			c1.12,0,2.11,0.26,2.72,0.52l-0.44,2.53c-0.47-0.22-1.12-0.41-2.03-0.41c-2.72,0-3.41,2.46-3.41,5.22v0.97h4.25v2.5h-4.25v15.54
			H321.76z"/>
		<path d="M349.98,210.97c0,6.67-4.5,9.58-8.75,9.58c-4.76,0-8.43-3.58-8.43-9.28c0-6.04,3.85-9.58,8.71-9.58
			C346.57,201.68,349.98,205.45,349.98,210.97z M336.04,211.15c0,3.95,2.21,6.93,5.34,6.93c3.05,0,5.34-2.95,5.34-7.01
			c0-3.06-1.49-6.93-5.27-6.93S336.04,207.72,336.04,211.15z"/>
		<path d="M356.52,207.72c0-2.12-0.04-3.95-0.15-5.63h2.8l0.11,3.54h0.14c0.8-2.42,2.72-3.95,4.87-3.95c0.36,0,0.62,0.04,0.91,0.11
			v3.09c-0.33-0.08-0.65-0.11-1.09-0.11c-2.25,0-3.85,1.75-4.29,4.21c-0.07,0.45-0.15,0.97-0.15,1.53v9.62h-3.16V207.72z"/>
		<path d="M384.37,195.01v25.12h-3.16v-25.12H384.37z"/>
		<path d="M392.65,206.98c0-1.86-0.04-3.39-0.14-4.88h2.79l0.15,2.91h0.11c0.98-1.71,2.61-3.32,5.52-3.32c2.4,0,4.21,1.49,4.97,3.62
			h0.07c0.54-1.01,1.24-1.79,1.96-2.35c1.05-0.82,2.22-1.27,3.89-1.27c2.32,0,5.77,1.57,5.77,7.83v10.62h-3.12v-10.21
			c0-3.47-1.23-5.55-3.81-5.55c-1.82,0-3.23,1.38-3.78,2.98c-0.14,0.45-0.25,1.04-0.25,1.64v11.15h-3.12v-10.81
			c0-2.87-1.23-4.96-3.67-4.96c-2,0-3.45,1.64-3.96,3.28c-0.18,0.49-0.25,1.04-0.25,1.6v10.88h-3.12V206.98z"/>
		<path d="M425.44,207.98c0-2.31-0.07-4.17-0.14-5.89h2.87l0.14,3.09h0.07c1.31-2.2,3.38-3.5,6.25-3.5c4.25,0,7.45,3.69,7.45,9.17
			c0,6.49-3.85,9.69-7.99,9.69c-2.32,0-4.36-1.04-5.41-2.83h-0.07v9.8h-3.16V207.98z M428.6,212.79c0,0.48,0.07,0.93,0.14,1.34
			c0.58,2.27,2.51,3.84,4.79,3.84c3.38,0,5.34-2.83,5.34-6.97c0-3.62-1.85-6.71-5.23-6.71c-2.18,0-4.21,1.6-4.83,4.06
			c-0.11,0.41-0.22,0.89-0.22,1.34V212.79z"/>
		<path d="M458.34,220.14l-0.25-2.27h-0.11c-0.98,1.42-2.87,2.68-5.38,2.68c-3.56,0-5.37-2.57-5.37-5.18
			c0-4.36,3.78-6.75,10.57-6.71v-0.37c0-1.49-0.4-4.17-3.99-4.17c-1.63,0-3.34,0.52-4.58,1.34l-0.73-2.16
			c1.45-0.97,3.56-1.6,5.78-1.6c5.38,0,6.68,3.76,6.68,7.38v6.75c0,1.57,0.07,3.09,0.29,4.32H458.34z M457.87,210.93
			c-3.49-0.08-7.44,0.56-7.44,4.06c0,2.12,1.38,3.13,3.01,3.13c2.29,0,3.74-1.49,4.25-3.02c0.11-0.34,0.18-0.71,0.18-1.04V210.93z"
			/>
		<path d="M481.14,219.47c-0.83,0.45-2.69,1.04-5.05,1.04c-5.3,0-8.75-3.69-8.75-9.21c0-5.55,3.7-9.58,9.44-9.58
			c1.89,0,3.56,0.48,4.43,0.93l-0.73,2.54c-0.76-0.45-1.96-0.86-3.71-0.86c-4.03,0-6.21,3.06-6.21,6.82c0,4.17,2.61,6.75,6.1,6.75
			c1.82,0,3.02-0.49,3.92-0.89L481.14,219.47z"/>
		<path d="M491.71,196.91v5.18h4.57v2.5h-4.57v9.73c0,2.24,0.62,3.5,2.4,3.5c0.83,0,1.45-0.11,1.85-0.22l0.14,2.46
			c-0.62,0.26-1.6,0.45-2.83,0.45c-1.49,0-2.69-0.49-3.45-1.38c-0.91-0.97-1.24-2.57-1.24-4.7v-9.84h-2.72v-2.5h2.72v-4.32
			L491.71,196.91z"/>
		<path d="M502.71,220.14v-15.54h-2.47v-2.5h2.47v-0.86c0-2.54,0.54-4.85,2.03-6.3c1.2-1.19,2.8-1.68,4.29-1.68
			c1.13,0,2.11,0.26,2.72,0.52l-0.44,2.53c-0.47-0.22-1.13-0.41-2.04-0.41c-2.72,0-3.41,2.46-3.41,5.22v0.97h4.25v2.5h-4.25v15.54
			H502.71z"/>
		<path d="M530.21,215.22c0,1.86,0.04,3.5,0.14,4.92h-2.83l-0.18-2.95h-0.07c-0.83,1.45-2.69,3.36-5.81,3.36
			c-2.76,0-6.06-1.57-6.06-7.9v-10.55h3.2v9.99c0,3.43,1.02,5.74,3.92,5.74c2.14,0,3.63-1.53,4.21-2.98
			c0.18-0.49,0.29-1.08,0.29-1.68v-11.07h3.2V215.22z"/>
		<path d="M538.01,193.67h3.2v26.47h-3.2V193.67z"/>
		<path d="M578.03,219.02c-1.42,0.52-4.21,1.38-7.52,1.38c-3.71,0-6.75-0.97-9.15-3.32c-2.11-2.09-3.41-5.44-3.41-9.36
			c0.04-7.49,5.05-12.97,13.25-12.97c2.83,0,5.05,0.63,6.1,1.16l-0.76,2.65c-1.31-0.6-2.94-1.08-5.41-1.08
			c-5.96,0-9.84,3.8-9.84,10.1c0,6.37,3.74,10.14,9.44,10.14c2.07,0,3.49-0.3,4.21-0.67v-7.49h-4.97v-2.61h8.06V219.02z"/>
		<path d="M585.25,207.72c0-2.12-0.04-3.95-0.14-5.63h2.79l0.11,3.54h0.15c0.8-2.42,2.72-3.95,4.87-3.95c0.36,0,0.62,0.04,0.91,0.11
			v3.09c-0.33-0.08-0.65-0.11-1.09-0.11c-2.25,0-3.85,1.75-4.29,4.21c-0.07,0.45-0.14,0.97-0.14,1.53v9.62h-3.16V207.72z"/>
		<path d="M615.18,210.97c0,6.67-4.5,9.58-8.75,9.58c-4.76,0-8.43-3.58-8.43-9.28c0-6.04,3.85-9.58,8.72-9.58
			C611.76,201.68,615.18,205.45,615.18,210.97z M601.23,211.15c0,3.95,2.21,6.93,5.34,6.93c3.05,0,5.34-2.95,5.34-7.01
			c0-3.06-1.49-6.93-5.27-6.93C602.87,204.14,601.23,207.72,601.23,211.15z"/>
		<path d="M622.73,202.09l2.32,9.17c0.51,2.01,0.98,3.88,1.31,5.74h0.11c0.4-1.83,0.98-3.77,1.56-5.7l2.87-9.21h2.69l2.72,9.02
			c0.65,2.16,1.16,4.06,1.56,5.89h0.11c0.29-1.83,0.76-3.73,1.34-5.85l2.51-9.06h3.16l-5.66,18.04h-2.91l-2.69-8.61
			c-0.62-2.01-1.12-3.8-1.56-5.93h-0.07c-0.44,2.16-0.98,4.03-1.6,5.96l-2.83,8.57h-2.9l-5.3-18.04H622.73z"/>
		<path d="M654.54,196.91v5.18h4.57v2.5h-4.57v9.73c0,2.24,0.62,3.5,2.4,3.5c0.83,0,1.45-0.11,1.85-0.22l0.14,2.46
			c-0.62,0.26-1.6,0.45-2.83,0.45c-1.49,0-2.69-0.49-3.45-1.38c-0.91-0.97-1.24-2.57-1.24-4.7v-9.84h-2.72v-2.5h2.72v-4.32
			L654.54,196.91z"/>
		<path d="M665.22,193.67h3.2v11.26h0.07c0.51-0.93,1.31-1.75,2.29-2.31c0.95-0.56,2.07-0.93,3.27-0.93c2.36,0,6.14,1.49,6.14,7.72
			v10.74h-3.2v-10.36c0-2.91-1.05-5.37-4.07-5.37c-2.07,0-3.7,1.49-4.29,3.28c-0.18,0.45-0.22,0.93-0.22,1.57v10.88h-3.2V193.67z"/>
	</g>
	<g>
		
			<radialGradient id="SVGID_1_" cx="335.4244" cy="71.4296" r="124.1459" gradientTransform="matrix(0.6723 0 0 1.1508 75.2564 -34.4335)" gradientUnits="userSpaceOnUse">
			<stop  offset="0" style="stop-color:#F1A81E"/>
			<stop  offset="0.2797" style="stop-color:#EFA61E"/>
			<stop  offset="0.4195" style="stop-color:#E7A11D"/>
			<stop  offset="0.5282" style="stop-color:#DA981B"/>
			<stop  offset="0.621" style="stop-color:#C78B19"/>
			<stop  offset="0.7036" style="stop-color:#AF7A16"/>
			<stop  offset="0.779" style="stop-color:#916512"/>
			<stop  offset="0.8489" style="stop-color:#6D4C0E"/>
			<stop  offset="0.9145" style="stop-color:#432F08"/>
			<stop  offset="0.9744" style="stop-color:#160F03"/>
			<stop  offset="1" style="stop-color:#000000"/>
		</radialGradient>
		<path class="st2" d="M275.28,91.82c-12.98,19.85,16.21-52.89,16.26-53.05c0,0,0,0,0,0c3.26-6.02,11.07-7.46,16.17-2.99
			c0,0,65.51,109.11,52.09,92.36C298.58,51.78,307.93,41.89,275.28,91.82z M300.12,30.26c4.37,0,7.92-3.64,7.92-8.13
			s-3.54-8.13-7.92-8.13s-7.92,3.64-7.92,8.13S295.75,30.26,300.12,30.26z"/>
		
			<radialGradient id="SVGID_2_" cx="238.3445" cy="188.0849" r="130.368" gradientTransform="matrix(0.6723 0 0 1.1296 75.2564 -56.2543)" gradientUnits="userSpaceOnUse">
			<stop  offset="0" style="stop-color:#0A56A2"/>
			<stop  offset="0.2195" style="stop-color:#0A549F"/>
			<stop  offset="0.3772" style="stop-color:#095096"/>
			<stop  offset="0.5156" style="stop-color:#084786"/>
			<stop  offset="0.643" style="stop-color:#073B70"/>
			<stop  offset="0.7627" style="stop-color:#052C53"/>
			<stop  offset="0.8768" style="stop-color:#031930"/>
			<stop  offset="0.9843" style="stop-color:#000407"/>
			<stop  offset="1" style="stop-color:#000000"/>
		</radialGradient>
		<path class="st3" d="M288.11,155.93c23.23,1.62-52.72,12.04-52.88,12.07c0,0,0,0,0,0c-6.71,0.11-11.83-6.11-10.6-12.88
			c0,0,59.27-112.8,51.86-92.5C242.69,155.24,229.67,151.86,288.11,155.93z M217.83,177.76c4.37,0,7.92-3.64,7.92-8.13
			c0-4.49-3.54-8.13-7.92-8.13c-4.37,0-7.92,3.64-7.92,8.13C209.91,174.12,213.46,177.76,217.83,177.76z"/>
		
			<radialGradient id="SVGID_3_" cx="418.999" cy="180.5106" r="123.3714" gradientTransform="matrix(0.6723 0 0 1.004 75.2564 -23.3123)" gradientUnits="userSpaceOnUse">
			<stop  offset="0" style="stop-color:#C3435D"/>
			<stop  offset="0.1985" style="stop-color:#C0425C"/>
			<stop  offset="0.3453" style="stop-color:#B73F57"/>
			<stop  offset="0.4755" style="stop-color:#A7394F"/>
			<stop  offset="0.5961" style="stop-color:#903145"/>
			<stop  offset="0.71" style="stop-color:#732737"/>
			<stop  offset="0.819" style="stop-color:#4F1B26"/>
			<stop  offset="0.922" style="stop-color:#250D12"/>
			<stop  offset="1" style="stop-color:#000000"/>
		</radialGradient>
		<path class="st4" d="M335.77,112.47c-10.25-21.47,36.51,40.86,36.62,40.99c0,0,0,0,0,0c3.45,5.91,0.76,13.58-5.56,15.87
			c0,0-124.78,3.7-103.95,0.13C357.89,153.2,361.56,166.47,335.77,112.47z M382.29,177.76c4.37,0,7.92-3.64,7.92-8.13
			c0-4.49-3.54-8.13-7.92-8.13c-4.37,0-7.92,3.64-7.92,8.13C374.37,174.12,377.92,177.76,382.29,177.76z"/>
	</g>
</g>
</svg>
