<?xml version="1.0" encoding="utf-8"?>
<!-- Generator: Adobe Adobe Illustrator 24.2.0, SVG Export Plug-In . SVG Version: 6.00 Build 0)  -->
<svg version="1.1" id="Layer_1" xmlns="http://www.w3.org/2000/svg" xmlns:xlink="http://www.w3.org/1999/xlink" x="0px" y="0px"
	 viewBox="0 0 1270.06 816" style="enable-background:new 0 0 1270.06 816;" xml:space="preserve">
<style type="text/css">
	.st0{fill:none;}
	.st1{fill:#C3435D;}
	.st2{fill:#FFFFFF;}
	.st3{fill:#0A57A3;}
	.st4{fill:#F1A81E;}
	.st5{fill:#403C3B;}
	.st6{fill:#134A9A;}
	.st7{fill:#0E509F;}
	.st8{fill:#055DA8;}
	.st9{fill:#0063AC;}
	.st10{fill:#FAFCFC;}
	.st11{fill:#26377A;}
	.st12{fill:#AB9F9E;}
	.st13{opacity:0.7;fill:#FFFFFF;}
	.st14{fill:#7F7675;}
	.st15{fill:url(#SVGID_1_);}
	.st16{opacity:0.1;}
</style>
<g>
	<g>
		<path class="st0" d="M1230.53,568.35c-409.83,0-819.66,0-1229.58,0c0-189.37,0-378.74,0-568.35C406.64,0,812.4,0,1218.17,0
			c-1.08,0.88-2.37,0.48-3.56,0.49c-10.7,0.05-21.41,0.07-32.11,0.08c-33.21,0.02-66.42,0.05-99.63,0.05
			c-60.38,0.01-120.77,0-181.15,0c-1.37,0-2.74,0-4.12,0.03c-0.37,0.01-0.83-0.04-1.1,0.76c1.54,2.17,3.42,4.26,5.52,6.18
			c6.91,6.29,13.34,13.04,19.11,20.39c25.73,32.78,37.42,69.93,34.42,111.54c-1.31,18.16-6.69,35.18-15.3,51.19
			c-9.4,17.47-21.87,32.47-36.87,45.4c-12.85,11.08-27.11,19.99-42.43,27.25c-1.48,0.7-2.99,1.38-4.4,2.22
			c-2.18,1.31-2.48,2.74-1.01,4.74c1.05,1.43,2.28,2.74,3.35,4.16c27.74,36.94,55.48,73.88,83.22,110.82
			c0.66,0.88,1.29,1.78,2.04,2.58c2.19,2.32,4.47,2.74,7.44,1.37c1.24-0.57,2.42-1.28,3.6-1.97c14.67-8.58,29.33-17.17,44-25.74
			c9.47-5.53,18.94-11.05,28.43-16.53c9.24-5.33,19.12-7.83,29.87-7.55c15.36,0.4,30.73,0.43,46.1,0.46
			c39.11,0.07,78.22,0.04,117.34,0.06c4.8,0,9.61,0.04,14.41,0.02c1.36-0.01,2.75-0.08,4.09-0.32c2.58-0.47,4.15-2.02,4.39-4.7
			c0.13-1.5,0.24-3.01,0.22-4.51c-0.32-32.89-0.47-65.78,0.08-98.67c0.03-1.77-0.06-3.57-0.3-5.32c-0.5-3.58-2.3-5.27-5.96-5.64
			c-1.63-0.17-3.29-0.15-4.93-0.15c-19.08,0.03-38.15,0.08-57.23,0.1c-40.9,0.05-81.79,0.08-122.69,0.12
			c-1.78,0-3.58,0.05-5.34-0.17c-3.2-0.41-4.93-2.07-5.5-5.23c-0.26-1.47-0.26-3-0.22-4.5c0.4-17.54,0.42-35.08-0.01-52.62
			c-0.03-1.23-0.05-2.48,0.11-3.69c0.45-3.42,2.15-5.11,5.62-5.46c2.04-0.2,4.11-0.2,6.17-0.19c19.9,0.03,39.8,0.11,59.7,0.13
			c33.35,0.04,66.7,0.05,100.05,0.07c16.19,0.01,32.39,0.01,48.58,0.08c2.96,0.01,5.66-0.4,7.88-2.52c0,99.52,0,199.05,0,298.57
			c-1.79-1.65-3.95-2.29-6.33-2.32c-0.82-0.01-1.65-0.01-2.47-0.01c-27.71,0.03-55.42,0.08-83.14,0.1
			c-33.48,0.02-66.95,0.04-100.43-0.03c-5.51-0.01-10.44,1.25-15.18,4.18c-14.45,8.94-28.99,17.72-43.76,26.12
			c-0.71,0.41-1.42,0.83-2.08,1.32c-2.27,1.7-2.64,3.22-1.21,5.64c0.98,1.64,2.13,3.19,3.25,4.75
			c18.28,25.67,36.71,51.24,54.65,77.14c0.55,0.79,1.1,1.57,1.7,2.32c1.77,2.19,3.95,3.71,6.71,4.49c2.14,0.6,4.25,1.02,6.47,0.98
			c4.52-0.08,9.05-0.15,13.58-0.16c20.03-0.06,40.06-0.14,60.09-0.14c21.54,0,43.08,0.08,64.61,0.13c0.96,0,1.92-0.02,2.88,0.06
			C1229.79,567.93,1230.16,568.19,1230.53,568.35z M699.4,246.53c-0.22-1.45-1.01-2.08-1.58-2.83c-2.31-3.07-4.66-6.11-6.96-9.17
			c-11.17-14.86-20.51-30.77-27.81-47.87c-9.66-22.62-15.37-46.2-17.52-70.68c-0.78-8.83-0.18-17.51,1.69-26.14
			c2.31-10.69,6.61-20.57,12.13-29.96c5.86-9.96,12.82-19.12,20.5-27.74c8.14-9.13,17.04-17.47,26.17-25.59
			c1.54-1.37,3.07-2.74,4.59-4.13c0.18-0.17,0.36-0.47,0.34-0.7c-0.03-0.44-0.36-0.69-0.81-0.71c-2.6-0.11-5.21-0.3-7.81-0.3
			c-56.55-0.03-113.11-0.04-169.66-0.05c-10.16,0-20.31-0.04-30.47-0.06c-2.74-0.01-5.49,0-8.23-0.02c-3.73-0.03-6.2,1.85-7.77,5.09
			c-0.42,0.86-0.74,1.77-1.1,2.66c-2.06,5.22-4.12,10.44-6.18,15.67c-20.3,51.61-40.63,103.2-60.89,154.82
			c-18.3,46.65-36.52,93.34-54.78,140.01c-0.4,1.02-0.77,2.05-1.26,3.03c-0.5,1-2.19,0.97-2.72-0.04c-0.44-0.85-0.76-1.76-1.13-2.65
			c-3.82-9.09-7.63-18.18-11.45-27.27c-19.59-46.58-38.51-93.43-57.51-140.25c-19.11-47.07-38.06-94.2-57.09-141.3
			c-0.67-1.65-1.35-3.3-2.18-4.87c-1.51-2.86-3.88-4.57-7.19-4.77c-1.64-0.1-3.29-0.18-4.93-0.17c-22.65,0.05-45.3,0.17-67.94,0.16
			C103.72,0.66,57.6,0.56,11.48,0.5c-1.5,0-3.02,0.12-4.51,0.3C4.51,1.1,3.01,2.54,2.48,4.95c-0.47,2.14-0.85,4.27-0.82,6.5
			C1.8,20.9,1.89,30.35,1.92,39.81c0.1,32.48,0.19,64.97,0.25,97.45c0.05,27.42,0.1,54.83,0.09,82.25
			c-0.01,43.04-0.04,86.09-0.09,129.13c-0.06,44-0.14,88-0.26,132c-0.04,15.35,0.17,30.7-0.18,46.05
			c-0.23,10.14-0.04,20.29-0.05,30.43c0,1.52,0.29,2.98,0.48,4.47c0.55,4.27,3.04,5.59,6.64,5.98c1.22,0.13,2.46,0.16,3.7,0.16
			c2.06,0.01,4.12-0.06,6.17-0.07c14.69-0.06,29.37-0.14,44.06-0.15c25.94-0.01,51.88,0,77.83,0.06c11.66,0.03,23.33,0.2,34.99,0.32
			c2.21,0.02,4.37-0.18,6.5-0.84c2.3-0.71,3.7-2.15,4.35-4.48c0.64-2.29,0.56-4.62,0.56-6.94c-0.06-33.45-0.18-66.89-0.19-100.34
			c-0.02-53.05,0.02-106.1,0.04-159.15c0-1.1,0-2.19,0.03-3.29c0.01-0.38-0.01-0.82,0.69-1.05c1.79,1.58,2.97,3.57,3.75,5.97
			c5.8,17.84,11.71,35.64,17.54,53.46c22.71,69.35,45.4,138.7,68.1,208.05c0.43,1.3,0.89,2.59,1.4,3.86
			c1.15,2.86,3.38,4.21,6.37,4.39c1.23,0.07,2.47,0.03,3.71,0.03c40.63,0,81.26,0,121.89,0c6.73,0,13.45-0.01,20.18,0
			c4.05,0.01,6.95-1.68,7.93-5.72c0.13-0.53,0.38-1.03,0.55-1.55c3.05-9.08,6.1-18.17,9.15-27.25
			c15.12-45.18,30.18-90.38,45.38-135.53c10.35-30.75,20.89-61.44,31.38-92.15c0.33-0.98,0.37-2.21,1.43-2.78
			c0.68-0.37,1.57,1.26,1.76,3.29c0.05,0.54,0.04,1.1,0.04,1.64c0.16,15.08,0.33,30.15,0.47,45.23c0.26,29.47,0.53,58.94,0.75,88.41
			c0.21,28.51,0.37,57.02,0.51,85.53c0.05,10.55-0.02,21.11-0.04,31.66c0,1.78-0.01,3.55,0.47,5.3c0.48,1.74,1.53,2.84,3.21,3.45
			c1.72,0.62,3.49,0.68,5.28,0.65c3.57-0.06,7.13-0.18,10.7-0.18c22.65-0.05,45.3-0.09,67.94-0.12c1.92,0,3.84-0.12,5.74,0.35
			c0.52,0.13,1.09,0.19,1.62,0.12c1.31-0.17,2.33-0.83,2.78-2.12c0.41-1.16-0.04-2.15-0.89-2.96c-0.4-0.38-0.84-0.7-1.25-1.07
			c-1.43-1.28-2.92-2.49-4.27-3.85c-15.81-15.89-28.62-33.9-38.42-54.05c-10.5-21.58-16.67-44.32-18.26-68.24
			c-0.9-13.55-0.66-27.11,1.32-40.61c1.8-12.26,4.83-24.16,9.74-35.55c6.95-16.13,16.6-30.55,28.06-43.8
			c15.55-17.99,33.81-32.83,53.72-45.71c11.75-7.6,24.12-14.14,36.55-20.55C695.65,248.47,697.47,247.53,699.4,246.53z
			 M669.89,406.27c0,3.42,0.3,6.83,0.57,10.24c0.49,6.3,1.57,12.5,3.09,18.59c3.06,12.28,7.65,23.97,14.3,34.79
			c10.6,17.26,24.84,30.48,43.28,39.11c13.88,6.49,28.6,9.04,43.76,9.7c4.12,0.18,8.21-0.4,12.31-0.6
			c3.44-0.17,6.85-0.59,10.18-1.21c13.45-2.5,25.99-7.4,37.54-14.82c13.07-8.39,24.02-19.06,33.77-31.04
			c1.3-1.59,2.57-3.22,3.75-4.89c1.58-2.24,1.7-4.58,0.16-6.9c-0.68-1.03-1.42-2.02-2.18-2.98c-16.05-20.34-32.14-40.64-48.15-61
			c-22.71-28.87-45.36-57.79-68.05-86.68c-1.1-1.4-2.26-2.75-3.47-4.06c-2.42-2.6-5.38-3.01-8.65-1.94
			c-0.65,0.21-1.3,0.43-1.92,0.72c-9.71,4.58-18.81,10.14-27.11,16.96c-8.63,7.1-16.04,15.37-22.58,24.38
			C677.14,363,669.87,383.43,669.89,406.27z M878,116.76c-0.13-3.82,0.03-7.64-0.78-11.44c-1.85-8.76-4.83-17.09-9.13-24.95
			c-5.21-9.52-12.07-17.63-20.95-23.9c-8.39-5.93-17.66-9.66-27.92-11.15c-6.44-0.93-12.87-0.98-19.27-0.43
			c-6.25,0.53-12.39,2.06-18.39,4.01c-12.39,4.03-22.47,11.28-30.13,21.78c-8.55,11.72-12.95,24.87-13.33,39.41
			c-0.32,12.06,2.28,23.31,8.12,33.89c3.91,7.07,7.84,14.13,12.26,20.89c9.22,14.09,18.57,28.11,27.86,42.16
			c0.3,0.46,0.62,0.91,0.91,1.37c1.65,2.58,4.48,2.47,6.5,1.33c0.95-0.54,1.86-1.15,2.78-1.76c9.72-6.41,19.42-12.85,29.15-19.24
			c6.64-4.36,13.35-8.62,19.96-13.02c9.37-6.23,17.3-13.91,23.07-23.63C875.17,141.19,878.26,129.41,878,116.76z"/>
		<g>
			<path class="st1" d="M1270.06,144.76c-2.22,2.12-4.93,2.54-7.88,2.52c-16.19-0.08-32.39-0.07-48.58-0.08
				c-33.35-0.03-66.7-0.03-100.05-0.07c-19.9-0.02-39.8-0.1-59.7-0.13c-2.06,0-4.12-0.01-6.17,0.19c-3.47,0.34-5.17,2.03-5.62,5.46
				c-0.16,1.22-0.14,2.46-0.11,3.69c0.43,17.54,0.41,35.08,0.01,52.62c-0.03,1.5-0.04,3.04,0.22,4.5c0.56,3.17,2.29,4.82,5.5,5.23
				c1.76,0.23,3.56,0.17,5.34,0.17c40.9-0.03,81.79-0.07,122.69-0.12c19.08-0.02,38.15-0.07,57.23-0.1c1.65,0,3.3-0.02,4.93,0.15
				c3.66,0.37,5.46,2.07,5.96,5.64c0.24,1.76,0.33,3.55,0.3,5.32c-0.56,32.89-0.4,65.78-0.08,98.67c0.01,1.5-0.09,3.01-0.22,4.51
				c-0.24,2.68-1.8,4.24-4.39,4.7c-1.34,0.24-2.72,0.32-4.09,0.32c-4.8,0.03-9.61-0.02-14.41-0.02
				c-39.11-0.02-78.23,0.01-117.34-0.06c-15.37-0.03-30.74-0.06-46.1-0.46c-10.75-0.28-20.64,2.22-29.87,7.55
				c-9.49,5.48-18.96,11-28.43,16.53c-14.67,8.57-29.33,17.16-44,25.74c-1.18,0.69-2.36,1.39-3.6,1.97
				c-2.97,1.37-5.25,0.95-7.44-1.37c-0.75-0.79-1.38-1.7-2.04-2.58c-27.74-36.94-55.47-73.89-83.22-110.82
				c-1.07-1.42-2.3-2.73-3.35-4.16c-1.47-2-1.18-3.43,1.01-4.74c1.41-0.84,2.91-1.52,4.4-2.22c15.32-7.26,29.58-16.17,42.43-27.25
				c15-12.93,27.48-27.93,36.87-45.4c8.61-16.01,13.99-33.03,15.3-51.19c3-41.61-8.68-78.75-34.42-111.54
				c-5.77-7.35-12.2-14.1-19.11-20.39c-2.11-1.92-3.99-4.01-5.52-6.18c0.27-0.8,0.73-0.75,1.1-0.76c1.37-0.03,2.74-0.03,4.12-0.03
				c60.38,0,120.77,0.01,181.15,0c33.21,0,66.42-0.03,99.63-0.05c10.7-0.01,21.41-0.02,32.11-0.08c1.19-0.01,2.47,0.4,3.56-0.49
				c15.37,0,30.75,0,46.12,0c0.27,0.58,0.8,0.67,1.34,0.7c2.24,0.15,3.59,1.44,4.42,3.41C1270.06,51,1270.06,97.88,1270.06,144.76z"
				/>
			<path class="st1" d="M1230.53,568.35c-0.37-0.16-0.73-0.42-1.11-0.45c-0.95-0.08-1.92-0.06-2.88-0.06
				c-21.54-0.05-43.08-0.13-64.61-0.13c-20.03,0-40.06,0.08-60.09,0.14c-4.53,0.01-9.05,0.08-13.58,0.16
				c-2.22,0.04-4.34-0.38-6.47-0.98c-2.76-0.78-4.94-2.3-6.71-4.49c-0.6-0.75-1.16-1.53-1.7-2.32
				c-17.95-25.9-36.37-51.47-54.65-77.14c-1.11-1.56-2.27-3.1-3.25-4.75c-1.44-2.42-1.06-3.94,1.21-5.64
				c0.66-0.49,1.37-0.92,2.08-1.32c14.77-8.4,29.31-17.18,43.76-26.12c4.74-2.93,9.67-4.2,15.18-4.18
				c33.48,0.07,66.95,0.05,100.43,0.03c27.71-0.01,55.42-0.06,83.14-0.1c0.82,0,1.65,0,2.47,0.01c2.38,0.03,4.54,0.67,6.33,2.32
				c0,40.58,0,81.15,0,121.73c-1.18,0.83-2.18,1.94-3.63,2.37c-0.4,0.12-0.61,0.46-0.49,0.92
				C1254.14,568.35,1242.33,568.35,1230.53,568.35z"/>
		</g>
		<path class="st2" d="M1270.06,4.11c-0.83-1.97-2.18-3.26-4.42-3.41c-0.54-0.04-1.08-0.13-1.34-0.7c1.84,0,3.69,0,5.77,0
			C1270.06,1.36,1270.06,2.74,1270.06,4.11z"/>
		<path class="st2" d="M1265.94,568.35c-0.12-0.46,0.08-0.8,0.49-0.92c1.45-0.43,2.45-1.54,3.63-2.37c0,1.1,0,2.19,0,3.29
			C1268.69,568.35,1267.32,568.35,1265.94,568.35z"/>
		<path class="st3" d="M699.4,246.53c-1.94,1-3.76,1.94-5.58,2.88c-12.43,6.41-24.8,12.95-36.55,20.55
			c-19.91,12.88-38.17,27.72-53.72,45.71c-11.45,13.25-21.1,27.67-28.06,43.8c-4.91,11.39-7.95,23.29-9.74,35.55
			c-1.98,13.5-2.22,27.06-1.32,40.61c1.59,23.91,7.76,46.66,18.26,68.24c9.8,20.15,22.61,38.16,38.42,54.05
			c1.35,1.36,2.84,2.57,4.27,3.85c0.41,0.36,0.85,0.69,1.25,1.07c0.85,0.81,1.3,1.8,0.89,2.96c-0.45,1.28-1.47,1.95-2.78,2.12
			c-0.53,0.07-1.1,0-1.62-0.12c-1.9-0.47-3.82-0.35-5.74-0.35c-22.65,0.03-45.3,0.07-67.94,0.12c-3.57,0.01-7.13,0.13-10.7,0.18
			c-1.79,0.03-3.56-0.03-5.28-0.65c-1.68-0.61-2.72-1.7-3.21-3.45c-0.49-1.75-0.48-3.52-0.47-5.3c0.01-10.55,0.09-21.11,0.04-31.66
			c-0.14-28.51-0.3-57.02-0.51-85.53c-0.22-29.47-0.48-58.94-0.75-88.41c-0.13-15.08-0.31-30.15-0.47-45.23
			c-0.01-0.55,0.01-1.1-0.04-1.64c-0.2-2.04-1.08-3.66-1.76-3.29c-1.06,0.57-1.1,1.8-1.43,2.78c-10.49,30.71-21.03,61.4-31.38,92.15
			c-15.2,45.15-30.26,90.35-45.38,135.53c-3.04,9.09-6.1,18.17-9.15,27.25c-0.17,0.52-0.43,1.02-0.55,1.55
			c-0.98,4.04-3.88,5.73-7.93,5.72c-6.73-0.01-13.45,0-20.18,0c-40.63,0-81.26,0-121.89,0c-1.24,0-2.47,0.04-3.71-0.03
			c-2.99-0.18-5.22-1.54-6.37-4.39c-0.51-1.27-0.98-2.56-1.4-3.86c-22.7-69.35-45.4-138.7-68.1-208.05
			c-5.84-17.83-11.74-35.63-17.54-53.46c-0.78-2.39-1.96-4.39-3.75-5.97c-0.7,0.23-0.68,0.67-0.69,1.05
			c-0.03,1.1-0.03,2.19-0.03,3.29c-0.02,53.05-0.06,106.1-0.04,159.15c0.01,33.45,0.13,66.89,0.19,100.34
			c0,2.32,0.08,4.65-0.56,6.94c-0.65,2.33-2.04,3.78-4.35,4.48c-2.13,0.65-4.29,0.86-6.5,0.84c-11.66-0.12-23.33-0.3-34.99-0.32
			c-25.94-0.06-51.88-0.07-77.83-0.06c-14.69,0.01-29.37,0.09-44.06,0.15c-2.06,0.01-4.12,0.07-6.17,0.07
			c-1.23,0-2.47-0.03-3.7-0.16c-3.61-0.39-6.1-1.71-6.64-5.98c-0.19-1.49-0.49-2.95-0.48-4.47c0.01-10.14-0.18-20.29,0.05-30.43
			c0.35-15.35,0.14-30.7,0.18-46.05c0.12-44,0.2-88,0.26-132c0.06-43.04,0.09-86.09,0.09-129.13c0-27.42-0.04-54.83-0.09-82.25
			c-0.06-32.48-0.15-64.97-0.25-97.45C1.89,30.35,1.8,20.9,1.66,11.45c-0.03-2.22,0.35-4.36,0.82-6.5C3.01,2.54,4.51,1.1,6.97,0.8
			c1.49-0.18,3.01-0.3,4.51-0.3c46.12,0.06,92.24,0.16,138.36,0.19c22.65,0.01,45.3-0.11,67.94-0.16c1.64,0,3.29,0.07,4.93,0.17
			c3.31,0.2,5.67,1.91,7.19,4.77c0.83,1.57,1.51,3.22,2.18,4.87c19.03,47.1,37.99,94.23,57.09,141.3
			c19.01,46.82,37.93,93.67,57.51,140.25c3.82,9.09,7.63,18.18,11.45,27.27c0.37,0.88,0.68,1.8,1.13,2.65
			c0.53,1.01,2.21,1.04,2.72,0.04c0.49-0.97,0.87-2.01,1.26-3.03c18.26-46.67,36.47-93.36,54.78-140.01
			C438.29,127.19,458.62,75.6,478.92,24c2.06-5.22,4.11-10.45,6.18-15.67c0.35-0.89,0.68-1.8,1.1-2.66
			c1.56-3.24,4.04-5.12,7.77-5.09c2.74,0.02,5.49,0.01,8.23,0.02c10.16,0.02,20.31,0.06,30.47,0.06
			c56.55,0.02,113.11,0.02,169.66,0.05c2.6,0,5.21,0.19,7.81,0.3c0.45,0.02,0.78,0.27,0.81,0.71c0.01,0.23-0.16,0.53-0.34,0.7
			c-1.52,1.39-3.05,2.76-4.59,4.13c-9.13,8.12-18.03,16.47-26.17,25.59c-7.68,8.62-14.64,17.78-20.5,27.74
			c-5.52,9.38-9.82,19.27-12.13,29.96c-1.87,8.63-2.46,17.3-1.69,26.14c2.16,24.49,7.86,48.07,17.52,70.68
			c7.3,17.1,16.65,33.01,27.81,47.87c2.31,3.07,4.66,6.1,6.96,9.17C698.39,244.45,699.18,245.08,699.4,246.53z"/>
		<path class="st4" d="M669.89,406.27c-0.02-22.84,7.25-43.26,20.59-61.63c6.55-9.01,13.95-17.28,22.58-24.38
			c8.3-6.83,17.4-12.39,27.11-16.96c0.62-0.29,1.27-0.51,1.92-0.72c3.27-1.07,6.23-0.66,8.65,1.94c1.21,1.3,2.38,2.66,3.47,4.06
			c22.69,28.89,45.34,57.81,68.05,86.68c16.01,20.36,32.1,40.67,48.15,61c0.76,0.97,1.5,1.96,2.18,2.98
			c1.54,2.32,1.42,4.67-0.16,6.9c-1.19,1.68-2.45,3.3-3.75,4.89c-9.75,11.98-20.7,22.65-33.77,31.04
			c-11.54,7.42-24.09,12.31-37.54,14.82c-3.33,0.62-6.75,1.04-10.18,1.21c-4.1,0.2-8.18,0.78-12.31,0.6
			c-15.16-0.67-29.88-3.21-43.76-9.7c-18.44-8.63-32.68-21.85-43.28-39.11c-6.65-10.82-11.24-22.51-14.3-34.79
			c-1.52-6.1-2.6-12.29-3.09-18.59C670.19,413.09,669.89,409.69,669.89,406.27z"/>
		<path class="st4" d="M878,116.76c0.26,12.65-2.83,24.43-9.27,35.29c-5.76,9.72-13.7,17.4-23.07,23.63
			c-6.61,4.4-13.32,8.66-19.96,13.02c-9.73,6.39-19.44,12.83-29.15,19.24c-0.91,0.6-1.83,1.22-2.78,1.76
			c-2.02,1.14-4.86,1.25-6.5-1.33c-0.3-0.46-0.61-0.91-0.91-1.37c-9.29-14.05-18.64-28.06-27.86-42.16
			c-4.42-6.76-8.35-13.82-12.26-20.89c-5.84-10.58-8.44-21.83-8.12-33.89c0.39-14.54,4.78-27.69,13.33-39.41
			c7.66-10.5,17.74-17.75,30.13-21.78c6-1.95,12.14-3.48,18.39-4.01c6.39-0.55,12.82-0.5,19.27,0.43
			c10.26,1.48,19.53,5.22,27.92,11.15c8.88,6.28,15.74,14.38,20.95,23.9c4.3,7.86,7.28,16.19,9.13,24.95
			C878.03,109.12,877.87,112.94,878,116.76z"/>
	</g>
	<g>
		<path class="st5" d="M67.04,677.23v-53.27l-21.79,53.27h-3.26l-21.69-53.27v53.27h-7.97v-64.02h11.42l19.87,48.76l19.96-48.76H75
			v64.02H67.04z"/>
		<path class="st5" d="M119.16,612.16c18.91,0,31.77,14.21,31.77,33.11c0,18.91-12.86,33.11-31.77,33.11
			c-19,0-31.77-14.2-31.77-33.11C87.39,626.36,100.15,612.16,119.16,612.16z M119.16,619.26c-14.4,0-23.51,11.04-23.51,26.01
			c0,14.88,9.12,26.01,23.51,26.01c14.3,0,23.51-11.13,23.51-26.01C142.67,630.3,133.46,619.26,119.16,619.26z"/>
		<path class="st5" d="M208.71,677.23l-37.33-51.64v51.64h-7.97v-64.02h8.16l36.86,50.58v-50.58h7.97v64.02H208.71z"/>
		<path class="st5" d="M231.36,677.23v-64.02h7.97v64.02H231.36z"/>
		<path class="st5" d="M270.14,677.23v-56.92h-20.25v-7.1h48.56v7.1h-20.35v56.92H270.14z"/>
		<path class="st5" d="M335.6,612.16c18.91,0,31.77,14.21,31.77,33.11c0,18.91-12.86,33.11-31.77,33.11
			c-19,0-31.77-14.2-31.77-33.11C303.83,626.36,316.6,612.16,335.6,612.16z M335.6,619.26c-14.4,0-23.51,11.04-23.51,26.01
			c0,14.88,9.12,26.01,23.51,26.01c14.3,0,23.51-11.13,23.51-26.01C359.11,630.3,349.9,619.26,335.6,619.26z"/>
		<path class="st5" d="M416.9,677.23l-16.32-25.43h-12.76v25.43h-7.97v-64.02h25.72c11.71,0,20.06,7.49,20.06,19.29
			c0,11.52-7.87,17.85-16.6,18.62l17.28,26.11H416.9z M404.61,620.32h-16.8v24.47h16.8c7.58,0,12.77-5.09,12.77-12.29
			S412.2,620.32,404.61,620.32z"/>
		<path class="st5" d="M438.21,677.23v-64.02h7.97v64.02H438.21z"/>
		<path class="st5" d="M506.45,677.23l-37.33-51.64v51.64h-7.97v-64.02h8.16l36.86,50.58v-50.58h7.97v64.02H506.45z"/>
		<path class="st5" d="M559.43,612.16c11.33,0,19.2,4.99,24.86,12l-6.33,3.94c-4.03-5.18-10.85-8.83-18.52-8.83
			c-14.01,0-24.67,10.75-24.67,26.01c0,15.17,10.65,26.11,24.67,26.11c7.68,0,14.01-3.74,17.18-6.91v-13.05h-21.98v-7.1h29.95v23.13
			c-5.95,6.62-14.68,11.04-25.15,11.04c-18.24,0-32.92-13.34-32.92-33.21C526.51,625.4,541.2,612.16,559.43,612.16z"/>
		<path class="st5" d="M673.56,677.23h-9.89c-1.92-1.73-4.42-4.13-7.01-6.72c-4.7,4.61-10.75,7.87-18.52,7.87
			c-10.94,0-19.87-5.95-19.87-17.85c0-9.98,6.72-15.07,14.11-19.1c-2.88-4.89-4.9-9.79-4.9-14.3c0-8.54,7.01-14.88,16.12-14.88
			c8.25,0,14.49,4.51,14.49,12.57c0,9.6-8.25,13.82-16.32,18.04c2.5,3.55,5.28,6.72,7.39,9.12c2.59,2.98,5.09,5.76,7.58,8.54
			c3.46-5.28,5.76-11.04,6.91-14.59l6.14,2.69c-2.11,5.09-4.8,11.13-8.64,16.51C664.92,669.07,668.95,672.91,673.56,677.23z
			 M652.35,666.1c-3.65-3.84-7.1-7.49-8.93-9.69c-2.59-3.07-5.37-6.53-7.87-10.17c-5.37,3.26-9.5,7.2-9.5,13.82
			c0,7.97,6.14,12.38,12.86,12.38C644.19,672.43,648.7,669.74,652.35,666.1z M638.72,638.26c6.81-3.46,12.67-6.81,12.67-13.15
			c0-4.7-3.26-7.2-7.49-7.2c-4.99,0-9.02,3.84-9.02,9.31C634.88,630.58,636.51,634.42,638.72,638.26z"/>
		<path class="st5" d="M708.59,677.23v-64.02h41.94v7.1h-33.98v20.64h33.3v7.1h-33.3v22.08h33.98v7.1H708.59z"/>
		<path class="st5" d="M782.31,677.23l-25.72-64.02h9.12l21.6,55.28l21.59-55.28h9.12l-25.82,64.02H782.31z"/>
		<path class="st5" d="M867.16,677.23l-5.66-14.21h-32.44l-5.66,14.21h-8.83l25.72-64.02h9.89l25.82,64.02H867.16z M845.27,620.32
			l-13.92,35.61h27.74L845.27,620.32z"/>
		<path class="st5" d="M884.34,677.23v-64.02h7.97v56.92h29.75v7.1H884.34z"/>
		<path class="st5" d="M930.7,613.21h7.97v38.97c0,11.71,6.33,19.1,18.14,19.1c11.81,0,18.14-7.39,18.14-19.1v-38.97h7.97v39.06
			c0,15.93-8.73,26.11-26.11,26.11c-17.37,0-26.11-10.27-26.11-26.01V613.21z"/>
		<path class="st5" d="M1041.37,677.23l-5.66-14.21h-32.44l-5.66,14.21h-8.83l25.72-64.02h9.89l25.82,64.02H1041.37z
			 M1019.49,620.32l-13.92,35.61h27.74L1019.49,620.32z"/>
		<path class="st5" d="M1067.96,677.23v-56.92h-20.25v-7.1h48.56v7.1h-20.35v56.92H1067.96z"/>
		<path class="st5" d="M1106.83,677.23v-64.02h7.97v64.02H1106.83z"/>
		<path class="st5" d="M1158.95,612.16c18.91,0,31.77,14.21,31.77,33.11c0,18.91-12.86,33.11-31.77,33.11
			c-19,0-31.77-14.2-31.77-33.11C1127.18,626.36,1139.95,612.16,1158.95,612.16z M1158.95,619.26c-14.4,0-23.51,11.04-23.51,26.01
			c0,14.88,9.12,26.01,23.51,26.01c14.3,0,23.51-11.13,23.51-26.01C1182.46,630.3,1173.25,619.26,1158.95,619.26z"/>
		<path class="st5" d="M1248.5,677.23l-37.34-51.64v51.64h-7.97v-64.02h8.16l36.86,50.58v-50.58h7.97v64.02H1248.5z"/>
		<path class="st5" d="M66.42,802.72l-46.98-64.97v64.97H9.42v-80.55h10.26l46.37,63.64v-63.64h10.02v80.55H66.42z"/>
		<path class="st5" d="M94.91,802.72v-80.55h52.77v8.94h-42.75v25.96h41.9v8.94h-41.9v27.77h42.75v8.94H94.91z"/>
		<path class="st5" d="M183.55,802.72v-71.61h-25.48v-8.94h61.1v8.94h-25.6v71.61H183.55z"/>
		<path class="st5" d="M294.04,802.72l-17.75-64.97l-17.75,64.97h-10.87l-22.94-80.55h11.11l17.87,67.14l18.48-67.14h8.33
			l18.48,67.14l17.75-67.14h11.11l-22.94,80.55H294.04z"/>
		<path class="st5" d="M373.37,720.85c23.79,0,39.97,17.87,39.97,41.66c0,23.79-16.18,41.66-39.97,41.66
			c-23.91,0-39.97-17.87-39.97-41.66C333.4,738.72,349.46,720.85,373.37,720.85z M373.37,729.78c-18.11,0-29.59,13.89-29.59,32.72
			c0,18.72,11.47,32.73,29.59,32.73c17.99,0,29.59-14.01,29.59-32.73C402.96,743.67,391.36,729.78,373.37,729.78z"/>
		<path class="st5" d="M475.65,802.72l-20.53-32h-16.06v32h-10.02v-80.55h32.36c14.73,0,25.24,9.42,25.24,24.27
			c0,14.49-9.9,22.46-20.89,23.43l21.74,32.85H475.65z M460.19,731.11h-21.13v30.79h21.13c9.54,0,16.06-6.4,16.06-15.46
			S469.73,731.11,460.19,731.11z"/>
		<path class="st5" d="M551.12,802.72l-30.55-36.23l-8.09,9.18v27.05h-10.02v-80.55h10.02v41.66l35.62-41.66h12.56l-33.57,38.28
			l36.47,42.27H551.12z"/>
		<path class="st5" d="M606.18,802.72v-80.55h32.36c16.18,0,25.24,11.11,25.24,24.27c0,13.16-9.3,24.27-25.24,24.27h-22.34v32
			H606.18z M637.34,731.11h-21.13v30.67h21.13c9.54,0,16.06-6.28,16.06-15.34S646.88,731.11,637.34,731.11z"/>
		<path class="st5" d="M734.18,802.72v-36.95h-47.1v36.95h-10.02v-80.55h10.02v34.66h47.1v-34.66h10.02v80.55H734.18z"/>
		<path class="st5" d="M763.04,802.72v-80.55h10.02v80.55H763.04z"/>
		<path class="st5" d="M791.9,802.72v-80.55h10.02v71.61h37.43v8.94H791.9z"/>
		<path class="st5" d="M853.49,802.72v-80.55h10.02v80.55H853.49z"/>
		<path class="st5" d="M882.35,802.72v-80.55h32.36c16.18,0,25.24,11.11,25.24,24.27c0,13.16-9.3,24.27-25.24,24.27h-22.34v32
			H882.35z M913.5,731.11h-21.13v30.67h21.13c9.54,0,16.06-6.28,16.06-15.34S923.04,731.11,913.5,731.11z"/>
		<path class="st5" d="M953.23,802.72v-80.55h32.36c16.18,0,25.24,11.11,25.24,24.27c0,13.16-9.3,24.27-25.24,24.27h-22.34v32
			H953.23z M984.38,731.11h-21.13v30.67h21.13c9.54,0,16.06-6.28,16.06-15.34S993.92,731.11,984.38,731.11z"/>
		<path class="st5" d="M1024.11,802.72v-80.55h10.02v80.55H1024.11z"/>
		<path class="st5" d="M1109.97,802.72l-46.97-64.97v64.97h-10.02v-80.55h10.26l46.37,63.64v-63.64h10.02v80.55H1109.97z"/>
		<path class="st5" d="M1138.46,802.72v-80.55h52.77v8.94h-42.75v25.96h41.9v8.94h-41.9v27.77h42.75v8.94H1138.46z"/>
		<path class="st5" d="M1208.26,783.76c5.31,5.92,14.01,11.47,25.36,11.47c14.37,0,18.96-7.73,18.96-13.89
			c0-9.66-9.78-12.32-20.41-15.22c-12.92-3.38-27.29-7-27.29-22.82c0-13.28,11.83-22.34,27.65-22.34c12.32,0,21.86,4.11,28.62,11.23
			l-6.04,7.37c-6.04-6.64-14.49-9.66-23.31-9.66c-9.66,0-16.54,5.19-16.54,12.8c0,8.09,9.3,10.51,19.56,13.28
			c13.16,3.5,28.14,7.61,28.14,24.51c0,11.71-7.97,23.67-29.71,23.67c-14.01,0-24.27-5.31-30.91-12.8L1208.26,783.76z"/>
	</g>
</g>
</svg>
